<?xml version="1.0" encoding="UTF-8"?>
<svg width="3500px" height="2888px" viewBox="0 0 3500 2888" version="1.1" xmlns="http://www.w3.org/2000/svg" xmlns:xlink="http://www.w3.org/1999/xlink">
    <title>Artboard</title>
    <defs>
        <rect id="path-1" x="7.34207676" y="26.6699091" width="162" height="71"></rect>
    </defs>
    <g id="Artboard" stroke="none" stroke-width="1" fill="none" fill-rule="evenodd">
        <g id="g14" transform="translate(1892, 1496) scale(-1, 1) rotate(200) translate(-1892, -1496)translate(638, 766)">
            <g id="g550" transform="translate(-0, 0)" fill="#36CE8C" stroke="#000000" stroke-width="15.9999996">
                <path d="M159.184047,0 L977.519757,0 C986.83607,0 995.238451,5.60130677 998.820187,14.1991727 L1151.02397,379.650456 C1154.7807,388.672118 1163.81903,394.347389 1173.58131,393.815645 L1285.52706,387.708581 C1295.54833,387.161844 1304.77365,393.152963 1308.34538,402.527456 L1519.52682,956.665014 C1522.93557,965.607715 1531.51494,971.516873 1541.08824,971.516873 L2484.9277,971.516873 C2497.66976,971.516873 2508,981.842908 2508,994.580784 L2508,1436.93609 C2508,1449.67396 2497.66976,1460 2484.9277,1460 L209.483341,1460 C198.206172,1460 188.581881,1451.85192 186.725018,1440.73326 L0.31475135,324.286076 C-0.417194724,319.902184 0.133764684,315.400349 1.90163444,311.322309 L102.287239,79.6886839 C102.938191,78.1864063 103.427155,76.6181603 103.746131,75.0129321 L111.138587,37.8028236 C112.239505,32.261488 115.336277,27.317865 119.842945,23.9075047 L145.258073,4.6757518 C149.266777,1.64221039 154.156417,0 159.184047,0 Z" id="path552"></path>
            </g>
            <g id="g20" transform="translate(878.8536, 452.5515)" stroke="#000000" stroke-width="9.3333331">
                <path d="M186.624688,4.71349771 L169.736164,3.69903627 L114.83468,2.97093309e-13 C114.83468,2.97093309e-13 79.1250547,16.2146571 62.8037231,10.2947998 C51.9221674,6.34822826 36.6961041,6.67460449 17.1255333,11.2739285 C2.24482774,24.0741168 -2.93827918,35.186756 1.57621255,44.6118461 C1.80129837,45.0817671 11.5500581,62.0591673 30.8224916,95.5440468 C47.5985096,124.611644 55.4918113,146.298313 54.5023967,160.604051 C53.019277,182.062659 66.6102406,193.870079 66.6102406,193.870079 C66.6102406,193.870079 143.769543,243.44676 271.378967,241.967545 L279.35775,242" id="path22"></path>
            </g>
            <g id="g24" transform="translate(801.1784, 694.2871)" stroke="#000000" stroke-width="9.3333331">
                <path d="M2.95563688e-14,34.2918731 L24.9867654,42.4097945 C21.2981958,60.1359372 19.7004764,72.1952859 20.1936072,78.5878408 C20.9333034,88.176673 15.1672653,96.4289806 50.6417359,94.4482451 C86.1162066,92.4675096 93.5061806,118.558818 93.5061806,118.558818 C95.7232726,162.0802 141.415863,178.719454 141.415863,178.719454 C208.669318,217.076776 239.240558,172.137581 239.240558,172.137581 C248.848622,138.206027 228.532123,104.46211 228.532123,104.46211 C212.272783,57.2522559 343.452031,7.65362018e-14 343.452031,7.65362018e-14" id="path26"></path>
            </g>
            <g id="g28" transform="translate(783.4853, 767.8738)" stroke="#000000" stroke-width="9.3333331">
                <path d="M36.0663865,0 C36.0663865,0 -8.80302164,13.5763683 1.55127378,38.7463673 C11.9055692,63.9153665 24.4785709,84.6437186 48.1451037,86.1246009 C59.9788696,86.865542 69.4081214,90.5662478 75.8794311,94.0829682 C82.3507409,97.5986887 85.8641087,100.930424 85.8641087,100.930424 C85.8641087,100.930424 182.749945,214.936361 254.490777,222.338772 C326.230611,229.742184 491.352902,240.73131 491.352902,240.73131" id="path30"></path>
            </g>
            <g id="g32" transform="translate(585.5667, 758.8573)" stroke="#000000" stroke-width="9.3333331">
                <path d="M216,77.233694 C216,77.233694 180.416691,71.800986 160.806762,97.5571615 C141.195831,123.312333 76.2777504,111.112832 76.2777504,111.112832 C76.2777504,111.112832 21.5031513,108.401497 5.9504141,53.5012323 C-9.60332463,-1.39903253 10.2509778,0.00331282667 10.2509778,0.00331282667" id="path34"></path>
            </g>
            <g id="g36" transform="translate(559.566, 749.4419)" stroke="#000000" stroke-width="9.3333331">
                <path d="M225,41 C225,41 191.582088,13.4750158 134.046918,15.5411743 C76.5117484,17.6063129 25.1600034,11.4088572 20.4306192,1.76950374 C20.4306192,1.76950374 13.8849354,-2.21187968 0,1.76950374" id="path38"></path>
            </g>
            <g id="g40" transform="translate(532.4574, 460.7482)" stroke="#000000" stroke-width="9.3333331">
                <path d="M24.2551765,294.143064 C24.2551765,294.143064 45.2612839,279.467357 32.5786341,247.338296 C32.5786341,247.338296 -17.3611119,163.645645 6.42048129,120.80623 C30.2000748,77.9688161 34.563772,77.7085781 51.6227765,74.1093827 C68.6817809,70.5101873 74.6182712,83.6693958 116.062297,79.3881153 C129.971197,77.951288 142.458981,86.7346145 168.525119,67.4569202 C194.591257,48.1792259 235.035414,33.9490761 284.425956,15.9723893 C333.816497,-2.00429755 326.908886,-14.3866546 346.977829,33.5059497 C347.165686,33.9542522 347.495278,34.3310608 347.718158,34.7215246" id="path42"></path>
            </g>
            <g id="g44" transform="translate(697.6353, 322.5464)" stroke="#000000" stroke-width="9.3333331">
                <path d="M156.943006,137.878824 C156.943006,137.878824 175.391101,69.0053144 163.84172,46.4851864 C156.142132,31.4711043 149.878973,19.6553034 145.052242,11.0377839 C142.645989,-4.02929501 128.738179,-3.67093602 103.32881,12.1128609 C103.32881,12.1128609 73.8554541,17.9198623 63.6215387,26.5261975 C56.7989285,32.2637542 43.8903343,35.0924125 24.8957561,35.0121723 C4.53257138,31.0789145 -3.33874653,52.7883128 1.28180232,100.140367 C12.7054721,139.230845 20.4650327,168.971454 24.560484,189.362193 C24.6871168,189.992682 23.2606823,191.783915 20.2811806,194.735894" id="path46"></path>
            </g>
            <g id="g48" transform="translate(440.3392, 44.8446)" stroke="#000000" stroke-width="9.3333331">
                <polyline id="path50" transform="translate(15.3351, 353.3894) rotate(2) translate(-15.3351, -353.3894)" points="12.3351446 -0.110644159 12.3351446 412.481884 18.3351446 679.80262 18.3351446 706.889356"></polyline>
            </g>
            <g id="g52" transform="translate(449.595, 503.3317)" stroke="#000000" stroke-linecap="round" stroke-width="9.3333331">
                <path d="M124.296242,34.1111696 C124.296242,34.1111696 58.2918224,-5.51466403 22.7359404,0.651650912 C9.35294719,2.97261009 -0.376509488,11.4474852 0.0111885816,31.2982187" id="path54"></path>
            </g>
            <g id="g52" transform="translate(559.1221, 809.9522)" stroke="#000000" stroke-width="9.3333331">
                <path d="M87.4080424,57.2217217 C87.4080424,57.2217217 69.4448869,49.1681704 38.4537258,60.4480306 C33.9533682,62.0860268 20.5767874,63.4524915 1.35649547e-14,54.8389519" id="path54"></path>
                <path d="M32.5588802,1.28581191e-13 C32.5588802,1.28581191e-13 10.272971,4.51094825 1.10018629,0.221360586" id="path54"></path>
            </g>
            <g id="g56" transform="translate(155.904, 613.1613)" stroke="#000000" stroke-linecap="round" stroke-width="9.3333331">
                <path d="M375.46799,-1.23235924e-13 C375.46799,-1.23235924e-13 369.915139,41.3379824 336.111224,53.6416013 C302.307309,65.9452202 288.645356,99.6588318 292.887003,132.484034 C292.887003,132.484034 238.207948,172.944056 202.430485,177.605234 C185.689524,179.786289 154.189788,182.421094 125.40851,184.607474 C108.5017,185.891806 75.3716179,185.830096 47.5081754,187.425588 C21.4342239,188.918612 1.22849717e-14,192.114237 1.22849717e-14,192.114237" id="path58"></path>
            </g>
            <g id="g60" transform="translate(399.1803, 771.5551)" stroke="#E30613" stroke-width="2.6666666">
                <path d="M33,44 C33,44 1.51553625,16.5375184 0,0" id="path62"></path>
            </g>
            <g id="g64" transform="translate(357.7743, 791.2667)" stroke="#E30613" stroke-width="2.6666666">
                <path d="M69,28 C69,28 9.98925453,23.6114368 3.59877616e-14,-5.54277661e-14" id="path66"></path>
            </g>
            <g id="g68" transform="translate(308.8689, 793.6686)" stroke="#000000" stroke-width="9.3333331">
                <path d="M34.4699332,-6.87794134e-14 C34.4699332,-6.87794134e-14 -61.5532225,150.944938 66.9341955,170.920042 C195.421613,190.895145 332.763648,186.614766 332.763648,186.614766 L657.111351,168.087394 C661.83508,167.818188 665.720034,164.26965 666.379856,159.59643 C668.158378,146.977636 669.11155,123.675507 645.169994,85.0982517" id="path70"></path>
            </g>
            <g id="g72" transform="translate(1134.1029, 436.8153)" stroke="#000000" stroke-width="6.6666665">
                <path d="M286.366815,391.873567 L133.25132,5.6696688 C131.425319,1.06389971 126.206885,-1.1914356 121.595782,0.632452966 L5.67578729,46.4839303 C1.06468382,48.3078189 -1.19326361,53.5212171 0.633739566,58.1259852 L153.748232,444.329883 C155.575235,448.935653 160.793669,451.190988 165.404772,449.3681 L281.323765,403.515622 C285.934868,401.692734 288.192816,396.480337 286.366815,391.873567 Z" id="path74"></path>
            </g>
            <g id="g76" transform="translate(648.8953, 638.4443)" fill="#000000" fill-rule="nonzero">
                <polygon id="path78" points="5.33414092 12.3386695 1.06904906 11.2660482 0 15.4961039 13.9309509 19 15 14.7699443 10.7349081 13.6983302 13.8532203 1.35865359 8.45245306 0"></polygon>
            </g>
            <g id="g80" transform="translate(663.9582, 641.1434)" fill="#000000" fill-rule="nonzero">
                <polygon id="path82" points="-1.77985097e-13 16.8702251 12.487374 20 13.5533568 15.7944932 6.6136336 14.056299 7.34320748 11.1828949 12.5286512 12.4832077 13.1983732 9.84156284 8.01292946 8.54227555 8.76107806 5.59503666 15.9329853 7.39168333 17 3.18720197 4.28044191 -1.21787187e-13"></polygon>
            </g>
            <g id="g84" transform="translate(677.1417, 645.5265)" fill="#000000" fill-rule="nonzero">
                <path d="M2.54287774,5.29891312 L0,15.0576639 L5.58383433,16.4199058 L8.04232681,6.98279552 C8.54760928,5.04299486 9.97804233,4.49033092 11.75322,4.92449575 C13.5283977,5.35766478 14.5173518,6.49983694 14.0120693,8.43963759 L11.5525478,17.8767479 L16.1577189,19 L18.7005967,9.24124926 C19.9005139,4.63571639 17.4296723,1.62245315 12.438593,0.404600889 C7.44751365,-0.814247163 3.74382405,0.693380247 2.54287774,5.29891312" id="path86"></path>
            </g>
            <g id="g88" transform="translate(695.2648, 648.5676)" fill="#000000" fill-rule="nonzero">
                <polygon id="path90" points="0 16.9092404 11.7123753 20 12.727939 15.785795 6.2947265 14.0888067 7.06867634 10.8767602 12.2506044 12.2438072 13 9.1345462 7.81807193 7.76647137 9.35320338 1.39274334 4.0740405 0"></polygon>
            </g>
            <g id="g92" transform="translate(708.559, 652.5786)" fill="#000000" fill-rule="nonzero">
                <polygon id="path94" points="-3.85136161e-15 16.8702251 12.487374 20 13.5533568 15.7944932 6.6136336 14.056299 7.34320748 11.1828949 12.5286512 12.4832077 13.1983732 9.84156284 8.01292946 8.54227555 8.76107806 5.59503666 15.9329853 7.39168333 17 3.18720197 4.28044191 2.16815719e-15"></polygon>
            </g>
            <g id="g96" transform="translate(722.2596, 656.2232)" fill="#000000" fill-rule="nonzero">
                <polygon id="path98" points="0 16.6190369 5.39163923 18 8.46164358 5.62386351 14.9475123 7.28667639 16 3.04377596 4.12249208 0"></polygon>
            </g>
            <g id="g100" transform="translate(735.6141, 660.5762)" fill="#000000" fill-rule="nonzero">
                <path d="M1.71116557,4.46499775 L6.5879829,5.65685674 C6.98012009,4.14844161 7.84323688,3.3716229 9.99687925,3.89821152 C12.1235492,4.41676063 12.4326944,5.34733518 12.2169152,6.17641078 C12.053006,6.80349341 11.689916,7.14416811 10.9886336,7.1863756 C10.289426,7.22858309 8.70635367,7.05673832 7.38885569,6.92207635 C5.83171831,6.75525629 4.00278214,6.6829006 2.82844535,7.06377291 C1.53688237,7.46876377 0.606334584,8.49983234 0.18100059,10.1318551 C-0.662405598,13.371782 1.43314237,16.2358614 6.6471147,17.5091205 C12.4824896,18.9351306 14.7958916,17.1473421 15.7368134,13.5305626 L11.0166434,12.3778963 C10.6182818,13.909425 9.59955506,14.5425373 7.78306768,14.0993587 C6.01948771,13.6682394 5.43750632,12.8321292 5.66677171,11.9518017 C5.83586791,11.2995955 6.14190091,10.971985 6.7186953,10.8735009 C7.32246209,10.7790365 8.91072147,10.9287726 10.4232506,11.0564 C12.3880862,11.2423139 13.8414836,11.2764819 14.957726,11.0151975 C16.378964,10.6413597 17.3613817,9.62436033 17.7804913,8.0154512 C18.5460925,5.07600135 17.5387771,2.05213652 11.0539898,0.46734595 C4.70095233,-1.08327666 2.48921556,1.47530089 1.71116557,4.46499775" id="path102"></path>
            </g>
            <g id="g104" transform="translate(752.6167, 662.9333)" fill="#000000" fill-rule="nonzero">
                <path d="M11.130791,5.64595015 C12.3535596,5.9579313 12.8580516,6.81209329 12.5623494,7.99741973 C12.3165969,8.98283592 11.4844349,9.44222564 10.1857427,9.11106119 L7.73820742,8.48608924 L8.60833119,5.00280454 L11.130791,5.64595015 Z M9.4374962,11.6846533 C10.636289,11.9905765 11.1847367,12.6680502 10.9140093,13.7534215 C10.6432819,14.8387928 9.82410687,15.2487098 8.42451629,14.8923041 L6.27767821,14.3440654 L7.08986033,11.0869418 L9.4374962,11.6846533 Z M-5.75976623e-14,16.6097149 L7.5434036,18.5330939 C12.4384741,19.7800088 14.7211754,18.4028493 15.3445476,15.9029615 C15.7671221,14.2118016 15.3954963,12.6125195 13.7601432,11.7139331 L13.7661371,11.6886919 C15.9659219,11.8189364 17.3425356,10.5578864 17.8080668,8.69205737 C18.5513183,5.71157725 17.2316473,3.33587613 12.1627518,2.04453667 L4.14382706,-6.4737953e-14 L-5.75976623e-14,16.6097149 Z" id="path106"></path>
            </g>
            <g id="g108" transform="translate(769.0517, 666.7431)" fill="#000000" fill-rule="nonzero">
                <polygon id="path110" points="0 16.8700646 12.487374 20 13.5533568 15.7942775 6.6136336 14.0559943 7.34320748 11.1824428 12.5286512 12.4828223 13.1983732 9.84104194 8.01292946 8.54168803 8.76107806 5.59429802 15.9329853 7.39103682 17 3.18633986 4.28044191 0"></polygon>
            </g>
            <g id="g112" transform="translate(783.1749, 670.7842)" fill="#000000" fill-rule="nonzero">
                <path d="M9.80756459,10.5727219 C11.1630175,10.9211297 11.7032271,11.7012821 11.3808758,13.0055524 C11.0762685,14.2355224 10.2127218,14.7616483 8.73404586,14.3821147 L6.31788938,13.7616074 L7.2691709,9.92108877 L9.80756459,10.5727219 Z M-2.7481428e-14,16.5177443 L7.71375947,18.4987491 C12.8408218,19.815068 15.4570925,18.4585868 16.2220608,15.370107 C16.7070665,13.4121955 16.2723358,11.7785945 14.5965031,10.8157037 L14.6093183,10.7644968 C16.6124313,10.8247402 17.5706133,9.60280266 18.005344,7.84570263 L19,3.82846994 L13.7260558,2.47500089 L12.7254851,6.5153269 C12.3962333,7.84570263 11.8027913,8.22824841 10.6198506,7.92502314 L7.93457508,7.23523588 L9.38860641,1.36049745 L4.08903186,2.73543548e-13 L-2.7481428e-14,16.5177443 Z" id="path114"></path>
            </g>
            <g id="g116" transform="translate(801.2035, 676.9604)" fill="#000000" fill-rule="nonzero">
                <path d="M0.345879992,6.57839639 C-1.01067558,12.0565022 1.70934669,16.2316855 6.99240989,17.5878911 C11.830199,18.8304932 15.3035342,17.2078721 16.2306125,13.4649857 C16.3244064,13.0859719 16.417213,12.6024026 16.4557178,12.3440299 L12.0859107,11.2230741 C12.0553043,11.4573187 11.999028,11.6815098 11.9496628,11.8815728 C11.5567158,13.4669963 9.96222004,13.9666511 8.33316859,13.548429 C6.1620873,12.9904645 4.998056,11.0069257 5.7572927,7.94063412 C6.50468176,4.92460962 8.45756889,3.82275534 10.556577,4.36061304 C12.0622154,4.74766952 13.2262468,5.98222888 12.8658808,7.43896871 L12.8224395,7.61490347 L9.26814539,6.70305873 L8.67675035,9.09175013 L16.920738,11.207994 L19,2.81339247 L14.9273714,1.76783731 C14.851349,2.17399528 14.6153834,3.34320744 14.3596716,4.37569316 L14.334989,4.36865577 C14.3073445,2.46353363 12.8411982,0.964569455 10.2988907,0.312102822 C5.63387971,-0.886264245 1.62838777,1.40088767 0.345879992,6.57839639" id="path118"></path>
            </g>
            <g id="g120" transform="translate(719.2478, 1264.783)" fill="#000000" fill-rule="nonzero">
                <path d="M0,8.97324797 C0,14.7074426 3.48134631,18 8.91953424,18 C14.2050747,18 16.9743946,14.999657 16.9743946,11.0444724 C16.9743946,10.6987539 16.9743946,10.2203041 16.9487892,9.95587058 L12.3752752,9.95587058 C12.4008805,10.2203041 12.4008805,10.4600434 12.4008805,10.5660226 C12.4008805,12.6372471 11.0792492,13.6455928 9.32626579,13.6455928 C7.16556598,13.6455928 5.66666667,11.9993141 5.66666667,8.97324797 C5.66666667,5.89367783 7.21677674,4.3533783 9.32626579,4.3533783 C11.1816707,4.3533783 12.4264859,5.38950497 12.4264859,7.32696925 C12.4264859,7.40722533 12.4264859,7.56567966 12.4008805,7.88464616 L16.9743946,7.88464616 C17,7.53892763 17,7.22099005 17,7.00800274 C17,2.92008689 14.1794694,0 8.91953424,0 C3.17703626,0 0,3.4777638 0,8.97324797" id="path122"></path>
            </g>
            <g id="g124" transform="translate(736.0736, 1264.4659)" fill="#000000" fill-rule="nonzero">
                <path d="M11.4396445,5.91665685 L9.51942952,12.4020497 L9.43985118,12.4020497 L7.49276561,5.91665685 L11.4396445,5.91665685 Z M12.293303,3.04894569 L6.63910707,3.04894569 L5.73377429,0 L0,0 L6.31976023,17 L13.6792063,17 L20,0 L13.1996693,0 L12.293303,3.04894569 Z" id="path126"></path>
            </g>
            <g id="g128" transform="translate(757.5734, 1264.972)" fill="#000000" fill-rule="nonzero">
                <polygon id="path130" points="0 17 8.18757746 17 10.8223377 7.93126399 10.8743922 7.93126399 13.5091524 17 21 17 21 0 15.472209 0 15.5492897 11.3677112 15.4972352 11.3677112 12.1397178 0 8.11049671 0 4.72695204 11.3677112 4.67489751 11.3677112 4.75297931 0 0 0"></polygon>
            </g>
            <g id="g132" transform="translate(780.8217, 1265.0515)" fill="#000000" fill-rule="nonzero">
                <path d="M7.8734295,7.98333137 C9.28837333,7.98333137 10.0860866,8.68023324 10.0860866,10.3604076 C10.0860866,11.9364472 9.23751911,12.7625162 7.66702121,12.7625162 L5.5321412,12.7625162 L5.5321412,7.98333137 L7.8734295,7.98333137 Z M0,17 L7.69294689,17 C12.4533005,17 15,14.9593592 15,10.7999764 C15,6.94999411 12.9678256,4.75315114 8.18254338,4.75315114 L5.5321412,4.75315114 L5.5321412,0 L0,0 L0,17 Z" id="path134"></path>
            </g>
            <g id="g136" transform="translate(797.6272, 1264.6197)" fill="#000000" fill-rule="nonzero">
                <polygon id="path138" points="0 17 12.7618898 17 12.7618898 12.7635175 5.66865812 12.7635175 5.66865812 9.86877135 10.9694206 9.86877135 10.9694206 7.20832843 5.66865812 7.20832843 5.66865812 4.23648251 13 4.23648251 13 0 0 0"></polygon>
            </g>
            <g id="g140" transform="translate(811.4629, 1264.3588)" fill="#000000" fill-rule="nonzero">
                <path d="M8.3681795,8.8104017 C9.81540031,8.8104017 10.5527792,9.43020379 10.5527792,10.7739427 C10.5527792,12.0395806 9.81540031,12.7635175 8.23661397,12.7635175 L5.6573177,12.7635175 L5.6573177,8.8104017 L8.3681795,8.8104017 Z M0,17 L8.23661397,17 C13.7103519,17 16,15.0364589 16,11.8583461 C16,9.84373896 15.1575727,8.37083284 13.236104,7.85416421 L13.236104,7.80309813 C15.2626211,7.36352927 15.9204488,5.94269054 15.9204488,4.13435034 L15.9204488,0 L10.2896481,0 L10.2896481,4.15938273 C10.2896481,5.52915538 9.78990311,6.04582401 8.52626211,6.04582401 L5.6573177,6.04582401 L5.6573177,0 L0,0 L0,17 Z" id="path142"></path>
            </g>
            <g id="g144" transform="translate(834.1036, 1264.6638)" fill="#000000" fill-rule="nonzero">
                <path d="M0.0521728225,6.23836744 L4.91929517,6.23836744 C4.91929517,4.64559277 5.54035242,3.66297016 7.68947137,3.66297016 C9.81250392,3.66297016 10.3302188,4.51286155 10.3302188,5.38847605 C10.3302188,6.05213216 10.0703581,6.47707786 9.4232144,6.68903624 C8.77607073,6.90202355 7.24901235,7.11501086 5.98081144,7.30021722 C4.47883614,7.5121756 2.74509312,7.88464616 1.73474635,8.54830228 C0.621057252,9.26443352 -6.73238977e-14,10.5125186 -6.73238977e-14,12.2390534 C-6.73238977e-14,15.6633131 2.66683389,18 7.87006961,18 C13.6953659,18 15.4301122,15.6633131 15.4301122,11.8398308 L10.7175017,11.8398308 C10.7175017,13.4593575 9.91584624,14.3360009 8.10284066,14.3360009 C6.34301122,14.3360009 5.59152192,13.6455928 5.59152192,12.7164742 C5.59152192,12.0260661 5.79920988,11.6278724 6.31692481,11.389162 C6.86072616,11.1494227 8.38778454,10.9107122 9.83758701,10.6720018 C11.7278485,10.3797874 13.0993917,10.0608209 14.0836521,9.52989596 C15.3267699,8.81376472 16,7.56567966 16,5.8669258 C16,2.76060364 14.3164232,-3.99900685e-14 7.84498652,-3.99900685e-14 C1.50197529,-3.99900685e-14 0.0521728225,3.07854121 0.0521728225,6.23836744" id="path146"></path>
            </g>
            <g id="g148" transform="translate(851.0801, 1265.2018)" fill="#000000" fill-rule="nonzero">
                <polygon id="path150" points="4.28659692 12.6593827 0 12.6593827 0 17 14 17 14 12.6593827 9.71438601 12.6593827 9.71438601 0 4.28659692 0"></polygon>
            </g>
            <g id="g152" transform="translate(865.976, 1265.283)" fill="#000000" fill-rule="nonzero">
                <polygon id="path154" points="0 17 12.7618898 17 12.7618898 12.7635175 5.66865812 12.7635175 5.66865812 9.86877135 10.9694206 9.86877135 10.9694206 7.20832843 5.66865812 7.20832843 5.66865812 4.23648251 13 4.23648251 13 0 0 0"></polygon>
            </g>
            <g id="g156" transform="translate(880.53, 1264.4245)" fill="#000000" fill-rule="nonzero">
                <polygon id="path158" points="0 17 5.44782291 17 5.44782291 4.34061727 12 4.34061727 12 0 0 0"></polygon>
            </g>
            <g id="g160" transform="translate(894.7981, 1265.6164)" fill="#000000" fill-rule="nonzero">
                <polygon id="path162" points="0 17 5.44782291 17 5.44782291 4.34061727 12 4.34061727 12 0 0 0"></polygon>
            </g>
            <g id="g164" transform="translate(907.4425, 1265.2709)" fill="#000000" fill-rule="nonzero">
                <polygon id="path166" points="0 17 12 17 12 12.7635175 5.4081898 12.7635175 5.4081898 9.53333726 10.7169321 9.53333726 10.7169321 6.40729179 5.4081898 6.40729179 5.4081898 0 0 0"></polygon>
            </g>
            <g id="g168" transform="translate(921.3686, 1265.5231)" fill="#000000" fill-rule="nonzero">
                <polygon id="path170" points="0 17 5.44782291 17 5.44782291 4.34061727 12 4.34061727 12 0 0 0"></polygon>
            </g>
            <path d="M948.935078,1283.39663 L944.801139,1283.39663 L944.801139,1286.94053 L948.935078,1286.94053 L948.935078,1283.39663 Z M945.46877,1270.95283 L943.548555,1277.54204 L943.468977,1277.54204 L941.521891,1270.95283 L945.46877,1270.95283 Z M943.255045,1283.39663 L939.121106,1283.39663 L939.121106,1286.94053 L943.255045,1286.94053 L943.255045,1283.39663 Z M946.322429,1268.03876 L940.668233,1268.03876 L939.7629,1264.94053 L934.029126,1264.94053 L940.348886,1282.21534 L947.708332,1282.21534 L954.029126,1264.94053 L947.228795,1264.94053 L946.322429,1268.03876 Z" id="path172" fill="#000000" fill-rule="nonzero"></path>
            <g id="g174" transform="translate(953.6838, 1265.6536)" fill="#000000" fill-rule="nonzero">
                <path d="M0,8.97324797 C0,14.7074426 3.48134631,18 8.91953424,18 C14.2050747,18 16.9743946,14.999657 16.9743946,11.0444724 C16.9743946,10.6987539 16.9743946,10.2203041 16.9487892,9.95587058 L12.3752752,9.95587058 C12.4008805,10.2203041 12.4008805,10.4600434 12.4008805,10.5660226 C12.4008805,12.6372471 11.0792492,13.6455928 9.32626579,13.6455928 C7.16556598,13.6455928 5.66666667,11.9993141 5.66666667,8.97324797 C5.66666667,5.89367783 7.21677674,4.3533783 9.32626579,4.3533783 C11.1816707,4.3533783 12.4264859,5.38950497 12.4264859,7.32696925 C12.4264859,7.40722533 12.4264859,7.56567966 12.4008805,7.88464616 L16.9743946,7.88464616 C17,7.53892763 17,7.22099005 17,7.00800274 C17,2.92008689 14.1794694,0 8.91953424,0 C3.17703626,0 0,3.4777638 0,8.97324797" id="path176"></path>
            </g>
            <g id="g178" transform="translate(972.4794, 1265.1656)" fill="#000000" fill-rule="nonzero">
                <polygon id="path180" points="0 17 5.64825179 17 5.64825179 10.8770762 11.3507252 10.8770762 11.3507252 17 17 17 17 0 11.3507252 0 11.3507252 6.53645895 5.64825179 6.53645895 5.64825179 0 0 0"></polygon>
            </g>
            <g id="g182" transform="translate(991.5666, 1265.3314)" fill="#000000" fill-rule="nonzero">
                <polygon id="path184" points="0 17 12.7618898 17 12.7618898 12.7635175 5.66865812 12.7635175 5.66865812 9.86877135 10.9694206 9.86877135 10.9694206 7.20832843 5.66865812 7.20832843 5.66865812 4.23648251 13 4.23648251 13 0 0 0"></polygon>
            </g>
            <g id="g186" transform="translate(1010.8955, 1264.8677)" fill="#000000" fill-rule="nonzero">
                <path d="M8.88220693,13.3009032 C8.88220693,12.7967303 8.98679905,12.2390534 9.19699876,11.6546244 C10.506939,11.8676118 10.9263229,12.4510118 10.9263229,13.4871384 C10.9263229,14.1507946 10.6115311,14.7084715 9.90375719,14.7084715 C9.19699876,14.7084715 8.88220693,14.1240425 8.88220693,13.3009032 M7.28387679,3.69075111 C7.80785287,3.69075111 8.30542706,3.76997828 8.80300124,3.95518463 C7.65045696,5.15079456 6.62890669,6.47810678 5.79013878,7.96490225 L5.71194855,7.96490225 C5.05697845,7.805419 4.71578472,7.19423802 4.71578472,6.37212759 C4.71578472,4.85858008 5.65914476,3.69075111 7.28387679,3.69075111 M18,4.19492397 L17.9746136,0.159483251 C17.7644139,0.105979193 17.2932416,0.0267520293 16.7164617,0.0267520293 C15.0135394,0.0267520293 13.3888074,0.478449754 11.7640754,1.48679547 C10.2713528,0.530924889 8.5674151,0 6.70709692,0 C1.93850841,0 0,2.86761175 0,5.99965703 C0,8.36309592 1.3363421,10.5660226 4.40200835,10.9909683 C4.03542818,11.9735909 3.85163037,12.8234823 3.85163037,13.5396136 C3.85163037,16.0090317 5.44996051,18 9.27518899,18 C13.0486291,18 14.5149498,16.1150109 14.5149498,13.778324 C14.5149498,11.415914 13.0740156,9.7696353 10.2449509,9.66365611 L10.218549,9.63690408 C10.7943134,8.70778553 11.5020873,7.83217103 12.3144533,7.0357837 C12.8912332,7.96490225 13.3624055,9 13.6507954,10.1153538 L17.9482117,10.1153538 C17.2668397,8.1243855 16.3234796,6.31862353 15.1963218,4.80507603 C16.0086878,4.38115925 16.7946519,4.16817194 17.4760239,4.16817194 C17.6070179,4.16817194 17.7908158,4.16817194 18,4.19492397" id="path188"></path>
            </g>
            <g id="g190" transform="translate(1035.6167, 1265.6295)" fill="#000000" fill-rule="nonzero">
                <path d="M0,8.97324797 C0,14.7074426 3.48134631,18 8.91953424,18 C14.2050747,18 16.9743946,14.999657 16.9743946,11.0444724 C16.9743946,10.6987539 16.9743946,10.2203041 16.9487892,9.95587058 L12.3752752,9.95587058 C12.4008805,10.2203041 12.4008805,10.4600434 12.4008805,10.5660226 C12.4008805,12.6372471 11.0792492,13.6455928 9.32626579,13.6455928 C7.16556598,13.6455928 5.66666667,11.9993141 5.66666667,8.97324797 C5.66666667,5.89367783 7.21677674,4.3533783 9.32626579,4.3533783 C11.1816707,4.3533783 12.4264859,5.38950497 12.4264859,7.32696925 C12.4264859,7.40722533 12.4264859,7.56567966 12.4008805,7.88464616 L16.9743946,7.88464616 C17,7.53892763 17,7.22099005 17,7.00800274 C17,2.92008689 14.1794694,0 8.91953424,0 C3.17703626,0 0,3.4777638 0,8.97324797" id="path192"></path>
            </g>
            <g id="g194" transform="translate(1052.4425, 1265.3124)" fill="#000000" fill-rule="nonzero">
                <path d="M11.4396445,5.91665685 L9.51942952,12.4020497 L9.43985118,12.4020497 L7.49276561,5.91665685 L11.4396445,5.91665685 Z M12.293303,3.04894569 L6.63910707,3.04894569 L5.73377429,0 L0,0 L6.31976023,17 L13.6792063,17 L20,0 L13.1996693,0 L12.293303,3.04894569 Z" id="path196"></path>
            </g>
            <g id="g198" transform="translate(1073.2583, 1263.9392)" fill="#000000" fill-rule="nonzero">
                <polygon id="path200" points="0 17 8.18757746 17 10.8223377 7.93126399 10.8743922 7.93126399 13.5091524 17 21 17 21 0 15.472209 0 15.5492897 11.3677112 15.4972352 11.3677112 12.1397178 0 8.11049671 0 4.72695204 11.3677112 4.67489751 11.3677112 4.75297931 0 0 0"></polygon>
            </g>
            <g id="g202" transform="translate(1095.9089, 1265.3004)" fill="#000000" fill-rule="nonzero">
                <path d="M7.8734295,7.98333137 C9.28837333,7.98333137 10.0860866,8.68023324 10.0860866,10.3604076 C10.0860866,11.9364472 9.23751911,12.7625162 7.66702121,12.7625162 L5.5321412,12.7625162 L5.5321412,7.98333137 L7.8734295,7.98333137 Z M0,17 L7.69294689,17 C12.4533005,17 15,14.9593592 15,10.7999764 C15,6.94999411 12.9678256,4.75315114 8.18254338,4.75315114 L5.5321412,4.75315114 L5.5321412,0 L0,0 L0,17 Z" id="path204"></path>
            </g>
            <polygon id="path206" fill="#000000" fill-rule="nonzero" points="1112.58347 1282.1259 1118.58347 1282.1259 1118.58347 1265.1259 1112.58347 1265.1259"></polygon>
            <g id="g208" transform="translate(1121.1374, 1264.2674)" fill="#000000" fill-rule="nonzero">
                <polygon id="path210" points="0 17 7.62085997 17 12.3869843 7.2854282 12.4383498 7.2854282 12.2852411 17 17 17 17 0 10.1693783 0 4.53695526 11.4458122 4.51127252 11.4458122 4.69006392 0 0 0"></polygon>
            </g>
            <g id="g212" transform="translate(1138.3655, 1264.2321)" fill="#000000" fill-rule="nonzero">
                <path d="M0,8.76128959 C0,14.5489882 3.81351553,18 9.52035368,18 C14.7466269,18 17.866682,15.5048588 17.866682,11.5486452 C17.866682,11.1504516 17.8398117,10.6462787 17.8129414,10.3808163 L13.09307,10.3808163 C13.1199403,10.6195267 13.1199403,10.859266 13.1199403,11.0712244 C13.1199403,12.7442552 11.6265717,13.6466217 9.86656715,13.6466217 C7.51954987,13.6466217 5.84015617,11.9735909 5.84015617,8.73453756 C5.84015617,5.54898822 7.54642016,3.95621356 9.81386002,3.95621356 C11.4395131,3.95621356 12.9339151,4.88533211 12.9339151,6.42460272 L12.9339151,6.610838 L9.09352931,6.610838 L9.09352931,9.13273122 L18,9.13273122 L18,0.265462444 L13.6005053,0.265462444 C13.6273756,0.69040814 13.6800827,1.91174117 13.6800827,3.00034297 L13.6532124,3.00034297 C13.1468106,1.11535384 11.2803583,0 8.53338692,0 C3.49313889,0 0,3.29255745 0,8.76128959" id="path214"></path>
            </g>
            <g id="g216" transform="translate(1338.5221, 1066.8573)" fill="#000000" fill-rule="nonzero">
                <path d="M3.44054445,0.488567019 C0.275449185,1.75636553 -0.734080718,4.48147361 0.529105034,7.60181863 C1.75663635,10.6339954 4.05583816,11.5602687 6.23890837,10.6856802 C6.42940493,10.6096731 6.69324776,10.5032632 6.83280941,10.4302964 L5.7713259,7.8065311 C5.63074555,7.87848449 5.49933349,7.93118275 5.44024899,7.95550503 C4.29726963,8.41256108 3.43341356,7.87848449 3.02695299,6.87215042 C2.52575348,5.63374132 3.08603748,4.40850679 4.75670251,3.73964426 C6.45589109,3.0586206 7.66610453,3.60789861 8.15609836,4.8169183 C8.58700769,5.8820312 8.3038096,6.82553273 7.2341765,7.2542128 C7.19037248,7.27144108 7.10276443,7.30691106 6.92041746,7.36264961 L7.98190097,9.9874283 C8.17850972,9.92459576 8.35474451,9.85466922 8.4718948,9.80703811 C10.7283113,8.90306027 11.6869063,6.64007539 10.4654871,3.62208661 C9.13201122,0.327431956 6.47422765,-0.726533234 3.44054445,0.488567019" id="path218"></path>
            </g>
            <g id="g220" transform="translate(1342.4797, 1074.6305)" fill="#000000" fill-rule="nonzero">
                <path d="M7.61373322,7.37002949 L3.4033931,7.78089536 L3.38457827,7.73862926 L6.71793841,5.27736574 L7.61373322,7.37002949 Z M9.47640106,7.1901528 L8.19281177,4.19319096 L9.76175927,3.04119382 L8.46040042,0 L0,7.09775713 L1.67033851,11 L13,10.605844 L11.4561389,6.99946385 L9.47640106,7.1901528 Z" id="path222"></path>
            </g>
            <g id="g224" transform="translate(1345.5294, 1086.2691)" fill="#000000" fill-rule="nonzero">
                <polygon id="path226" points="-6.86626263e-14 3.93215967 1.81346127 8.63713162 7.38422464 8.05416908 7.39607732 8.08409106 2.99082828 11.6943316 4.6502046 16 14 12.0678403 12.77621 8.89198427 6.54070834 11.5653576 6.52885565 11.5354356 12.0383801 6.97594635 11.1454776 4.66163668 4.14350219 5.34674663 4.13263722 5.31579287 10.4017215 2.73115367 9.34880768 -1.11678884e-13"></polygon>
            </g>
            <g id="g228" transform="translate(1350.4928, 1099.7465)" fill="#000000" fill-rule="nonzero">
                <path d="M6.97591036,6.1056813 C7.30252101,6.88578046 7.08888889,7.47948424 6.12857143,7.85128878 C5.22782446,8.19942405 4.55816993,7.91440679 4.19561158,7.0494928 L3.7015873,5.8709612 L6.4356676,4.81373452 L6.97591036,6.1056813 Z M1.38873886e-13,3.75848028 L1.77787115,7.99922161 C2.87889823,10.6245364 4.63520075,11.5782101 7.01288515,10.6580678 C9.21493931,9.80696088 10.0006536,8.20041027 8.89449113,5.56128846 L8.28132586,4.10069825 L11,3.04938888 L9.72231559,-8.30970855e-14 L1.38873886e-13,3.75848028 Z" id="path230"></path>
            </g>
            <g id="g232" transform="translate(1354.8225, 1108.6304)" fill="#000000" fill-rule="nonzero">
                <polygon id="path234" points="0 3.89130233 2.73094716 11 5.027514 10.0310034 3.5101047 6.08047898 5.08108108 5.41780377 6.2147553 8.3697206 7.65717068 7.76116216 6.52349647 4.80822426 8.13537862 4.12819085 9.70245922 8.21145456 12 7.242458 9.21938154 0"></polygon>
            </g>
            <g id="g236" transform="translate(1358.0416, 1116.8865)" fill="#000000" fill-rule="nonzero">
                <path d="M6.4173028,6.74889538 C6.73606292,7.56391465 6.55262549,8.12237287 5.80383993,8.43251294 C5.09715475,8.72410644 4.52980184,8.47681867 4.1819724,7.5865827 L3.6126147,6.13582778 L5.81887578,5.22292377 L6.4173028,6.74889538 Z M-7.41468882e-15,3.92672371 L1.81633125,8.56646049 C3.02421158,11.6493147 4.62502892,12.4849413 6.39825738,11.7502905 C7.52394171,11.2855956 8.15945717,10.4705763 8.02413447,9.27020026 L8.05320379,9.25886624 C8.74485311,10.2974749 9.68309045,10.3397199 10.6934999,9.92242176 L13,8.96727275 L11.7580384,5.7958071 L9.43650243,6.75610794 C8.67167862,7.07243021 8.27372966,6.91066279 7.99406277,6.19868009 L7.36155448,4.58409703 L10.7366027,3.18692113 L9.48762433,1.61599821e-13 L-7.41468882e-15,3.92672371 Z" id="path238"></path>
            </g>
            <g id="g240" transform="translate(1363.6588, 1130.0724)" fill="#000000" fill-rule="nonzero">
                <path d="M5.20534208,0.346107202 L6.29517933,3.19033389 C7.15884283,2.82442229 7.83035871,2.96321635 8.31172851,4.21762021 C8.78609293,5.45835495 8.44082769,5.95570032 7.96746404,6.15653112 C7.60618649,6.30899429 7.31796507,6.25536931 7.05876594,5.92625916 C6.79856605,5.59609754 6.3412147,4.75386997 5.9559187,4.05464234 C5.50457196,3.22503241 4.91511912,2.29763576 4.32866859,1.86022418 C3.69117885,1.37444499 2.87455149,1.29768767 1.93883264,1.69304043 C0.0824064677,2.47848862 -0.587107876,4.57301711 0.576786267,7.61281724 C1.88178881,11.016426 3.53706045,11.492742 5.60865192,10.6168674 L4.55484234,7.86306713 C3.67716809,8.23528756 3.02166451,7.96716267 2.61635313,6.90833226 C2.22305098,5.87999447 2.42920936,5.28381091 2.93259608,5.07036248 C3.30688362,4.91159049 3.56908505,4.94103165 3.81327265,5.18812713 C4.06546639,5.45099466 4.53682851,6.28901635 4.99217832,7.08182483 C5.57262424,8.11857437 6.05299327,8.84724317 6.56038307,9.30042679 C7.22789587,9.86191184 8.05653246,9.96916179 8.97824055,9.57906638 C10.6615337,8.8672211 11.781394,7.24900858 10.3322808,3.46897348 C8.91218981,-0.237458717 6.91765754,-0.378355714 5.20534208,0.346107202" id="path242"></path>
            </g>
            <g id="g244" transform="translate(1365.5115, 1141.922)" fill="#000000" fill-rule="nonzero">
                <polygon id="path246" points="3.48784663 2.74055794 2.48236905 0.393025751 0 1.33261803 3.28449161 9 5.76583362 8.06137339 4.76035604 5.71287554 12 2.9723176 10.7274906 0"></polygon>
            </g>
            <g id="g248" transform="translate(1370.1271, 1147.7555)" fill="#000000" fill-rule="nonzero">
                <polygon id="path250" points="0 3.89130233 2.72997322 11 5.027514 10.0310034 3.5101047 6.08047898 5.08010713 5.41780377 6.21378135 8.3697206 7.65619674 7.76014109 6.52349647 4.80822426 8.13440467 4.12819085 9.70245922 8.21145456 12 7.242458 9.21938154 0"></polygon>
            </g>
            <g id="g252" transform="translate(1373.6319, 1155.9612)" fill="#000000" fill-rule="nonzero">
                <polygon id="path254" points="0 3.88382166 1.23295733 7.06547771 8.14811182 4.17324841 9.63021089 8 12 7.00840764 9.2849436 0"></polygon>
            </g>
            <g id="g256" transform="translate(1376.0261, 1162.539)" fill="#000000" fill-rule="nonzero">
                <polygon id="path258" points="0 3.88382166 1.23295733 7.06547771 8.14713095 4.1722293 9.62923001 8 12 7.00840764 9.2849436 0"></polygon>
            </g>
            <g id="g260" transform="translate(1379.3054, 1170.1371)" fill="#000000" fill-rule="nonzero">
                <polygon id="path262" points="0 3.92776164 2.83755018 11 5.25917281 10.0208938 3.70124171 6.13744964 5.54775464 5.39126768 6.80272617 8.51925419 8.58967417 7.79677691 7.33572962 4.66879041 11 3.18879415 9.72038092 0"></polygon>
            </g>
            <g id="g264" transform="translate(1382.7801, 1178.1718)" fill="#000000" fill-rule="nonzero">
                <polygon id="path266" points="0 3.88431647 1.23305812 7.06637788 8.14779694 4.1737801 9.63001717 8 12 7.00828131 9.28570261 0"></polygon>
            </g>
            <g id="g268" transform="translate(1384.0594, 1184.7699)" fill="#000000" fill-rule="nonzero">
                <path d="M3.99496502,12.2116324 L3.11515072,9.96448236 L1.20937684,10.7528499 L2.09017197,13 L3.99496502,12.2116324 Z M9.9457268,7.5590539 L5.99489963,7.98045754 L5.97724449,7.93710741 L9.10514615,5.41170997 L9.9457268,7.5590539 Z M2.78558818,9.12268321 L1.90479304,6.87553315 L-9.43143481e-15,7.66289259 L0.879814294,9.91105079 L2.78558818,9.12268321 Z M11.6935853,7.37557193 L10.4891127,4.29972858 L11.960374,3.11818534 L10.7392271,1.39765744e-13 L2.80128163,7.27879023 L4.36964624,11.2811167 L15,10.8768515 L13.551298,7.1789841 L11.6935853,7.37557193 Z" id="path270"></path>
            </g>
            <g id="g272" transform="translate(1390.1637, 1197.0462)" fill="#000000" fill-rule="nonzero">
                <path d="M3.44136969,0.488586311 C0.276273265,1.75638415 -0.734275707,4.48149076 0.528910508,7.60082069 C1.75644227,10.6340093 4.05564492,11.560282 6.23871594,10.6856941 C6.42921257,10.609687 6.6930555,10.5032771 6.8326172,10.4292969 L5.7711333,7.80654647 C5.6315716,7.87849983 5.49914078,7.93119806 5.44107497,7.95552032 C4.29809518,8.41257613 3.4332201,7.8774864 3.02675938,6.8721663 C2.52555969,5.63274443 3.08584389,4.40852398 4.75650953,3.73966181 C6.45569873,3.05863852 7.66591262,3.60791624 8.15590663,4.81693527 C8.58681612,5.88103418 8.30361792,6.8245352 7.23398443,7.25321505 C7.19018039,7.27145674 7.10257232,7.30591328 6.92022528,7.36266522 L7.98272788,9.98744251 C8.178318,9.92461 8.35455285,9.8546835 8.47170318,9.80705241 C10.7291392,8.90307506 11.6867158,6.64009139 10.4652963,3.62109079 C9.13181985,0.327451335 6.47505401,-0.726513292 3.44136969,0.488586311" id="path274"></path>
            </g>
            <g id="g276" transform="translate(1393.8656, 1206.0408)" fill="#000000" fill-rule="nonzero">
                <polygon id="path278" points="0 3.78913958 1.22167488 6.85047801 4.58029557 5.48535373 5.81280788 8.57453155 2.45418719 9.93965583 3.67487685 13 13 9.21185468 11.7793103 6.15051625 8.19408867 7.60711281 6.96157635 4.51793499 10.546798 3.06133843 9.32610837 0"></polygon>
            </g>
            <g id="g280" transform="translate(1398.2556, 1216.2667)" fill="#000000" fill-rule="nonzero">
                <polygon id="path282" points="0 3.89094115 2.73019481 11 5.02792208 10.0300724 3.51038961 6.07991461 5.08051948 5.41730091 6.21428571 8.36894375 7.65681818 7.7604418 6.52402597 4.80777798 8.13506494 4.12780769 9.70324675 8.21069241 12 7.24178578 9.22012987 0"></polygon>
            </g>
            <g id="g284" transform="translate(1936.9443, 1198.2966)" fill="#000000" fill-rule="nonzero">
                <path d="M0,8.97324797 C0,14.7074426 3.48134631,18 8.91953424,18 C14.2050747,18 16.9743946,14.999657 16.9743946,11.0444724 C16.9743946,10.6987539 16.9743946,10.2203041 16.9487892,9.95587058 L12.3742903,9.95587058 C12.4008805,10.2203041 12.4008805,10.4600434 12.4008805,10.5660226 C12.4008805,12.6372471 11.0792492,13.6455928 9.32626579,13.6455928 C7.16556598,13.6455928 5.66666667,11.9993141 5.66666667,8.97324797 C5.66666667,5.89367783 7.21677674,4.3533783 9.32626579,4.3533783 C11.1806859,4.3533783 12.4255011,5.38950497 12.4255011,7.32696925 C12.4255011,7.40722533 12.4255011,7.56567966 12.4008805,7.88464616 L16.9743946,7.88464616 C17,7.53892763 17,7.22099005 17,7.00800274 C17,2.92008689 14.1784845,0 8.91953424,0 C3.17605144,0 0,3.4777638 0,8.97324797" id="path286"></path>
            </g>
            <g id="g288" transform="translate(1953.1723, 1199.2613)" fill="#000000" fill-rule="nonzero">
                <path d="M11.4402356,5.91665685 L9.52095499,12.4020497 L9.43930546,12.4020497 L7.49418635,5.91665685 L11.4402356,5.91665685 Z M12.2939383,3.04894569 L6.63945016,3.04894569 L5.73407059,0 L0,0 L6.32008682,17 L13.6799132,17 L20,0 L13.2003514,0 L12.2939383,3.04894569 Z" id="path290"></path>
            </g>
            <g id="g292" transform="translate(1974.3302, 1198.8278)" fill="#000000" fill-rule="nonzero">
                <polygon id="path294" points="0 17 8.18857851 17 10.8233387 7.93126399 10.8743922 7.93126399 13.5091524 17 21 17 21 0 15.472209 0 15.5492897 11.3677112 15.4982362 11.3677112 12.1407188 0 8.11149776 0 4.72795309 11.3677112 4.67589856 11.3677112 4.75297931 0 0 0"></polygon>
            </g>
            <g id="g296" transform="translate(1998.1761, 1197.6255)" fill="#000000" fill-rule="nonzero">
                <path d="M7.87395293,7.98333137 C9.28899083,7.98333137 10.0867571,8.68123454 10.0867571,10.3604076 C10.0867571,11.9364472 9.23713602,12.7625162 7.66753091,12.7625162 L5.53151177,12.7625162 L5.53151177,7.98333137 L7.87395293,7.98333137 Z M0,17 L7.69345832,17 C12.4541284,17 15,14.9593592 15,10.7999764 C15,6.94999411 12.9676905,4.75315114 8.18308736,4.75315114 L5.53151177,4.75315114 L5.53151177,0 L0,0 L0,17 Z" id="path298"></path>
            </g>
            <polygon id="path300" fill="#000000" fill-rule="nonzero" points="2013.91098 1214.79306 2019.91098 1214.79306 2019.91098 1197.79306 2013.91098 1197.79306"></polygon>
            <g id="g302" transform="translate(2021.8672, 1198.2163)" fill="#000000" fill-rule="nonzero">
                <polygon id="path304" points="0 17 7.62140492 17 12.3862646 7.2854282 12.4376271 7.2854282 12.2855151 17 17 17 17 0 10.1697751 0 4.53767939 11.4458122 4.5110104 11.4458122 4.68979141 0 0 0"></polygon>
            </g>
            <g id="g306" transform="translate(2039.693, 1196.8992)" fill="#000000" fill-rule="nonzero">
                <path d="M0,8.76128959 C0,14.5489882 3.81270096,18 9.51986679,18 C14.7474736,18 17.8666743,15.5048588 17.8666743,11.5486452 C17.8666743,11.1504516 17.840836,10.6462787 17.8139642,10.3808163 L13.0938218,10.3808163 C13.1196601,10.6195267 13.1196601,10.859266 13.1196601,11.0712244 C13.1196601,12.7442552 11.6272393,13.6466217 9.86713367,13.6466217 C7.51998163,13.6466217 5.83945797,11.9735909 5.83945797,8.73453756 C5.83945797,5.54898822 7.54685347,3.95621356 9.81338999,3.95621356 C11.44017,3.95621356 12.9336243,4.88533211 12.9336243,6.42460272 L12.9336243,6.610838 L9.09405145,6.610838 L9.09405145,9.13273122 L18,9.13273122 L18,0.265462444 L13.6002526,0.265462444 C13.6271245,0.69040814 13.6798346,1.91174117 13.6798346,3.00034297 L13.6539963,3.00034297 C13.1475655,1.11535384 11.2799724,0 8.53387689,0 C3.49333946,0 0,3.29255745 0,8.76128959" id="path308"></path>
            </g>
            <g id="g310" transform="translate(521.6551, 56.1267)" fill="#000000" fill-rule="nonzero">
                <polygon id="path312" points="0 16.9420784 5.8188 17 5.95504 4.38306996 12.9532 4.45197674 13 0.127827058 0.18304 0"></polygon>
            </g>
            <g id="g314" transform="translate(534.7725, 56.4635)" fill="#000000" fill-rule="nonzero">
                <path d="M11.3765643,5.98210736 L9.387734,12.3966203 L9.30809805,12.3956262 L7.43096494,5.94333996 L11.3765643,5.98210736 Z M12.2597994,3.14612326 L6.60771538,3.09045726 L5.7337884,0.0576540755 L0,0 L6.13817354,16.9274354 L13.4977764,17 L20,0.199801193 L13.1999173,0.131212724 L12.2597994,3.14612326 Z" id="path316"></path>
            </g>
            <g id="g318" transform="translate(555.0811, 56.885)" fill="#000000" fill-rule="nonzero">
                <polygon id="path320" points="0 16.8234848 7.98722155 16.9028175 13.0858228 7.33827218 13.1396995 7.33926384 12.8754965 16.9514087 17.8176481 17 18 0.176515196 10.8395787 0.106107449 4.81367639 11.3743219 4.78881022 11.3743219 5.0965291 0.0485912617 0.182351925 0"></polygon>
            </g>
            <g id="g322" transform="translate(574.4198, 57.4775)" fill="#000000" fill-rule="nonzero">
                <path d="M8.09701366,4.29789103 C9.9930514,4.31684645 11.3161335,5.56590856 11.2829787,8.59977268 C11.25086,11.6096931 9.82209718,12.8038843 7.84420862,12.7849289 L5.78757752,12.7639782 L5.87978919,4.27594266 L8.09701366,4.29789103 Z M-7.84248354e-14,16.9251907 L7.47847019,16.999017 C13.7043122,17.0618692 16.9410455,14.108815 16.9990663,8.65763658 C17.0612315,2.94607062 14.0182463,0.137676175 8.1685036,0.078814622 L0.181315085,-4.25706225e-13 L-7.84248354e-14,16.9251907 Z" id="path324"></path>
            </g>
            <g id="g326" transform="translate(593.165, 56.7036)" fill="#000000" fill-rule="nonzero">
                <polygon id="path328" points="0 16.8717094 12.5893993 17 12.6327798 12.7952498 5.63642713 12.7236457 5.66669253 9.85053235 10.8945367 9.9042354 10.9227844 7.26383526 5.69494025 7.21013221 5.72520565 4.26143676 12.9556107 4.33602434 13 0.131274131 0.177557039 0"></polygon>
            </g>
            <g id="g330" transform="translate(607.0007, 56.4428)" fill="#000000" fill-rule="nonzero">
                <path d="M8.55756631,3.7855202 C9.86211745,3.79848431 10.5727518,4.50153798 10.560357,5.70919472 C10.5489951,6.7124174 9.8239002,7.34666157 8.43878295,7.33369746 L5.82968066,7.306772 L5.86789791,3.75859474 L8.55756631,3.7855202 Z M8.30450611,9.98037043 C9.58323478,9.99433178 10.2959349,10.5158879 10.2835402,11.620829 C10.2721783,12.7267673 9.54708333,13.3121468 8.0555775,13.2971882 L5.76564093,13.2742517 L5.80075949,9.95543945 L8.30450611,9.98037043 Z M2.83348675e-13,16.9181639 L8.04214982,16.9989403 C13.2624202,17.0507967 15.2259608,15.1939372 15.2528161,12.6489827 C15.2714083,10.9257532 14.5153264,9.47776185 12.6550757,8.99609529 L12.6561086,8.97116431 C14.8985319,8.58124376 15.9799769,7.04848703 15.9996019,5.14774902 C16.0316218,2.11215274 14.1362526,0.139613495 8.7300604,0.0857625756 L0.181790183,2.2210814e-13 L2.83348675e-13,16.9181639 Z" id="path332"></path>
            </g>
            <g id="g334" transform="translate(622.7719, 58.488)" fill="#000000" fill-rule="nonzero">
                <path d="M11.3761183,5.98210736 L9.38718519,12.3966203 L9.30754512,12.3966203 L7.43031494,5.94333996 L11.3761183,5.98210736 Z M12.2604334,3.14612326 L6.60702281,3.09045726 L5.73305063,0.0576540755 L0,0 L6.13849098,16.9274354 L13.4974401,17 L20,0.199801193 L13.1995656,0.131212724 L12.2604334,3.14612326 Z" id="path336"></path>
            </g>
            <g id="g338" transform="translate(643.7083, 57.7988)" fill="#000000" fill-rule="nonzero">
                <polygon id="path340" points="0 16.829375 5.58966565 16.8869114 5.65349544 10.8237731 11.2968592 10.8813094 11.2320162 16.9434557 16.822695 17 17 0.170624964 11.4103343 0.114080644 11.3424519 6.58493319 5.69908815 6.52739686 5.76697062 0.0575363249 0.177304965 0"></polygon>
            </g>
            <g id="g342" transform="translate(662.6448, 57.1096)" fill="#000000" fill-rule="nonzero">
                <polygon id="path344" points="0 16.8234848 7.98664518 16.9018258 13.0865761 7.33827218 13.1404559 7.33926384 12.8762376 16.9504171 17.8186737 17 18 0.176515196 10.8402026 0.106107449 4.81395349 11.3743219 4.78804974 11.3743219 5.09682247 0.0485912617 0.181326272 0"></polygon>
            </g>
            <g id="g346" transform="translate(1149.9564, 795.5074)" fill="#000000" fill-rule="nonzero">
                <polygon id="path348" points="0 5.73620149 1.88741064 10.972824 13.6854647 6.70152339 15.9551231 13 20 11.5360943 15.8429309 0"></polygon>
            </g>
            <g id="g350" transform="translate(1156.1673, 807.0596)" fill="#000000" fill-rule="nonzero">
                <path d="M12.4110513,12.2699407 L5.51237164,12.718853 L5.48464548,12.6456823 L11.0801956,8.72116018 L12.4110513,12.2699407 Z M15.4629829,12.0761371 L13.5560391,6.99274885 L16.1879707,5.1555702 L14.2533007,3.83801776e-15 L-1.69689498e-13,11.382004 L2.48303178,18 L21,17.9841793 L18.7059169,11.8694792 L15.4629829,12.0761371 Z" id="path352"></path>
            </g>
            <g id="g354" transform="translate(1160.8425, 826.5879)" fill="#000000" fill-rule="nonzero">
                <polygon id="path356" points="0 5.78002644 2.64314877 13.0501846 13.4983256 14.2946351 13.5164916 14.3437714 4.2609294 17.5005242 5.896876 22 22 16.2199736 19.6313592 9.70290351 6.83444195 8.21979124 6.82535896 8.19672729 17.7299876 4.47440631 16.1041332 0"></polygon>
            </g>
            <g id="g358" transform="translate(1167.8279, 844.5325)" fill="#000000" fill-rule="nonzero">
                <path d="M15.0780917,8.69558119 C15.7209,10.4228544 14.9695791,12.0628105 12.0128676,13.1005796 C9.07992557,14.1293158 7.42329904,13.25213 6.75258749,11.450587 L6.05603959,9.57577795 L14.3267708,6.6752436 L15.0780917,8.69558119 Z M-1.49503715e-13,5.78501039 L2.53402885,12.5997607 C4.64434163,18.2713591 8.63864078,20.1712593 13.9495601,18.308494 C19.5147092,16.3564043 21.1796033,12.6067862 19.1964054,7.27743066 L16.4897897,-5.96462857e-14 L-1.49503715e-13,5.78501039 Z" id="path360"></path>
            </g>
            <g id="g362" transform="translate(1174.7529, 861.1351)" fill="#000000" fill-rule="nonzero">
                <polygon id="path364" points="0 5.92834695 4.18249075 18 8.10554871 16.5230558 5.78051788 9.81303925 8.46165228 8.80406834 10.1977805 13.817039 12.6618989 12.8893206 10.9247842 7.87634992 13.6749692 6.84063768 16.076942 13.7738415 20 12.2958688 15.7405672 0"></polygon>
            </g>
            <g id="g366" transform="translate(1178.7725, 874.6026)" fill="#000000" fill-rule="nonzero">
                <path d="M15.54353,9.22932019 C15.9812753,10.4579657 15.5537339,11.3794498 14.3915149,11.8055457 C13.4262304,12.1592467 12.5670659,11.7083297 12.1017702,10.4041866 L11.2262796,7.9468956 L14.640489,6.69653163 L15.54353,9.22932019 Z M9.51713414,11.2367284 C9.94671637,12.4405527 9.69162003,13.299984 8.6283785,13.6888483 C7.56411658,14.0787467 6.75291023,13.6102481 6.25190103,12.2047521 L5.48355086,10.0484172 L8.677357,8.87975607 L9.51713414,11.2367284 Z M-6.34519386e-14,5.9601717 L2.69891925,13.5347505 C4.45092089,18.4503667 6.90902919,19.620062 9.35795403,18.723399 C11.0160802,18.1163158 12.143606,16.881465 11.9629978,14.9619649 L11.9874871,14.9536912 C13.1354206,16.915594 14.9772161,17.3747848 16.8067671,16.7056487 C19.7291507,15.6352379 20.9648374,13.1417494 19.1505922,8.04928273 L16.2812686,1.66730301e-13 L-6.34519386e-14,5.9601717 Z" id="path368"></path>
            </g>
            <g id="g370" transform="translate(1186.2651, 889.7525)" fill="#000000" fill-rule="nonzero">
                <path d="M12.4104445,12.2699407 L5.5121021,12.718853 L5.48437729,12.6456823 L11.0796538,8.72214898 L12.4104445,12.2699407 Z M15.4622268,12.0761371 L13.5553763,6.99274885 L16.1871791,5.1555702 L14.2536306,0 L0,11.3829927 L2.48291037,18 L21,17.9841793 L18.706029,11.8694792 L15.4622268,12.0761371 Z" id="path372"></path>
            </g>
            <g id="g374" transform="translate(1191.88, 908.9388)" fill="#000000" fill-rule="nonzero">
                <polygon id="path376" points="0 5.93087321 1.90989906 11.2700996 7.76488564 9.13399747 9.69210112 14.5246714 3.83711455 16.6607736 5.745995 22 22 16.0701557 20.0911195 10.7299004 13.8409112 13.0100557 11.9136957 7.62041064 18.1628855 5.33922642 16.254005 0"></polygon>
            </g>
            <g id="g378" transform="translate(1197.4387, 927.135)" fill="#000000" fill-rule="nonzero">
                <polygon id="path380" points="0 5.78002644 2.64314877 13.0511874 13.4993348 14.2956379 13.5164916 14.3437714 4.2609294 17.501527 5.896876 22 22 16.2199736 19.6313592 9.70290351 6.83444195 8.22079402 6.82636818 8.19672729 17.7299876 4.47440631 16.1041332 0"></polygon>
            </g>
            <g id="g382" transform="translate(1243.765, 588.4594)" fill="#000000" fill-rule="nonzero">
                <path d="M11.3893224,10.5426947 C11.9168023,11.8949277 11.5590861,12.922707 9.98574075,13.5562133 C8.50637175,14.1517297 7.41604446,13.6506745 6.83197665,12.1495623 L6.03469376,10.1052981 L10.5162522,8.30232071 L11.3893224,10.5426947 Z M-6.32692914e-14,6.41309611 L2.86779318,13.772858 C4.64323808,18.3254786 7.50597878,19.9929247 11.4034694,18.4250736 C15.0129681,16.9722188 16.3144894,14.1979336 14.52995,9.62067092 L13.541683,7.08459225 L18,5.29085563 L15.9375737,5.74859419e-13 L-6.32692914e-14,6.41309611 Z" id="path384"></path>
            </g>
            <g id="g386" transform="translate(1251.6239, 601.0157)" fill="#000000" fill-rule="nonzero">
                <path d="M12.3153611,12.764008 L5.50050865,13.4361754 L5.47100712,13.3624009 L10.8860631,9.12959068 L12.3153611,12.764008 Z M15.3326551,12.4689101 L13.2858596,7.26268673 L15.8331638,5.27999784 L13.7568667,0 L0,12.2199213 L2.66632757,19 L21,18.4221 L18.5371312,12.1584425 L15.3326551,12.4689101 Z" id="path388"></path>
            </g>
            <g id="g390" transform="translate(1255.9571, 621.6043)" fill="#000000" fill-rule="nonzero">
                <path d="M10.8548057,10.6779599 C11.3885481,11.9748503 11.0736196,12.8587809 9.8006135,13.343517 C8.599182,13.8017057 7.64110429,13.4025112 7.05828221,11.9876324 L6.10633947,9.6770241 L9.85480573,8.24936316 L10.8548057,10.6779599 Z M-9.28937084e-14,6.14130182 L3.03885481,13.5195165 C5.05725971,18.4209557 7.76278119,19.7640583 10.7801636,18.6146535 C12.692229,17.8860745 13.7781186,16.5999998 13.5572597,14.6935021 L13.6083845,14.6728542 C14.7719836,16.3305927 16.3629857,16.406302 18.0797546,15.752449 L22,14.2608776 L19.9222904,9.21686892 L15.9785276,10.7182727 C14.6768916,11.2138244 14.0010225,10.9513 13.5357873,9.82156002 L12.4775051,7.25137703 L18.2137014,5.06662316 L16.1267894,-4.63891986e-14 L-9.28937084e-14,6.14130182 Z" id="path392"></path>
            </g>
            <g id="g394" transform="translate(1263.365, 636.9454)" fill="#000000" fill-rule="nonzero">
                <polygon id="path396" points="0 6.35047307 2.0915609 11.5925369 9.40895124 8.71575736 9.42738811 8.76355115 4.29784012 17.1274649 6.64137163 23 11.5250946 14.3127155 23 17.1610222 20.3850367 10.6051375 13.1270541 9.14386772 14.2435092 6.81519144 18.2453351 5.24104695 16.1547985 0"></polygon>
            </g>
            <g id="g398" transform="translate(1270.2698, 655.4332)" fill="#000000" fill-rule="nonzero">
                <path d="M11.3893224,10.5436436 C11.9157918,11.8958667 11.5590861,12.9226116 9.98473025,13.55714 C8.50536125,14.1516253 7.41604446,13.6505738 6.83096615,12.1494727 L6.03469376,10.1052236 L10.5162522,8.30225947 L11.3893224,10.5436436 Z M7.59471971e-15,6.41304881 L2.86779318,13.7727564 C4.64222759,18.3263702 7.50597878,19.9927772 11.4034694,18.4249377 C15.0129681,16.9731204 16.3144894,14.1978288 14.52995,9.62059995 L13.541683,7.08556673 L18,5.29184335 L15.9375737,-4.5115847e-13 L7.59471971e-15,6.41304881 Z" id="path400"></path>
            </g>
            <g id="g402" transform="translate(1275.5955, 669.9652)" fill="#000000" fill-rule="nonzero">
                <polygon id="path404" points="0 6.21916654 2.02855736 11.3996476 13.596258 6.76788724 16.0364353 13 20 11.4125938 15.5312654 0"></polygon>
            </g>
            <g id="g406" transform="translate(1283.259, 682.0849)" fill="#000000" fill-rule="nonzero">
                <path d="M12.3153611,12.7633197 L5.50050865,13.4364754 L5.47100712,13.3627049 L10.8860631,9.12909836 L12.3153611,12.7633197 Z M15.3326551,12.4692623 L13.2858596,7.26331967 L15.8331638,5.27971311 L13.7568667,0 L0,12.2202869 L2.66632757,19 L21,18.4221311 L18.5371312,12.1577869 L15.3326551,12.4692623 Z" id="path408"></path>
            </g>
            <g id="g410" transform="translate(1287.7372, 701.8243)" fill="#000000" fill-rule="nonzero">
                <polygon id="path412" points="5.80173124 4.82510048 4.14777411 0.621288733 0 2.27460132 5.39983512 16 9.54760923 14.3466874 7.89468261 10.1459873 20 5.32088681 17.9070486 0"></polygon>
            </g>
            <g id="g414" transform="translate(1292.4953, 712.8089)" fill="#000000" fill-rule="nonzero">
                <polygon id="path416" points="12.3283632 1.35808104 6.80986752 11.8210863 6.7590104 11.8413713 4.01372335 4.79030377 0 6.40701861 5.29213163 20 8.99772069 18.5070237 14.2758915 8.42030529 14.3267487 8.40002029 16.9872738 15.2320097 21 13.6152949 15.6998908 4.50417577e-16"></polygon>
            </g>
            <g id="g418" transform="translate(604.4111, 599.4528)" stroke="#000000" stroke-width="14.6666663">
                <path d="M105.113949,15.519782 C109.462079,19.286957 112.421167,24.9222844 117.986333,27.126027 C123.645502,28.5380953 128.95966,32.3391281 134.944839,31.491688 C138.692951,31.0814114 142.494064,30.806566 146.220175,30.2528918 C150.531304,29.6135774 154.910435,26.9228804 159.304566,27.8758771 C165.532752,29.5020459 171.064917,34.4044521 177.712115,34.6494231 C179.121157,34.9800343 179.776177,36.4369143 180.910211,37.3560532 C182.513258,38.6545983 184.045304,39.3048667 185.93336,40.0188674 C191.423524,42.0941496 196.887687,44.4562271 200.843805,48.9732522 C203.078872,51.5255307 204.275908,55.1761951 206.989989,57.2793603 C215.185233,61.1849538 225.079529,60.2787605 233.753787,58.3727671 C242.90206,57.6766912 252.152336,56.1919283 261.289609,57.4476533 C275.783042,58.8696797 285.600335,70.7368287 295.83864,79.8306279 C297.994704,81.7196924 301.409806,81.5115667 304.158888,81.7416004 C310.208069,82.2504628 315.93424,83.3080202 322.079423,82.9475345 C339.323938,80.5605616 357.061467,78.1148355 373.92397,83.9652593 C378.493107,85.461972 383.689262,88.9065024 386.396342,92.8818031 C387.432373,94.4034112 387.903387,96.6589363 389.183426,97.94354 C390.164455,98.9264112 391.725501,99.3715413 392.914537,100.067617 C403.817862,106.096292 408.744009,119.303811 404.464882,130.967813 C402.958837,141.072366 396.242636,141.189873 387.876387,141.471689 C385.772324,141.721639 382.944239,141.665873 381.080184,142.757288 C377.220069,146.216756 372.334923,148.757085 367.460777,150.733781 C337.887895,155.339434 307.385985,146.94669 281.666217,132.599957 C263.534676,131.629035 244.920121,133.71328 226.821581,131.867036 C225.078529,131.778408 216.596275,131.02557 216.06826,132.891731 C209.284057,131.249629 202.102843,131.164985 195.282639,129.737979 C188.727444,128.260187 182.728265,125.511733 176.327074,123.522091 C169.234862,120.767661 162.227653,113.62168 154.271416,113.736199 C150.593306,114.573681 146.882195,117.409767 143.043081,117.361968 C139.126964,115.49282 135.670861,112.429687 131.818746,110.236899 C130.540708,109.29386 128.152636,106.694778 126.521588,106.55636 C98.9867659,116.782403 86.7814017,126.851106 58.2995518,108.930387 C49.5652911,105.381296 40.5380218,101.921828 31.5217527,99.1833319 C27.3356278,99.4502108 24.0985312,96.6808443 22.7734917,92.817075 C20.3024179,78.6027858 11.8501657,70.2807446 1.91286915,60.6910287 C0.878838298,59.6543834 0.154816693,59.1953118 0.0108123958,57.677687 C-0.0241886486,54.0120853 0.0368131717,50.2867346 0.0388132314,46.6101789 C1.52685764,38.1696355 2.82089625,29.528933 5.38397274,21.3602477 C7.69204161,18.3867386 8.22005737,14.416417 11.4771546,12.1688584 C19.5723961,4.51600619 31.7077583,4.29692649 42.2800737,4.40148725 C65.0207523,-0.290801592 84.9743478,-5.20714922 103.870912,12.4247833 L105.113949,15.519782 Z" id="path420"></path>
            </g>
            <g id="g422" transform="translate(911.3971, 601.7234)" stroke="#000000" stroke-width="9.3333331">
                <path d="M2.28685415,79.1788005 C2.28685415,79.1788005 -4.73015143,51.734937 5.81904197,33.7636083 C16.3682354,15.7922797 21.7605817,-2.09894312e-13 21.7605817,-2.09894312e-13" id="path424"></path>
            </g>
            <g id="g426" transform="translate(326.3797, 750.0562)" fill="#FFFFFD" fill-rule="nonzero">
                <path d="M226.395693,-9.15607857e-14 L8.60430704,-9.15607857e-14 C3.85219616,-9.15607857e-14 -8.97381268e-14,3.86167101 -8.97381268e-14,8.62547015 L-8.97381268e-14,116.37453 C-8.97381268e-14,121.138329 3.85219616,125 8.60430704,125 L226.395693,125 C231.147804,125 235,121.138329 235,116.37453 L235,8.62547015 C235,3.86167101 231.147804,-9.15607857e-14 226.395693,-9.15607857e-14" id="path428"></path>
            </g>
            <g id="g430" transform="translate(326.3797, 750.0562)" stroke="#000000" stroke-width="6.6666665">
                <path d="M226.395693,-9.15607857e-14 L8.60430704,-9.15607857e-14 C3.85219616,-9.15607857e-14 -8.97381268e-14,3.86167101 -8.97381268e-14,8.62547015 L-8.97381268e-14,116.37453 C-8.97381268e-14,121.138329 3.85219616,125 8.60430704,125 L226.395693,125 C231.147804,125 235,121.138329 235,116.37453 L235,8.62547015 C235,3.86167101 231.147804,-9.15607857e-14 226.395693,-9.15607857e-14 Z" id="path432"></path>
            </g>
            <g id="g434" transform="translate(728.0538, 472.8758)" stroke="#000000" stroke-width="5.3333332">
                <polygon id="path436" points="152.817577 56.7829866 23.0602004 108.266455 -4.24282041e-14 51.4824723 129.757377 8.04297136e-15"></polygon>
            </g>
            <g id="Group-2" transform="translate(720.1523, 466.181)">
                <mask id="mask-2" fill="white">
                    <use xlink:href="#path-1" transform="translate(88.3421, 62.1699) rotate(-21) translate(-88.3421, -62.1699)"></use>
                </mask>
                <g id="Rectangle" transform="translate(88.3421, 62.1699) rotate(-21) translate(-88.3421, -62.1699)"></g>
                <g id="g438" mask="url(#mask-2)" fill="#000000" fill-rule="nonzero">
                    <g transform="translate(42.634, -0.8499)" id="path440">
                        <polygon points="12.4817332 107.077647 -2.50143074e-15 112 46.5192693 4.92235277 59 3.1225289e-13"></polygon>
                    </g>
                </g>
                <g id="g442" mask="url(#mask-2)" fill="#000000" fill-rule="nonzero">
                    <g transform="translate(5.4148, 28.8795)" id="path444">
                        <polygon points="8.22577808 4.94349606 21 8.90429227e-16 5.05941271 36 0 23.5174469"></polygon>
                    </g>
                </g>
                <g id="g446" mask="url(#mask-2)" fill="#000000" fill-rule="nonzero">
                    <g transform="translate(16.1576, 19.106)" id="path448">
                        <polygon points="4.99873257 71 0 58.4923373 23.3764259 4.95423606 36 0"></polygon>
                    </g>
                </g>
                <g id="g450" mask="url(#mask-2)" fill="#000000" fill-rule="nonzero">
                    <g transform="translate(67.6636, -11.0241)" id="path452">
                        <polygon points="12.4817332 107.077647 0 112 46.5192693 4.92235277 59 0"></polygon>
                    </g>
                </g>
                <g id="g454" mask="url(#mask-2)" fill="#000000" fill-rule="nonzero">
                    <g transform="translate(25.4477, 8.765)" id="path456">
                        <polygon points="4.97447768 105 0 92.6014209 38.4386871 4.91102848 51 0"></polygon>
                    </g>
                </g>
                <polygon id="path464" fill="#000000" fill-rule="nonzero" mask="url(#mask-2)" points="153.749661 66.7763956 141.210411 71.77578 153.24507 43.77578 158.210411 56.39844"></polygon>
                <g id="g466" mask="url(#mask-2)" fill="#000000" fill-rule="nonzero">
                    <g transform="translate(92.1172, -5.4518)" id="path468">
                        <polygon points="12.4614009 92.0768518 0 97 42.0654854 0 47 12.4316982"></polygon>
                    </g>
                </g>
                <g id="g470" mask="url(#mask-2)" fill="#000000" fill-rule="nonzero">
                    <g transform="translate(117.689, 18.8049)" id="path472">
                        <polygon points="12.4813736 58.0206012 0 63 27.0571796 0 32 12.5737395"></polygon>
                    </g>
                </g>
            </g>
            <g id="g458" transform="translate(716.9374, 496.4613)" fill="#000000" fill-rule="nonzero">
                <polygon id="path460" points="0.4145 1 0.0885 0.283972125 0.9115 0"></polygon>
            </g>
            <g id="g462" transform="translate(858.2846, 501.4995)"></g>
            <g id="g474" transform="translate(333.2468, 671.123)" stroke="#000000" stroke-width="5.3333332">
                <polygon id="path476" points="3.23430124 80 74 77.0460012 70.7656988 0 0 2.95399884"></polygon>
            </g>
            <g id="g478" transform="translate(331.9466, 684.7628)" fill="#000000" fill-rule="nonzero">
                <polygon id="path480" points="69 63.5361658 57.9408229 64 0.463243378 11.0722684 0 0"></polygon>
            </g>
            <g id="g482" transform="translate(332.9839, 705.9881)" fill="#000000" fill-rule="nonzero">
                <polygon id="path484" points="46 42.5338036 34.9305192 43 0.463674979 11.1296752 0 0"></polygon>
            </g>
            <g id="g486" transform="translate(334.1922, 728.1832)" fill="#000000" fill-rule="nonzero">
                <polygon id="path488" points="23 20.5482598 11.8990024 21 0.464995144 10.7835705 0 0"></polygon>
            </g>
            <g id="g490" transform="translate(353.7006, 673.3401)" fill="#000000" fill-rule="nonzero">
                <polygon id="path492" points="49.5371587 35.0560077 50 46 0 0.458418556 11.0505892 0"></polygon>
            </g>
            <g id="g494" transform="translate(397.6261, 672.8895)" fill="#000000" fill-rule="nonzero">
                <polygon id="path496" points="4 4 0 0.167288226 3.83942726 0"></polygon>
            </g>
            <g id="g498" transform="translate(331.9089, 673.5352)" fill="#000000" fill-rule="nonzero">
                <polygon id="path500" points="72.5373033 56.8880453 73 68 0 0.465454111 11.0461257 0"></polygon>
            </g>
            <g id="g502" transform="translate(376.945, 673.7125)" fill="#000000" fill-rule="nonzero">
                <polygon id="path504" points="26.5367498 14.0686235 27 25 0 0.456890346 11.0593392 0"></polygon>
            </g>
            <g id="g506" transform="translate(356.8293, 804.2497)" fill="#000000" fill-rule="nonzero">
                <polygon id="path508" points="0 17 8.18757746 17 10.8223377 7.93126399 10.8743922 7.93126399 13.5091524 17 21 17 21 0 15.472209 0 15.5492897 11.3677112 15.4972352 11.3677112 12.1397178 0 8.11049671 0 4.72695204 11.3677112 4.67489751 11.3677112 4.75297931 0 0 0"></polygon>
            </g>
            <g id="g510" transform="translate(378.9871, 803.8161)" fill="#000000" fill-rule="nonzero">
                <path d="M11.4396445,5.91665685 L9.51942952,12.4020497 L9.43985118,12.4020497 L7.49276561,5.91665685 L11.4396445,5.91665685 Z M12.293303,3.04894569 L6.63910707,3.04894569 L5.73377429,0 L0,0 L6.31976023,17 L13.6792063,17 L20,0 L13.1996693,0 L12.293303,3.04894569 Z" id="path512"></path>
            </g>
            <g id="g514" transform="translate(400.2957, 804.2376)" fill="#000000" fill-rule="nonzero">
                <path d="M8.3681795,8.8104017 C9.81540031,8.8104017 10.5527792,9.43020379 10.5527792,10.7739427 C10.5527792,12.0395806 9.81540031,12.7635175 8.23661397,12.7635175 L5.6573177,12.7635175 L5.6573177,8.8104017 L8.3681795,8.8104017 Z M0,17 L8.23661397,17 C13.7103519,17 16,15.0364589 16,11.8583461 C16,9.84373896 15.1575727,8.37083284 13.236104,7.85416421 L13.236104,7.80309813 C15.2626211,7.36352927 15.9204488,5.94269054 15.9204488,4.13435034 L15.9204488,0 L10.2896481,0 L10.2896481,4.15938273 C10.2896481,5.52915538 9.78990311,6.04582401 8.52626211,6.04582401 L5.6573177,6.04582401 L5.6573177,0 L0,0 L0,17 Z" id="path516"></path>
            </g>
            <g id="g518" transform="translate(418.6043, 804.6591)" fill="#000000" fill-rule="nonzero">
                <polygon id="path520" points="0 17 5.49661437 17 5.49661437 9.30103664 5.54814203 9.30103664 11.3014038 17 17.4629232 17 11.3271676 9.4041701 18 0 11.1220479 0 7.20990917 6.0708564 5.49661437 4.21145011 5.49661437 0 0 0"></polygon>
            </g>
            <g id="g522" transform="translate(435.4701, 804.5693)" fill="#000000" fill-rule="nonzero">
                <polygon id="path524" points="4.28659692 12.6593827 6.14421362e-14 12.6593827 6.14421362e-14 17 14 17 14 12.6593827 9.71340308 12.6593827 9.71340308 5.88202529e-14 4.28659692 5.88202529e-14"></polygon>
            </g>
            <g id="g526" transform="translate(451.5875, 804.9061)" fill="#000000" fill-rule="nonzero">
                <path d="M7.8734295,7.98333137 C9.28837333,7.98333137 10.0860866,8.68123454 10.0860866,10.3604076 C10.0860866,11.9364472 9.23751911,12.7625162 7.66702121,12.7625162 L5.5321412,12.7625162 L5.5321412,7.98333137 L7.8734295,7.98333137 Z M0,17 L7.69294689,17 C12.4533005,17 15,14.9593592 15,10.7999764 C15,6.94999411 12.9678256,4.75315114 8.18254338,4.75315114 L5.5321412,4.75315114 L5.5321412,0 L0,0 L0,17 Z" id="path528"></path>
            </g>
            <g id="g530" transform="translate(467.1414, 804.0476)" fill="#000000" fill-rule="nonzero">
                <polygon id="path532" points="0 17 5.44782291 17 5.44782291 4.34061727 12 4.34061727 12 0 0 0"></polygon>
            </g>
            <g id="g534" transform="translate(480.5706, 805.1531)" fill="#000000" fill-rule="nonzero">
                <path d="M11.4396445,5.91665685 L9.51942952,12.4020497 L9.43985118,12.4020497 L7.49276561,5.91665685 L11.4396445,5.91665685 Z M12.293303,3.04894569 L6.63910707,3.04894569 L5.73377429,0 L0,0 L6.31976023,17 L13.6792063,17 L20,0 L13.1996693,0 L12.293303,3.04894569 Z" id="path536"></path>
            </g>
            <g id="g538" transform="translate(498.4364, 805.0633)" fill="#000000" fill-rule="nonzero">
                <polygon id="path540" points="4.28659692 12.6593827 -1.38740567e-13 12.6593827 -1.38740567e-13 17 14 17 14 12.6593827 9.71340308 12.6593827 9.71340308 4.29419514e-14 4.28659692 4.29419514e-14"></polygon>
            </g>
            <g id="g542" transform="translate(513.2721, 804.8025)" fill="#000000" fill-rule="nonzero">
                <polygon id="path544" points="0 3.6427141 7.82015033 12.6083166 7.82015033 12.6593827 0.0806840908 12.6593827 0.0806840908 17 15 17 15 12.9948168 7.44672781 4.39168335 7.44672781 4.34061727 14.947245 4.34061727 14.947245 0 0 0"></polygon>
            </g>
            <g id="g546" transform="translate(668.6712, 870.4814)" stroke="#000000" stroke-width="9.3333331">
                <path d="M4.59193518,0 C4.59193518,0 -18.8570254,182.495123 40.2234917,231.631468 C40.2234917,231.631468 82.5392605,281.292608 97,345" id="path548"></path>
            </g>
            <g id="g554" transform="translate(1477.885, 986.3169)" stroke="#000000" stroke-width="6.6666665">
                <path d="M994.688343,9.47654466e-14 L20.3116567,9.47654466e-14 C9.09484678,9.47654466e-14 3.08745407e-14,9.04043489 3.08745407e-14,20.1923727 L3.08745407e-14,437.808628 C3.08745407e-14,448.960566 9.09484678,458 20.3116567,458 L994.688343,458 C1005.90717,458 1015,448.960566 1015,437.808628 L1015,20.1923727 C1015,9.04043489 1005.90717,9.47654466e-14 994.688343,9.47654466e-14 Z" id="path556"></path>
            </g>
            <g id="g558" transform="translate(1280.7769, 942.1675)" stroke="#000000" stroke-width="6.6666665">
                <path d="M6.19845292,9.9234791 L30.1067695,0.655333951 C35.1045138,-1.28248731 40.7196324,1.22328157 42.6374757,6.24681822 L184.358727,377.656561 C184.782923,378.766459 185,379.94635 185,381.13624 L185,493.275897 C185,498.646402 180.664439,503 175.316186,503 L148.89655,503 C143.548296,503 139.21174,498.646402 139.21174,493.275897 L139.21174,384.024974 C139.21174,382.826084 138.99068,381.636194 138.56051,380.517297 L0.655029409,22.5033188 C-1.27575884,17.491781 1.20668319,11.8593005 6.19845292,9.9234791 Z" id="path560"></path>
            </g>
            <g id="g562" transform="translate(576.9154, 1214.9532)" stroke="#000000" stroke-width="6.6666665">
                <path d="M667.310504,-2.73430542e-13 L13.6894962,-2.73430542e-13 C6.12861147,-2.73430542e-13 -7.91302693e-14,6.1414189 -7.91302693e-14,13.7181042 L-7.91302693e-14,105.281896 C-7.91302693e-14,112.858581 6.12861147,119 13.6894962,119 L667.310504,119 C674.871389,119 681,112.858581 681,105.281896 L681,13.7181042 C681,6.1414189 674.871389,-2.73430542e-13 667.310504,-2.73430542e-13 Z" id="path564"></path>
            </g>
            <g id="g566" transform="translate(179.2839, 33.1152)" stroke="#000000" stroke-width="27.9999993">
                <path d="M57.515772,0 L585.832647,4.43553525 C598.051998,4.53757057 610.218334,6.03308821 622.098592,8.89307812 L646.249214,14.7050898 C658.314523,17.609095 670.001728,21.9005803 681.079766,27.4925159 C703.01378,38.5663488 722.117019,54.5198707 736.923079,74.1286578 L744.14806,83.69797 L769.652054,120.798812 C777.131105,131.677577 783.241781,143.436647 787.845043,155.80993 L797.081576,180.632522 L1218,1301.42946 C1218,1331.0157 1194.01742,1355 1164.43331,1355 L0,1355" id="path568"></path>
            </g>
            <g id="g570" transform="translate(107.4551, 12.1826)" fill="#FFFFFD" fill-rule="nonzero">
                <path d="M0,47 L128.224724,47 C131.965833,47 135,43.9171356 135,40.1137202 L135,6.88627984 C135,3.08387778 131.965833,0 128.224724,0 L26.7481332,0 L13.665219,10.9673761 C10.1973145,13.873903 7.70756243,17.807038 6.54295274,22.2195269 L0,47 Z" id="path572"></path>
            </g>
            <g id="g574" transform="translate(107.4551, 12.1826)" stroke="#000000" stroke-width="6.6666665">
                <path d="M0,47 L128.224724,47 C131.965833,47 135,43.9171356 135,40.1137202 L135,6.88627984 C135,3.08387778 131.965833,0 128.224724,0 L26.7481332,0 L13.665219,10.9673761 C10.1973145,13.873903 7.70756243,17.807038 6.54295274,22.2195269 L0,47 Z" id="path576"></path>
            </g>
            <g id="g578" transform="translate(128.1597, 28.1646)" fill="#000000" fill-rule="nonzero">
                <polygon id="path580" points="0.0455520713 16 11.8148209 15.9664052 11.803928 11.9864139 5.2622545 12.0061755 5.2543324 9.28697585 10.1422677 9.27314272 10.1353359 6.77428518 5.24740056 6.78811832 5.23947846 3.9987649 12 3.97900327 11.9881169 0 0 0.0345828444"></polygon>
            </g>
            <g id="g582" transform="translate(141.6128, 27.7344)" fill="#000000" fill-rule="nonzero">
                <polygon id="path584" points="0.0433798567 16 5 15.9851605 4.95662014 8.59364631e-14 -5.29034682e-14 0.0148395474"></polygon>
            </g>
            <g id="g586" transform="translate(148.2572, 27.389)" fill="#000000" fill-rule="nonzero">
                <polygon id="path588" points="0.0476103501 16 7.64663623 15.9792657 12.372481 6.84924406 12.4231963 6.84825671 12.2979604 15.9664301 17 15.9535946 16.9523896 2.21652046e-13 10.1399696 0.0177722925 4.5561035 10.7759334 4.53126332 10.7759334 4.67616438 0.0335698858 4.31546545e-14 0.0464054304"></polygon>
            </g>
            <g id="g590" transform="translate(166.0928, 27.1281)" fill="#000000" fill-rule="nonzero">
                <polygon id="path592" points="0.0469787234 16 5.4893617 15.985177 5.45361702 4.09412637 12 4.07633871 11.9877447 1.97254975e-13 -5.66418664e-14 0.0326107097"></polygon>
            </g>
            <g id="g594" transform="translate(179.2102, 27.465)" fill="#000000" fill-rule="nonzero">
                <path d="M10.8839659,5.57737434 L9.07856871,11.6734593 L9.0022262,11.6734593 L7.13492968,5.58824256 L10.8839659,5.57737434 Z M11.6865939,2.88205508 L6.31682684,2.89687539 L5.44610957,0.0375447697 L0,0.0513770532 L6.05065972,16 L13.0432209,15.9802396 L19,0 L12.539773,0.0177843646 L11.6865939,2.88205508 Z" id="path596"></path>
            </g>
            <g id="g598" transform="translate(197.5287, 27.9427)" fill="#000000" fill-rule="nonzero">
                <path d="M0.032685087,5.91379275 L4.60123985,5.90051961 C4.59728182,4.39657033 5.17713304,3.46745028 7.19374872,3.46132421 C9.18661623,3.45519814 9.67543279,4.25669182 9.67840131,5.08371077 C9.67939082,5.71061155 9.43696155,6.11288991 8.83039363,6.31505009 C8.22382572,6.51618927 6.79101929,6.7224335 5.59965261,6.90213145 C4.19059436,7.10633366 2.56483402,7.46266651 1.61886513,8.09160932 C0.575924542,8.77058167 -0.00491618673,9.95189145 2.40312993e-16,11.5814251 C0.00893691412,14.8149671 2.51733768,17.0142249 7.40154523,17 C12.869562,16.9846156 14.4903748,14.7731056 14.4804798,11.1638316 L10.0583721,11.1760837 C10.0633196,12.7045372 9.31129414,13.5346192 7.61132076,13.5397243 C5.95884373,13.5448293 5.25233559,12.8944453 5.25035657,12.0173968 C5.24837756,11.3659918 5.44133146,10.9882177 5.92618999,10.7615532 C6.4357862,10.5328467 7.86859263,10.3051613 9.22916504,10.0733918 C11.0023619,9.79363474 12.2897108,9.48937345 13.210942,8.98499399 C14.375592,8.30500063 15.0049186,7.12369085 15,5.51866148 C14.992055,2.58427572 13.4048854,-0.018281448 7.33129022,0 C1.37742538,0.0184749498 0.0247690294,2.93141948 0.032685087,5.91379275" id="path600"></path>
            </g>
            <g id="g602" transform="translate(214.2739, 27.1688)" fill="#000000" fill-rule="nonzero">
                <path d="M0.032685087,5.91312688 L4.60123985,5.89985294 C4.59728182,4.39581333 5.17713304,3.46663747 7.19374872,3.46051104 C9.18661623,3.45540567 9.67444328,4.25592642 9.6774118,5.08299504 C9.67840131,5.70993348 9.43696155,6.11223599 8.83039363,6.31440832 C8.22382572,6.51658065 6.79101929,6.72283727 5.59965261,6.90152494 C4.19059436,7.10573941 2.56483402,7.46209367 1.61886513,8.09107426 C0.575924542,8.77008739 -0.00491618673,9.95146812 2.40312993e-16,11.5810996 C0.00893691412,14.8148358 2.51733768,17.0142257 7.40154523,17 C12.869562,16.9846146 14.4903748,14.7729719 14.4804798,11.163481 L10.0583721,11.1757339 C10.0633196,12.7042792 9.31228364,13.5344111 7.61033125,13.5395164 C5.95884373,13.5446218 5.25233559,12.8952198 5.25035657,12.0170975 C5.24837756,11.3656534 5.44133146,10.9878566 5.92618999,10.7611785 C6.4357862,10.5324583 7.86859263,10.3047592 9.22916504,10.0739968 C11.0023619,9.7932019 12.2897108,9.48892234 13.210942,8.98451258 C14.375592,8.30549945 15.0049186,7.12309764 15,5.51797187 C14.992055,2.58443094 13.4048854,-0.018282546 7.33030071,0 C1.37742538,0.0174549871 0.0247690294,2.93057447 0.032685087,5.91312688" id="path604"></path>
            </g>
        </g>
    </g>
</svg>