<svg viewBox="0 0 109.215 109.586" xmlns="http://www.w3.org/2000/svg">
    <path id="Pfad_13" d="M865.014,1413.279l-7.591,9.29c-.191.246-.459.705-.106,1.023a45.214,45.214,0,0,0,6.919-6.739,6.141,6.141,0,0,1,4.778-2.367h.484l1.3.255,15.609,4.451-.637,5.08-2.054,1.3-1.139.416c-.756.273-1.512.544-2.252.857l-.086,1.155c1.8-.447,3.377-.946,4.959-1.444,1.5-.472,3-.943,4.517-1.356l.452-.123,1.238-.093a5.682,5.682,0,0,1,3.911,1.412c2.485,2.392,4.9,4.855,7.317,7.319l4.294,4.363-2.836,4.248-2.63.238-2.878-.471-1.321.482c-.05.3.561.625,1.181.768l1.937.445c2.335.536,4.67,1.071,6.991,1.661a5.34,5.34,0,0,1,3.864,3.428c1.015,3.57,1.967,7.158,2.919,10.747l1.56,5.863-4.775,2.073-2.319-1.143-.863-.751c-.571-.5-1.142-1-1.737-1.473l-3.243,3.359,2.454-2.5c1.055,1.037,2.142,2.041,3.23,3.045,1.266,1.169,2.531,2.339,3.751,3.555a6.149,6.149,0,0,1,1.722,5.453c-.824,3.355-1.742,6.687-2.66,10.018l-1.587,5.8-5.077-.07-1.523-2.215L902,1487.818a2.122,2.122,0,0,0-.65-1.056c-.489.141-.787.246-.465,1.33l.979,3.231c.57,1.863,1.14,3.726,1.663,5.6a5.609,5.609,0,0,1-1.013,5.246c-2.557,2.673-5.17,5.292-7.784,7.91l-4.541,4.56-3.96-3.487-.115-2.367.616-3.342c.064-.344.046-.887-.266-.965l-.823.678-.955,4.116c-.378,1.687-.757,3.373-1.187,5.046a5.836,5.836,0,0,1-3.652,4.193c-3.379.991-6.785,1.894-10.19,2.8l-5.834,1.556-2.319-4.586,1.117-2.46,2.052-2.474c.366-.463.42-.824.159-1.073l-1.144.409c-1.937,2.01-3.882,4.022-5.644,6.182a6.283,6.283,0,0,1-4.989,2.478,7.964,7.964,0,0,1-1.881-.24l-1.332-.314c-1.491-.347-2.981-.7-4.437-1.157-1.621-.512-3.219-1.1-4.957-1.745l-2.361-.866-8.9-3.209,12.569-4.775.108-1.175c-1.7.419-3.125.872-4.548,1.323-1.607.509-3.215,1.017-4.845,1.44l-.433.113-1.148.081a6.385,6.385,0,0,1-4.308-1.564c-2.391-2.289-4.7-4.665-7.006-7.041l-4.14-4.241,2.462-4.416,2.751-.231,2.718.428c1.413.059,1.448-.128,1.512-.465-.014-.188-.341-.563-1.3-.786l-1.734-.4c-2.35-.536-4.7-1.074-7.026-1.7a5.9,5.9,0,0,1-4.053-3.731c-.964-3.4-1.848-6.831-2.731-10.258l-1.535-5.919,4.607-2.259,2.339,1.166,2.525,2.107,1.066.245c.221-.242.411-.452-.343-1.176l-3.078-2.887c-1.212-1.123-2.424-2.247-3.609-3.4-.757-.735-2.451-2.7-1.871-5.058.884-3.59,1.85-7.156,2.817-10.723l1.684-6.246,5.168,1.146,1.418,2.008.381,1.126c.23.693.456,1.388.742,2.057l1.056-.381-1.137-3.78c-.559-1.817-1.117-3.635-1.61-5.47a6.13,6.13,0,0,1,1.195-5.544c2.433-2.554,4.936-5.042,7.438-7.53l4.482-4.471,4.123,3.149.125,2.47-.575,3.272c-.054.285-.136.958.262,1.047l4.225.064-3.4-.84,1-4.3c.351-1.549.7-3.1,1.085-4.637a5.537,5.537,0,0,1,3.07-4.114,52.348,52.348,0,0,1,15.05-3.532Zm9.226,9.721-5.347-1.523a40.236,40.236,0,0,1-5.676,6.837,7.726,7.726,0,0,1-5.577,2.407,7.529,7.529,0,0,1-7.432-8.573,43.727,43.727,0,0,0-4.843,1.48l-2.044,8.644c-.936,3.787-3.726,6.14-7.282,6.14a8.58,8.58,0,0,1-1.871-.213,7.192,7.192,0,0,1-5.115-4.178q-1.779,1.787-3.531,3.6c.423,1.5.925,3.133,1.427,4.766l1.174,3.9a7.537,7.537,0,0,1-4.865,9.375,7.422,7.422,0,0,1-6.731-.964q-.655,2.454-1.279,4.915c1.071,1.046,2.095,1.994,3.119,2.943l3.169,2.973c3.338,3.206,3.613,7.7.669,10.937a7.3,7.3,0,0,1-6.307,2.409q.646,2.466,1.326,4.923c2.047.535,4.111,1.006,6.174,1.477l1.75.4c4.684,1.081,7.4,4.748,6.606,8.916a7.363,7.363,0,0,1-4.4,5.564c1.34,1.364,2.691,2.715,4.071,4.036a10.834,10.834,0,0,1,3.779-1.686c1.529-.484,3.059-.968,4.608-1.378a8.022,8.022,0,0,1,2.054-.271,7.537,7.537,0,0,1,5.9,12.174c1.2.367,2.434.65,3.662.936l1.386.326a85.891,85.891,0,0,1,5.834-6.472,8.049,8.049,0,0,1,5.875-2.685,7.495,7.495,0,0,1,7.421,8.316q2.454-.662,4.9-1.359c.356-1.415.685-2.884,1.014-4.353l.991-4.269a7.491,7.491,0,0,1,7.289-6.04,8.358,8.358,0,0,1,2.039.259,7.281,7.281,0,0,1,4.891,4.139q1.786-1.8,3.551-3.627c-.451-1.579-.949-3.206-1.447-4.833l-1-3.29c-1.325-4.468.517-8.43,4.584-9.859a7.22,7.22,0,0,1,6.872,1c.447-1.653.885-3.309,1.3-4.971-.972-.937-2.1-1.975-3.221-3.013-1.141-1.054-2.282-2.108-3.389-3.2a7.508,7.508,0,0,1-.464-10.569,7.408,7.408,0,0,1,6.34-2.521q-.662-2.465-1.347-4.923c-2.008-.5-4.022-.961-6.037-1.423l-1.949-.448c-4.442-1.026-7.18-4.7-6.509-8.736a7.307,7.307,0,0,1,4.412-5.725q-1.813-1.832-3.656-3.632c-1.2.344-2.508.755-3.814,1.166-1.69.531-3.38,1.062-5.092,1.51a7.763,7.763,0,0,1-1.967.256A7.532,7.532,0,0,1,874.239,1423Zm-13.166,34.9a9.747,9.747,0,0,1,6.942,2.915,10.042,10.042,0,0,1-6.9,17.154l-.247,0a10.045,10.045,0,0,1-6.753-17.146,9.761,9.761,0,0,1,6.957-2.92Z" transform="translate(-806.493 -1413.279)"/>
</svg>
