<svg xmlns="http://www.w3.org/2000/svg" style="width: 1rem; height: 1rem;" viewBox="0 0 43.91 43.91"><defs><style>.cls-1{stroke:currentColor;stroke-miterlimit:10;}</style></defs><g id="Ebene_2" data-name="Ebene 2"><g id="Ebene_1-2" data-name="Ebene 1"><path class="cls-1" fill="currentColor" d="M22,.5A21.46,21.46,0,1,0,43.41,22,21.49,21.49,0,0,0,22,.5ZM41.43,19.09a.64.64,0,0,1,.06.18h0c0,.29-.22.4-.49.32-.71-.24-1.4-.51-2.12-.69-1.18-.29-2.37-.51-3.56-.75a.37.37,0,0,1-.35-.35,32.67,32.67,0,0,0-.92-4.71.39.39,0,0,1,.09-.33.36.36,0,0,1,.33-.06A14.41,14.41,0,0,1,40.88,18C41.09,18.36,41.25,18.73,41.43,19.09ZM29.06,3.5c0-.09.16-.15.23-.21h0a1.57,1.57,0,0,1,.27.1,20,20,0,0,1,11,11c.08.19.11.36-.08.49s-.33,0-.47-.11a19.58,19.58,0,0,0-6.36-3.93.85.85,0,0,1-.52-.51A19.74,19.74,0,0,0,29.61,4.4c-.16-.19-.35-.36-.5-.56A.45.45,0,0,1,29.06,3.5ZM26.61,27c0-.31.1-.39.41-.42,2-.16,4.08-.34,6.11-.51h.1a.35.35,0,0,1,.34.36h0c-.14.77-.25,1.54-.44,2.3-.26,1.08-.58,2.14-.88,3.21a.41.41,0,0,1-.3.31,28.86,28.86,0,0,1-5.42,1.28c-.36.05-.48-.09-.45-.45Q26.36,30,26.61,27Zm-.52-16.21c0-.34.1-.49.44-.45a30.24,30.24,0,0,1,5.38,1.26.56.56,0,0,1,.37.39,28.69,28.69,0,0,1,1.26,5.33s0,.08,0,.11h0c0,.26-.12.39-.42.36-.87-.08-1.74-.19-2.61-.26-1.17-.1-2.34-.17-3.5-.25-.32,0-.39-.1-.41-.42C26.44,14.86,26.27,12.83,26.09,10.81Zm7.33,13.85-5.6.53-.73,0c-.29,0-.4-.11-.4-.4V21.94h0V19.12c0-.36.09-.46.44-.43l6.26.54c.28,0,.36.13.38.4a32.8,32.8,0,0,1,0,4.65C33.76,24.55,33.68,24.64,33.42,24.66ZM24.64,2.41h0a1.8,1.8,0,0,1,.25.12,10.76,10.76,0,0,1,3.78,2.91,17.8,17.8,0,0,1,2.5,3.93.5.5,0,0,1,0,.4c-.07.15-.24.13-.4.09a30.93,30.93,0,0,0-4.6-.91c-.29,0-.35-.1-.4-.4A27.81,27.81,0,0,0,24.4,3.08c0-.1-.08-.19-.11-.29V2.7A.33.33,0,0,1,24.64,2.41Zm.26,22.91H19c-.3,0-.41-.11-.41-.4V19c0-.3.1-.4.4-.4h3c1,0,2,0,3,0,.29,0,.39.1.39.39,0,2,0,4,0,5.93C25.31,25.22,25.2,25.32,24.9,25.32Zm.33,1.83c-.14,1.74-.28,3.48-.43,5.21,0,.36-.08.71-.13,1.07v0a.33.33,0,0,1-.36.31l-3.85,0c-.3,0-.59,0-.88,0h0a.33.33,0,0,1-.31-.33l-.54-5.92c0-.14,0-.28,0-.42s.1-.41.39-.41h5.71C25.15,26.69,25.25,26.8,25.23,27.15ZM22,17.21H19.1c-.33,0-.45-.11-.42-.43.18-2.09.37-4.17.55-6.26,0-.29.12-.37.41-.39a35.77,35.77,0,0,1,4.63,0c.27,0,.38.11.4.38q.28,3.15.55,6.3c0,.29-.1.4-.4.4Zm-.47-15c.32-.49.58-.47.93,0a6.66,6.66,0,0,1,.92,1.92,28.49,28.49,0,0,1,1,4.15c0,.27-.09.42-.37.41l-2-.07-2,.07c-.34,0-.46-.13-.4-.46a22.58,22.58,0,0,1,1.25-4.78A7,7,0,0,1,21.48,2.25ZM16.66,4A8.94,8.94,0,0,1,19,2.5l.21-.08h0c.28,0,.41.21.31.49-.17.48-.36,1-.51,1.46a33,33,0,0,0-.93,4.19c0,.28-.11.36-.39.39a31.71,31.71,0,0,0-4.64.91.44.44,0,0,1-.37-.1.36.36,0,0,1,0-.35A15.78,15.78,0,0,1,16.66,4Zm.56,18c0,.94,0,1.88,0,2.83,0,.35-.1.47-.44.44l-6.28-.56c-.27,0-.34-.12-.36-.39a32.8,32.8,0,0,1,0-4.65c0-.28.1-.37.38-.39l6.21-.55c.42,0,.49.06.49.47V22ZM10.71,26.1h0c.83.09,1.65.19,2.47.26l3.64.25c.39,0,.45.09.48.49l.51,6c0,.33-.1.47-.43.43A28.84,28.84,0,0,1,12,32.27a.5.5,0,0,1-.33-.32,30,30,0,0,1-1.26-5.36C10.32,26.24,10.44,26.07,10.71,26.1Zm6.59-9.22c0,.32-.1.39-.42.42l-6,.51h-.15c-.26,0-.39-.13-.34-.42.17-1,.33-2,.55-2.93s.47-1.65.71-2.48a.5.5,0,0,1,.35-.35,30.27,30.27,0,0,1,5.4-1.27c.32,0,.46.11.43.43Zm-14-2.27c.05-.12.07-.2.1-.27a20,20,0,0,1,11-11,.39.39,0,0,1,.43,0c.17.12.15.33,0,.52C14.2,4.57,13.61,5.23,13.1,6a19.87,19.87,0,0,0-2.33,4.42.71.71,0,0,1-.4.4,20.31,20.31,0,0,0-6.09,3.62,4.08,4.08,0,0,1-.44.4.44.44,0,0,1-.35.06c-.09,0-.15-.16-.21-.23Zm-.8,4.44A9.37,9.37,0,0,1,4,16.69a15.79,15.79,0,0,1,5.16-3.86l.34-.16h.07c.25,0,.38.18.31.45-.18.79-.39,1.58-.55,2.38S9,17,8.93,17.74a.4.4,0,0,1-.38.4,30.06,30.06,0,0,0-5.12,1.23L3,19.55c-.17.07-.32.12-.47,0S2.41,19.21,2.48,19.05ZM2.2,22.41c-.42-.34-.42-.57,0-.89a6.09,6.09,0,0,1,1.73-.86,26.2,26.2,0,0,1,4.34-1.07c.34-.06.47.06.46.4,0,.66-.05,1.32-.07,2h0c0,.67.05,1.34.06,2,0,.27-.14.41-.4.37A24.68,24.68,0,0,1,3.5,23.1c-.41-.17-.79-.41-1.19-.62Zm.25,2.37a.35.35,0,0,1-.05-.2.31.31,0,0,1,.34-.28h0l.15.05a24.45,24.45,0,0,0,4.83,1.3l.84.14a.37.37,0,0,1,.35.36,32.67,32.67,0,0,0,.92,4.69.45.45,0,0,1-.09.35.37.37,0,0,1-.34,0A14.57,14.57,0,0,1,3.14,26.1,11,11,0,0,1,2.45,24.78Zm12.4,15.65a.32.32,0,0,1-.43.13c-.59-.27-1.19-.52-1.76-.82A20.06,20.06,0,0,1,3.42,29.67a.77.77,0,0,0-.07-.16.33.33,0,0,1,.54-.36,19.84,19.84,0,0,0,6.45,4,.68.68,0,0,1,.43.43,20,20,0,0,0,3.67,6.11l.34.38a.77.77,0,0,1,.1.18h0A.3.3,0,0,1,14.85,40.43Zm4.71.94a.34.34,0,0,1-.46.09,9.56,9.56,0,0,1-2.79-1.83,16.2,16.2,0,0,1-3.43-4.7c-.07-.14-.15-.28-.21-.43a.41.41,0,0,1,0-.16A.32.32,0,0,1,13,34h0a.38.38,0,0,1,.16,0,31.45,31.45,0,0,0,4.6.91c.3,0,.35.1.4.4a29.84,29.84,0,0,0,1.23,5.1,5.38,5.38,0,0,0,.2.51A.35.35,0,0,1,19.56,41.37Zm2.79.38c-.27.38-.51.37-.8,0a5.7,5.7,0,0,1-.93-1.86,26.71,26.71,0,0,1-1.06-4.32c0-.26.11-.41.39-.4l2,.07v-.07h0c.62,0,1.25,0,1.87,0,.4,0,.55.16.48.53A23.81,23.81,0,0,1,23,40.53,7,7,0,0,1,22.35,41.75Zm2.44-.3c-.27.12-.51,0-.51-.29h0l0-.12a24.57,24.57,0,0,0,1.32-4.91c.05-.26.09-.53.13-.8a.36.36,0,0,1,.35-.33,33.5,33.5,0,0,0,4.67-.91.44.44,0,0,1,.37.08.41.41,0,0,1,0,.37,16,16,0,0,1-3.88,5.33A9.24,9.24,0,0,1,24.79,41.45Zm15.76-12c-.27.6-.52,1.22-.83,1.8A20.08,20.08,0,0,1,29.6,40.52l-.06,0a.34.34,0,0,1-.47-.09c-.11-.17,0-.31.09-.45.48-.57,1-1.12,1.42-1.72a20.09,20.09,0,0,0,2.55-4.74.66.66,0,0,1,.42-.41,20.36,20.36,0,0,0,6-3.56c.16-.14.31-.29.48-.43a.82.82,0,0,1,.2-.12h0a.28.28,0,0,1,.2,0A.32.32,0,0,1,40.55,29.5Zm.88-4.69a9.75,9.75,0,0,1-2.28,3.27,17.07,17.07,0,0,1-4.61,3.13.33.33,0,0,1-.51-.29h0l.18-.71A31.07,31.07,0,0,0,35,26.26c0-.39.09-.42.48-.49A26.56,26.56,0,0,0,41,24.34c.16-.06.32-.08.4.07A.47.47,0,0,1,41.43,24.81Zm.33-2.48a7.92,7.92,0,0,1-1.4.77A21.66,21.66,0,0,1,36,24.27l-.37.06c-.34.06-.48-.06-.47-.41,0-.65,0-1.31.07-2h0c0-.65,0-1.3-.08-1.95,0-.35.12-.47.45-.41a21.64,21.64,0,0,1,5,1.33,5.76,5.76,0,0,1,1.15.67C42.11,21.84,42.12,22.09,41.76,22.33Z"/></g></g></svg>