<svg viewBox="0 0 1550.552 538.272" xmlns="http://www.w3.org/2000/svg">
  <g id="Gruppe_4" transform="translate(-75.913 355.562)">
    <path id="Pfad_1" d="M152.331-41.973a29.191,29.191,0,0,0-8.713-21.448q-8.72-8.707-20.11-18.1-8.045-6.7-16.424-14.413A108.189,108.189,0,0,1,91.667-113.7a89.2,89.2,0,0,1-11.4-23.129q-4.367-13.069-4.356-29.827V-264.52q0-32.176,19.44-51.281t53.626-19.1q32.176,0,51.281,19.1t19.1,51.281v109.264H152.331v-122h-9.386V-168a29.119,29.119,0,0,0,8.716,21.451q8.706,8.721,20.11,18.1,8.041,6.714,16.421,14.412A108.872,108.872,0,0,1,203.609-96.27a88.416,88.416,0,0,1,11.4,23.463q4.348,13.418,4.356,30.834V67.96q0,32.177-19.44,51.281t-53.626,19.1q-32.172,0-51.278-19.1T75.913,67.96V-54.709h67.032V80.7h9.386Z" transform="translate(0 44.366)" />
    <path id="Pfad_2" d="M123.4,180.7l18.1-469.229H250.767l18.1,469.229H201.83V25.855H190.436V180.7Zm10.724-478.615v-57.649h57.649v57.649ZM190.436-29.783H201.83L199.819-232.89h-6.7ZM201.16-297.913v-57.649h57.649v57.649Z" transform="translate(101.993 0)" />
    <path id="Pfad_3" d="M247.949-164.643V-277.255h-9.383V80.7h9.383V-50.685h-4.693v-60.331h71.725V67.96q0,32.177-19.437,51.281-19.452,19.1-53.629,19.1-32.172,0-51.278-19.1T171.531,67.96V-264.52q0-32.176,19.44-51.281T244.6-334.9q32.172,0,51.278,19.1t19.1,51.281v99.877Z" transform="translate(205.352 44.366)" />
    <path id="Pfad_4" d="M324.658-273.938H287.119v138.09h37.539V-75.52H287.119V74.631H328.01v60.333H220.087v-469.23h104.57Z" transform="translate(309.632 45.738)" />
    <path id="Pfad_5" d="M389.683,6.261h9.386L379.63-206.232V-334.265h67.031v128.033l-9.386,341.2H370.244L354.826-75.52h-6.7L332.708,134.965H265.673l-9.383-341.2V-334.265h67.032v128.033L303.882,6.261h9.386l19.439-212.493h37.536Z" transform="translate(387.383 45.738)" />
    <path id="Pfad_6" d="M424.321-273.938H386.783v138.09h37.538V-75.52H386.783V74.631h40.89v60.333H319.751v-469.23h104.57Z" transform="translate(523.673 45.738)" />
    <path id="Pfad_7" d="M432.373,134.965V-75.52h-9.386V134.965H355.954v-469.23h73.067q32.171,0,51.277,19.1T499.4-263.88v109.263q0,29.5-18.1,48.93,18.1,19.452,18.1,49.606V134.965Zm-9.386-270.812h9.386v-142.78h-9.386Z" transform="translate(601.424 45.738)" />
    <path id="Pfad_8" d="M553.321,134.965h-67.7L478.245-75.52h-6.7V134.965H404.508v-469.23h67.034v198.417h6.7l8.045-198.417h67.031l-8.042,179.648q-1.355,30.841-18.1,48.93,16.751,18.1,18.1,49.606Z" transform="translate(705.699 45.738)" />
    <g id="Gruppe_1"  transform="translate(1300.585 -292.871)">
      <path id="Pfad_9"  d="M510.694-197.052c34.832-24.346,37.083-31.838,37.083-55.811,0-19.106-4.12-27.721-13.859-27.721s-14.237,7.491-14.237,34.085c0,7.495,0,15.735.378,22.477H466.492a195.255,195.255,0,0,1-1.5-24.35c0-56.935,19.483-87.274,74.17-87.274,48.693,0,73.418,26.594,73.418,77.16,0,42.7-16.105,64.8-50.944,88.4-19.477,14.609-20.979,18.732-20.979,27.344H615.2v56.563H465.368C465.368-150.606,470.235-168.959,510.694-197.052Z" transform="translate(-464.991 335.645)" />
      <path id="Pfad_10"  d="M592.03-133.173H517.113v-54.312l69.673-147.208H657.2v145.335h21.728v56.185H657.2v44.952H592.03Zm0-56.185v-68.549h-.375l-29.591,67.8v.752Z" transform="translate(-353.053 337.69)" />
    </g>
  </g>
</svg>
