<svg xmlns="http://www.w3.org/2000/svg" style="width: 1rem; height: 1rem;" viewBox="0 0 42.05 42.04"><g id="Ebene_2" data-name="Ebene 2"><g id="Ebene_1-2" data-name="Ebene 1"><path fill="currentColor" d="M35.67,29.28H32.28V25.9a6.38,6.38,0,0,0-6.38-6.38H16.14a3.39,3.39,0,0,1-3.38-3.38V12.76H35.67A6.38,6.38,0,0,0,35.67,0H16.14A6.39,6.39,0,0,0,9.76,6.38V9.76H6.38A6.38,6.38,0,0,0,0,16.14V25.9a6.38,6.38,0,0,0,6.38,6.38H9.21L9,32.52a1,1,0,0,0,.71,1.71,1,1,0,0,0,.7-.3l2.38-2.37a1.11,1.11,0,0,0,0-1.56l-2.37-2.36A1,1,0,1,0,9,29.05l.23.23H6.38A3.39,3.39,0,0,1,3,25.9V16.14a3.39,3.39,0,0,1,3.38-3.38H9.76v3.38a6.38,6.38,0,0,0,6.38,6.38H25.9a3.38,3.38,0,0,1,3.38,3.38v3.38H25.9a6.39,6.39,0,0,0-6.38,6.38A3.38,3.38,0,0,1,16.14,39H1.5v3H16.14a6.38,6.38,0,0,0,6.38-6.38,3.39,3.39,0,0,1,3.38-3.38h3.38v3.38a6.39,6.39,0,1,0,6.39-6.38ZM12.76,6.38A3.39,3.39,0,0,1,16.14,3H35.67a3.38,3.38,0,0,1,0,6.76H12.76ZM35.67,39a3.38,3.38,0,0,1-3.39-3.38V32.28h3.39a3.38,3.38,0,0,1,0,6.76Z"/></g></g></svg>