<svg xmlns="http://www.w3.org/2000/svg" viewBox="0 0 23.58 23.58"><defs><style>.cls-1{fill:#f6e81d;}</style></defs><g id="Ebene_2" data-name="Ebene 2"><g id="Ebene_1-2" data-name="Ebene 1"><circle cx="11.79" cy="11.79" r="11.79"/><path class="cls-1" d="M11.79,21.34a9.55,9.55,0,1,1,9.55-9.55A9.56,9.56,0,0,1,11.79,21.34Zm0-17.83a8.28,8.28,0,1,0,8.28,8.28A8.28,8.28,0,0,0,11.79,3.51Z"/><path class="cls-1" d="M8.14,12.9H6.9l-.2.69H5.44L6.83,9.74H8.45l1.39,3.85H8.34ZM8,12.25l-.42-1.47h0l-.43,1.47Z"/><path class="cls-1" d="M9.9,12V9.74h1.28V12a.6.6,0,0,0,.68.65.6.6,0,0,0,.68-.65V9.74h1V12c0,1.09-.69,1.62-1.83,1.62S9.9,13.12,9.9,12Z"/><path class="cls-1" d="M15.06,11.59,13.91,9.74h1.57l.6,1.14.57-1.14H18l-1.13,1.88,1.18,2H16.46l-.62-1.19-.59,1.19H13.86Z"/></g></g></svg>