<svg xmlns="http://www.w3.org/2000/svg" viewBox="0 0 23.58 23.58"><defs><style>.cls-1{fill:#f6e81d;}</style></defs><g id="Ebene_2" data-name="Ebene 2"><g id="Ebene_1-2" data-name="Ebene 1"><circle cx="11.79" cy="11.79" r="11.79"/><path class="cls-1" d="M11.79,21.34a9.55,9.55,0,1,1,9.55-9.55A9.56,9.56,0,0,1,11.79,21.34Zm0-17.83a8.28,8.28,0,1,0,8.28,8.28A8.28,8.28,0,0,0,11.79,3.51Z"/><path class="cls-1" d="M11.81,15.93a7.45,7.45,0,0,1-6.44-3.77.69.69,0,0,1,0-.78,7.18,7.18,0,0,1,6.44-3.73,7.18,7.18,0,0,1,6.38,3.74.66.66,0,0,1,0,.78A7.44,7.44,0,0,1,11.81,15.93Zm3.13-6.16a3.44,3.44,0,0,1-.44,3,3.21,3.21,0,0,1-2.61,1.42,3.15,3.15,0,0,1-2.36-.9,3.41,3.41,0,0,1-.9-3.5,5.73,5.73,0,0,0-1.84,1.75.65.65,0,0,0,0,.59,6.06,6.06,0,0,0,9.9,0,.61.61,0,0,0,.06-.55A5.4,5.4,0,0,0,14.94,9.77Z"/></g></g></svg>