<svg xmlns="http://www.w3.org/2000/svg" viewBox="0 0 23.58 23.58"><defs><style>.cls-1{fill:#f6e81d;}</style></defs><g id="Ebene_2" data-name="Ebene 2"><g id="Ebene_1-2" data-name="Ebene 1"><circle cx="11.79" cy="11.79" r="11.79"/><path class="cls-1" d="M11.79,21.34a9.55,9.55,0,1,1,9.55-9.55A9.56,9.56,0,0,1,11.79,21.34Zm0-17.83a8.28,8.28,0,1,0,8.28,8.28A8.28,8.28,0,0,0,11.79,3.51Z"/><path class="cls-1" d="M12.07,16.78a.3.3,0,0,1-.55,0s0,0,0,0c-.1-.39-.16-.79-.23-1.18a3.76,3.76,0,0,0-3.34-3.22c-.35-.07-.7-.1-1-.19a.26.26,0,0,1-.11-.07.29.29,0,0,1,0-.45.33.33,0,0,1,.13-.07c.57-.14,1.15-.2,1.72-.36a3.47,3.47,0,0,0,2.56-2.77c.1-.47.17-1,.29-1.42a.54.54,0,0,1,.07-.13.3.3,0,0,1,.48,0,.36.36,0,0,1,0,.09c.12.47.18,1,.29,1.42a3.62,3.62,0,0,0,3.09,2.92c.4.08.8.11,1.19.21a.26.26,0,0,1,.13.08.3.3,0,0,1,0,.44.37.37,0,0,1-.12.07c-.59.15-1.19.24-1.77.4a3.26,3.26,0,0,0-2.4,2.35c-.16.58-.26,1.18-.4,1.76Z"/></g></g></svg>