<svg xmlns="http://www.w3.org/2000/svg" viewBox="0 0 23.58 23.58"><defs><style>.cls-1{fill:#f6e81d;}</style></defs><g id="Ebene_2" data-name="Ebene 2"><g id="Ebene_1-2" data-name="Ebene 1"><circle cx="11.79" cy="11.79" r="11.79"/><path class="cls-1" d="M11.79,21.34a9.55,9.55,0,1,1,9.55-9.55A9.56,9.56,0,0,1,11.79,21.34Zm0-17.83a8.28,8.28,0,1,0,8.28,8.28A8.28,8.28,0,0,0,11.79,3.51Z"/><path class="cls-1" d="M10.09,14.28V12a1.1,1.1,0,0,1,.31-.8,1.37,1.37,0,0,0,.38-.79l.45-3.24c0-.06,0-.12,0-.19a1.84,1.84,0,0,1,0-.41.23.23,0,0,1,.24-.22h.81a.25.25,0,0,1,.21.37s0,.08,0,.11a1.22,1.22,0,0,0,0,.17,1.7,1.7,0,0,0,0,.39c.14,1,.29,2.07.44,3.1a1.11,1.11,0,0,0,.32.67,1.16,1.16,0,0,1,.34.85v4.78c0,.41-.16.53-.57.53H10.55a.36.36,0,0,1-.41-.31,2,2,0,0,1,0-.41C10.09,15.8,10.09,15,10.09,14.28Z"/></g></g></svg>