<?xml version="1.0" encoding="UTF-8"?>
<svg viewBox="0 0 24 24" version="1.1" xmlns="http://www.w3.org/2000/svg" xmlns:xlink="http://www.w3.org/1999/xlink">
    <g id="Page-1" stroke="none" stroke-width="1" fill="none" fill-rule="evenodd">
        <g id="Infopoint" fill-rule="nonzero">
            <circle id="Oval" fill="#000000" cx="11.79" cy="11.79" r="11.79"></circle>
            <path d="M11.79,21.34 C6.51568064,21.34 2.24,17.0643194 2.24,11.79 C2.24,6.51568064 6.51568064,2.24 11.79,2.24 C17.0643194,2.24 21.34,6.51568064 21.34,11.79 C21.3344882,17.0620346 17.0620346,21.3344882 11.79,21.34 Z M11.79,3.51 C7.21708227,3.51 3.51,7.21708227 3.51,11.79 C3.51,16.3629177 7.21708227,20.07 11.79,20.07 C16.3629177,20.07 20.07,16.3629177 20.07,11.79 C20.07,9.59400746 19.1976454,7.48795707 17.6448441,5.93515585 C16.0920429,4.38235464 13.9859925,3.51 11.79,3.51 Z" id="Shape" fill="#F6E81D"></path>
            <path d="M11.7899735,8.69591411 C8.53562736,8.70028253 5.89855129,11.3373694 5.89419617,14.5917155 C5.89466701,14.752973 6.02526096,14.8835885 6.18651834,14.8840859 L17.3934335,14.8840859 C17.5547086,14.8836123 17.6853302,14.7529906 17.6858038,14.5917155 C17.6814434,11.3373509 15.0443381,8.70025864 11.7899735,8.69591411 L11.7899735,8.69591411 Z M12.48678,14.2993693 L11.0932007,14.2993693 L11.0932007,11.5902245 L12.48678,11.5902245 L12.48678,14.2993693 Z" id="Shape" fill="#F6E81D"></path>
        </g>
    </g>
</svg>