<?xml version="1.0" encoding="UTF-8"?>
<svg  viewBox="0 0 24 24" version="1.1" xmlns="http://www.w3.org/2000/svg" xmlns:xlink="http://www.w3.org/1999/xlink">
    <g id="Page-1" stroke="none" stroke-width="1" fill="none" fill-rule="evenodd">
        <g id="Infopoint" fill-rule="nonzero">
            <circle id="Oval" fill="#000000" cx="11.79" cy="11.79" r="11.79"></circle>
            <path d="M11.79,21.34 C6.51568064,21.34 2.24,17.0643194 2.24,11.79 C2.24,6.51568064 6.51568064,2.24 11.79,2.24 C17.0643194,2.24 21.34,6.51568064 21.34,11.79 C21.3344882,17.0620346 17.0620346,21.3344882 11.79,21.34 Z M11.79,3.51 C7.21708227,3.51 3.51,7.21708227 3.51,11.79 C3.51,16.3629177 7.21708227,20.07 11.79,20.07 C16.3629177,20.07 20.07,16.3629177 20.07,11.79 C20.07,9.59400746 19.1976454,7.48795707 17.6448441,5.93515585 C16.0920429,4.38235464 13.9859925,3.51 11.79,3.51 Z" id="Shape" fill="#F6E81D"></path>
            <path d="M7.07985403,15.1852377 L11.5713964,7.78930746 L10.7856289,6.55117296 C10.6804648,6.38544723 10.7270092,6.16447958 10.8896954,6.05735053 C11.0523815,5.95022148 11.2697354,5.99741194 11.3751192,6.16358497 L11.9995178,7.14832237 L12.6247945,6.16336132 C12.7299587,5.99763559 12.9473127,5.95022148 13.1097792,6.05735053 C13.2724654,6.16447958 13.3190099,6.38567088 13.2142848,6.55139661 L12.4287369,7.78953111 L16.9200597,15.1854614 C17.021272,15.3498452 17.0267607,15.5558282 16.9343304,15.7255797 C16.8421196,15.8955548 16.6664801,15.9995527 16.4761307,15.9995527 L14.4881106,15.9995527 C14.3087387,15.9995527 14.141442,15.90629 14.0444012,15.7526415 L12.3554074,13.0672584 C12.2776869,12.9438027 12.1437617,12.8693268 11.9999569,12.8693268 C11.8563715,12.8693268 11.7222268,12.9438027 11.6445063,13.067482 L9.95639072,15.7526415 C9.85978897,15.9067373 9.6924923,16 9.51268132,16 L7.52400254,16 C7.33343363,16 7.15779408,15.8960021 7.06558332,15.7258033 C6.97337256,15.5556045 6.97864174,15.3496215 7.07985403,15.1852377 Z" id="Path" fill="#F6E81D"></path>
        </g>
    </g>
</svg>