<svg xmlns="http://www.w3.org/2000/svg" viewBox="0 0 23.58 23.58"><defs><style>.cls-1{fill:#f6e81d;}</style></defs><g id="Ebene_2" data-name="Ebene 2"><g id="Ebene_1-2" data-name="Ebene 1"><circle cx="11.79" cy="11.79" r="11.79"/><path class="cls-1" d="M11.79,21.34a9.55,9.55,0,1,1,9.55-9.55A9.56,9.56,0,0,1,11.79,21.34Zm0-17.83a8.28,8.28,0,1,0,8.28,8.28A8.28,8.28,0,0,0,11.79,3.51Z"/><path class="cls-1" d="M5.39,14.54c2.49,4.34,10.23,5.55,12.52.38.32-.73-.75-1.37-1.08-.63-1.9,4.29-8.3,3.21-10.36-.38a.63.63,0,0,0-1.08.63Z"/><path class="cls-1" d="M6.06,9.11a2,2,0,0,0,.18,1.34A1.74,1.74,0,0,0,7,11.2a2.15,2.15,0,0,0,2.14-.11A2,2,0,0,0,10,9.88a.62.62,0,1,0-1.2-.33,1.42,1.42,0,0,1-.07.22v.05s.07-.16,0-.08,0,.07-.05.1a.22.22,0,0,0-.05.08s0,0,0,0,.11-.13.05-.07a.86.86,0,0,1-.13.14l0,0c-.06.06.07-.06.07-.05l-.07.05a.91.91,0,0,0-.17.09c.16-.1.11-.05,0,0l-.08,0-.09,0s-.17,0,0,0h-.3s.18,0,.06,0H7.81l-.18-.06,0,0-.08,0L7.44,10c-.06,0,.12.1.07.06l0,0L7.42,10,7.36,9.9c-.09-.1.08.12,0,0a.35.35,0,0,1,0-.08s-.07-.15,0,0,0,0,0,0a.45.45,0,0,1,0-.11V9.61c0-.1,0,.08,0,.08s0-.09,0-.12V9.45a.13.13,0,0,0,0-.06c0-.1,0,.17,0,0a.63.63,0,0,0-.43-.77.64.64,0,0,0-.77.44Z"/><path class="cls-1" d="M13.53,9.65a1.71,1.71,0,0,0,1.27,1.81A2.4,2.4,0,0,0,17,11a1.8,1.8,0,0,0,.62-1.09.73.73,0,0,0-.06-.48.69.69,0,0,0-.38-.29.64.64,0,0,0-.77.44.65.65,0,0,1,0,.2l0,.09c0,.06.07-.15,0-.09l0,.06a1.4,1.4,0,0,0-.1.16s.1-.12.06-.08l0,0-.07.08-.07.06,0,0,.07,0-.16.1-.09,0-.05,0,.1,0-.2.07-.18,0h-.05c-.07,0,.17,0,.1,0h-.39c-.06,0,.13,0,.11,0h-.07l-.17,0s-.05,0-.08,0,.12,0,.09,0l-.06,0-.14-.09c-.1-.06.11.1,0,0l-.08-.07L14.81,10c.14.14.06.08,0,0a.36.36,0,0,0,0-.09c0-.07,0,.09,0,.09l0-.06a.38.38,0,0,1,0-.1.11.11,0,0,1,0-.05c0-.1,0,.15,0,.07a2.43,2.43,0,0,1,0-.27.63.63,0,0,0-1.25,0Z"/></g></g></svg>