<?xml version="1.0" encoding="UTF-8"?>
<svg viewBox="0 0 24 24" version="1.1" xmlns="http://www.w3.org/2000/svg" xmlns:xlink="http://www.w3.org/1999/xlink">
    <g id="Page-1" stroke="none" stroke-width="1" fill="none" fill-rule="evenodd">
        <g id="Infopoint" fill-rule="nonzero">
            <circle id="Oval" fill="#000000" cx="11.79" cy="11.79" r="11.79"></circle>
            <path d="M11.79,21.34 C6.51568064,21.34 2.24,17.0643194 2.24,11.79 C2.24,6.51568064 6.51568064,2.24 11.79,2.24 C17.0643194,2.24 21.34,6.51568064 21.34,11.79 C21.3344882,17.0620346 17.0620346,21.3344882 11.79,21.34 Z M11.79,3.51 C7.21708227,3.51 3.51,7.21708227 3.51,11.79 C3.51,16.3629177 7.21708227,20.07 11.79,20.07 C16.3629177,20.07 20.07,16.3629177 20.07,11.79 C20.07,9.59400746 19.1976454,7.48795707 17.6448441,5.93515585 C16.0920429,4.38235464 13.9859925,3.51 11.79,3.51 Z" id="Shape" fill="#F6E81D"></path>
            <g id="Group" transform="translate(6.2608, 6.2608)" fill="#F6E81D">
                <path d="M1.87411751,2.85191795 L1.37357681,3.35245865 C1.1291267,3.59690876 1.26881248,4.00432561 1.60638644,4.05088754 L3.87628032,4.34189957 C4.14401139,4.37682102 4.36518054,4.14401139 4.34189957,3.87628032 L4.05088754,1.60638644 C4.00432561,1.26881248 3.59690876,1.1291267 3.35245865,1.37357681 L2.85191795,1.87411751 L1.04764333,0.0698428886 C0.954519477,-0.0232809629 0.803193219,-0.0232809629 0.710069367,0.0698428886 L0.0698428886,0.710069367 C-0.0232809629,0.803193219 -0.0232809629,0.954519477 0.0698428886,1.04764333 L1.87411751,2.85191795 Z" id="Path"></path>
                <path d="M9.18433985,8.20653941 L9.68488055,7.70599871 C9.92933066,7.4615486 9.78964488,7.05413175 9.45207092,7.00756982 L7.18217704,6.71655779 C6.91444597,6.68163634 6.69327682,6.91444597 6.71655779,7.17053656 L7.00756982,9.44043044 C7.05413175,9.7780044 7.4615486,9.91769018 7.70599871,9.67324007 L8.20653941,9.17269937 L10.010814,10.976974 C10.1039379,11.0700978 10.2552641,11.0700978 10.348388,10.976974 L10.9886145,10.3367475 C11.0817383,10.2436237 11.0817383,10.0922974 10.9886145,9.99917355 L9.18433985,8.20653941 Z" id="Path"></path>
                <path d="M7.18217704,4.34189957 L9.45207092,4.05088754 C9.78964488,4.00432561 9.92933066,3.59690876 9.68488055,3.35245865 L9.18433985,2.85191795 L10.9886145,1.04764333 C11.0817383,0.954519477 11.0817383,0.803193219 10.9886145,0.710069367 L10.348388,0.0698428886 C10.2552641,-0.0232809629 10.1039379,-0.0232809629 10.010814,0.0698428886 L8.20653941,1.87411751 L7.70599871,1.37357681 C7.4615486,1.1291267 7.05413175,1.26881248 7.00756982,1.60638644 L6.71655779,3.87628032 C6.68163634,4.14401139 6.91444597,4.37682102 7.18217704,4.34189957 Z" id="Path"></path>
                <path d="M3.87628032,6.71655779 L1.60638644,7.00756982 C1.26881248,7.05413175 1.1291267,7.4615486 1.37357681,7.70599871 L1.87411751,8.20653941 L0.0698428886,10.010814 C-0.0232809629,10.1039379 -0.0232809629,10.2552641 0.0698428886,10.348388 L0.710069367,10.9886145 C0.803193219,11.0817383 0.954519477,11.0817383 1.04764333,10.9886145 L2.85191795,9.18433985 L3.35245865,9.68488055 C3.59690876,9.92933066 4.00432561,9.78964488 4.05088754,9.45207092 L4.34189957,7.18217704 C4.37682102,6.91444597 4.14401139,6.68163634 3.87628032,6.71655779 Z" id="Path"></path>
                <circle id="Oval" cx="5.52922868" cy="5.52922868" r="1"></circle>
            </g>
        </g>
    </g>
</svg>