<svg xmlns="http://www.w3.org/2000/svg" viewBox="0 0 23.58 23.58"><defs><style>.cls-1{fill:#f6e81d;}</style></defs><g id="Ebene_2" data-name="Ebene 2"><g id="Ebene_1-2" data-name="Ebene 1"><circle cx="11.79" cy="11.79" r="11.79"/><path class="cls-1" d="M11.79,21.34a9.55,9.55,0,1,1,9.55-9.55A9.56,9.56,0,0,1,11.79,21.34Zm0-17.83a8.28,8.28,0,1,0,8.28,8.28A8.28,8.28,0,0,0,11.79,3.51Z"/><path class="cls-1" d="M9.41,8.76a2.69,2.69,0,0,1,.2-.7,3.54,3.54,0,0,1,1.94-2,3.37,3.37,0,0,1,1.88-.21,3.47,3.47,0,0,1,2.49,1.67,3.51,3.51,0,0,1,.5,1.73L16.51,13l.06,2.59,0,.77c0,.06,0,.08-.09.08H15.4c-.08,0-.08,0-.08-.1l0-1.19c0-1.3-.07-2.61-.1-3.91,0-.66,0-1.32,0-2a2.26,2.26,0,0,0-4.37-.71.94.94,0,0,0,0,.16s0,.06-.09,0a3.12,3.12,0,0,0-1.14,0Z"/><path class="cls-1" d="M12.7,10.92H7.3a2.85,2.85,0,0,1,5.4,0Z"/><path class="cls-1" d="M10,11.82H7.31a.33.33,0,1,1,0-.65H12.7a.33.33,0,0,1,.35.39.32.32,0,0,1-.25.25H10Z"/><path class="cls-1" d="M7.94,16a.77.77,0,0,1,.16-.42,3.83,3.83,0,0,1,.29-.28s.06,0,.08,0a1.13,1.13,0,0,1,.43.58.47.47,0,0,1-.16.51.46.46,0,0,1-.51.07A.51.51,0,0,1,7.94,16Z"/><path class="cls-1" d="M12.66,15.91a.72.72,0,0,1,.2-.4,2.39,2.39,0,0,1,.23-.22.12.12,0,0,1,.1,0,1.24,1.24,0,0,1,.38.44.49.49,0,1,1-.91.19Z"/><path class="cls-1" d="M8.9,12.88a.51.51,0,0,1-.3.45.46.46,0,0,1-.53-.1A.46.46,0,0,1,8,12.7a1.17,1.17,0,0,1,.41-.52s.07,0,.09,0a1.06,1.06,0,0,1,.42.56A.7.7,0,0,1,8.9,12.88Z"/><path class="cls-1" d="M11.55,13.37a.5.5,0,0,1-.46-.67,1.27,1.27,0,0,1,.42-.53.08.08,0,0,1,.08,0,1.19,1.19,0,0,1,.42.54A.49.49,0,0,1,11.55,13.37Z"/><path class="cls-1" d="M10.77,14.92a.49.49,0,0,1-.44-.69,1.16,1.16,0,0,1,.4-.5.08.08,0,0,1,.08,0,1.08,1.08,0,0,1,.44.59A.49.49,0,0,1,10.77,14.92Z"/><path class="cls-1" d="M7.35,16a.48.48,0,0,1-.3.45.48.48,0,0,1-.53-.09.51.51,0,0,1-.12-.54,1.19,1.19,0,0,1,.42-.52s.07,0,.08,0a1.1,1.1,0,0,1,.41.52A1.16,1.16,0,0,1,7.35,16Z"/><path class="cls-1" d="M10,16.47a.49.49,0,0,1-.47-.64,1.16,1.16,0,0,1,.42-.56.1.1,0,0,1,.09,0,1.21,1.21,0,0,1,.42.53A.5.5,0,0,1,10,16.47Z"/><path class="cls-1" d="M9.7,14.43a.53.53,0,0,1-.41.49.51.51,0,0,1-.55-.33.54.54,0,0,1,.07-.48c.1-.13.23-.25.34-.38s.08,0,.1,0a1.08,1.08,0,0,1,.41.53A.85.85,0,0,1,9.7,14.43Z"/><path class="cls-1" d="M12.07,16a.51.51,0,0,1-.3.46.48.48,0,0,1-.53-.1.49.49,0,0,1-.11-.55,1.16,1.16,0,0,1,.4-.5s.07,0,.09,0a1.05,1.05,0,0,1,.42.55Z"/><path class="cls-1" d="M10,13.37a.49.49,0,0,1-.44-.71,1.12,1.12,0,0,1,.41-.48s.06,0,.07,0a1.07,1.07,0,0,1,.45.63A.49.49,0,0,1,10,13.37Z"/><path class="cls-1" d="M11.86,14.42a.75.75,0,0,1,.23-.49,1.19,1.19,0,0,1,.2-.19s.08,0,.1,0a1.19,1.19,0,0,1,.42.54.49.49,0,0,1-.29.62.49.49,0,0,1-.63-.29A1,1,0,0,1,11.86,14.42Z"/><path class="cls-1" d="M7.15,14.44a.68.68,0,0,1,.2-.48l.22-.22s.08,0,.1,0a1.23,1.23,0,0,1,.42.51.5.5,0,0,1-.32.66.49.49,0,0,1-.61-.35A.45.45,0,0,1,7.15,14.44Z"/></g></g></svg>