<?xml version="1.0" encoding="UTF-8"?>
<svg viewBox="0 0 24 24" version="1.1" xmlns="http://www.w3.org/2000/svg" xmlns:xlink="http://www.w3.org/1999/xlink">
    <g id="Page-1" stroke="none" stroke-width="1" fill="none" fill-rule="evenodd">
        <g id="Infopoint" fill-rule="nonzero">
            <circle id="Oval" fill="#000000" cx="11.79" cy="11.79" r="11.79"></circle>
            <path d="M11.79,21.34 C6.51568064,21.34 2.24,17.0643194 2.24,11.79 C2.24,6.51568064 6.51568064,2.24 11.79,2.24 C17.0643194,2.24 21.34,6.51568064 21.34,11.79 C21.3344882,17.0620346 17.0620346,21.3344882 11.79,21.34 Z M11.79,3.51 C7.21708227,3.51 3.51,7.21708227 3.51,11.79 C3.51,16.3629177 7.21708227,20.07 11.79,20.07 C16.3629177,20.07 20.07,16.3629177 20.07,11.79 C20.07,9.59400746 19.1976454,7.48795707 17.6448441,5.93515585 C16.0920429,4.38235464 13.9859925,3.51 11.79,3.51 Z" id="Shape" fill="#F6E81D"></path>
            <g id="Group" transform="translate(6.4203, 6.4401)" fill="#F6E81D">
                <path d="M7.73905443,6.71841822 L7.73905443,6.71117174 L7.73905443,6.71168931 C7.73905443,6.70237256 7.73957213,6.69357311 7.74112497,6.68477472 C7.75199456,6.07141834 8.16193709,5.53724745 8.75148217,5.36799772 L8.75148217,4.02014809 L6.91508342,4.02014809 L6.91508342,4.32553435 C6.91508342,4.43992401 6.82243268,4.53257476 6.70804301,4.53257476 C6.59365335,4.53257476 6.50100261,4.43992401 6.50100261,4.32553435 L6.50100261,4.02014809 L-8.8817842e-16,4.02014809 L-8.8817842e-16,5.36799772 C0.600410562,5.54346198 1.01294106,6.09419609 1.01294106,6.719425 C1.01294106,7.34521044 0.600410562,7.89541453 -8.8817842e-16,8.07085229 L-8.8817842e-16,9.41870192 L6.50100261,9.41870192 L6.50100261,9.11331566 C6.50100261,8.998926 6.59365335,8.90627525 6.70804301,8.90627525 C6.82243268,8.90627525 6.91508342,8.998926 6.91508342,9.11331566 L6.91508342,9.41870192 L8.75148217,9.41870192 L8.75148217,8.07085229 C8.14899126,7.89797189 7.73542722,7.34517069 7.73905788,6.71836496 L7.73905443,6.71841822 Z M5.68680364,8.06414776 L5.68628607,8.06414776 C5.68628607,8.11901314 5.66454716,8.17180877 5.62572692,8.21063299 C5.58690668,8.24945323 5.53411104,8.27119214 5.47924169,8.27119214 L2.21893495,8.27119214 C2.10454529,8.27119214 2.01189454,8.1785414 2.01189454,8.06415173 L2.01189454,5.37468025 C2.01189454,5.26029059 2.10454529,5.16763984 2.21893495,5.16763984 L5.47924169,5.16763984 C5.53410706,5.16763984 5.5869027,5.18937875 5.62572692,5.228199 C5.66454716,5.26701924 5.68628607,5.31981487 5.68628607,5.37468423 L5.68680364,8.06414776 Z M6.91661705,8.4606318 L6.91609948,8.4611495 C6.91609948,8.57553916 6.82344873,8.66818991 6.70905907,8.66818991 C6.59466941,8.66818991 6.50201866,8.57553916 6.50201866,8.4611495 L6.50201866,7.7354679 C6.50201866,7.62107824 6.59466941,7.52842749 6.70905907,7.52842749 C6.82344873,7.52842749 6.91609948,7.62107824 6.91609948,7.7354679 L6.91661705,8.4606318 Z M6.91661705,7.0817758 L6.91609948,7.0822935 C6.91609948,7.19668316 6.82344873,7.28933391 6.70905907,7.28933391 C6.59466941,7.28933391 6.50201866,7.19668316 6.50201866,7.0822935 L6.50201866,6.3566119 C6.50201866,6.24222223 6.59466941,6.14957149 6.70905907,6.14957149 C6.82344873,6.14957149 6.91609948,6.24222223 6.91609948,6.3566119 L6.91661705,7.0817758 Z M6.91661705,5.7029198 L6.91609948,5.7034375 C6.91609948,5.81782716 6.82344873,5.91047791 6.70905907,5.91047791 C6.59466941,5.91047791 6.50201866,5.81782716 6.50201866,5.7034375 L6.50201866,4.97775589 C6.50201866,4.86336623 6.59466941,4.77071548 6.70905907,4.77071548 C6.82344873,4.77071548 6.91609948,4.86336623 6.91609948,4.97775589 L6.91661705,5.7029198 Z" id="Shape"></path>
                <polygon id="Path" points="2.42583437 5.58178294 5.27259032 5.58178294 5.27259032 7.85770363 2.42583437 7.85770363"></polygon>
                <polygon id="Path" points="6.34045506 2.9927509 4.87825287 3.60610728 6.59725142 3.60610728"></polygon>
                <path d="M9.40677321,2.94001357 C9.17127054,2.31267781 9.40211484,1.60567954 9.96215828,1.23810827 L9.44300031,0 L7.42851369,0.843691325 L7.54652739,1.12526628 C7.5687844,1.17599085 7.56930117,1.23344539 7.54859766,1.28520086 C7.52789362,1.33644352 7.48752041,1.37733351 7.43679584,1.39855565 C7.38555317,1.42029456 7.32809996,1.42029456 7.27737804,1.39907322 C7.22613537,1.37785108 7.18576216,1.33696109 7.16454135,1.28571843 L7.04652897,1.00414347 L0.83531669,3.60669111 L3.80848322,3.60617341 L6.37167662,2.53111359 C6.42240119,2.50989146 6.47933763,2.50937468 6.53006088,2.53007846 C6.58130354,2.5513006 6.62167675,2.59115571 6.64289757,2.64188028 L7.04662968,3.60616519 L8.13773595,3.60616519 L7.94932586,3.15844113 C7.92603398,3.10719847 7.92448102,3.04922715 7.94518506,2.99694299 C7.965371,2.94466545 8.00626231,2.90325737 8.05802175,2.88151846 C8.10926442,2.85977954 8.16775383,2.86029632 8.21898987,2.88203616 C8.27074931,2.90429317 8.31112252,2.94621935 8.33130979,2.99849688 L8.5859728,3.60615552 L8.95864554,3.60615552 C9.01351092,3.60615552 9.06578846,3.62841253 9.104614,3.66723277 C9.14343954,3.70605301 9.16569125,3.75833055 9.16569125,3.81320123 L9.16569125,5.53418736 C9.16569125,5.6361546 9.0911567,5.72259745 8.99074376,5.73864391 C8.63773489,5.79195632 8.34167705,6.03211789 8.21588923,6.36597966 L11.5285358,4.97771574 L11.0109414,3.74013749 C10.3551434,3.8804082 9.68950018,3.54811 9.40695793,2.93992134 L9.40677321,2.94001357 Z M7.9688196,2.66775377 C7.94345665,2.67810579 7.91602396,2.68379891 7.88859127,2.68379891 C7.80525701,2.68379891 7.72969024,2.63359111 7.69759732,2.55646872 L7.41705591,1.88669134 C7.3942808,1.83596677 7.39324593,1.77799546 7.41343267,1.72623999 C7.43413671,1.67448055 7.47450992,1.63307247 7.52626936,1.61133224 C7.57751203,1.5901101 7.63548335,1.5901101 7.68672071,1.6118498 C7.73796338,1.63358872 7.77833659,1.6749968 7.79904063,1.72675756 L8.07958204,2.39653494 C8.12357796,2.50212621 8.0738884,2.62323922 7.96881509,2.66776119 L7.9688196,2.66775377 Z" id="Shape"></path>
            </g>
        </g>
    </g>
</svg>