<svg xmlns="http://www.w3.org/2000/svg" viewBox="0 0 23.58 23.58"><defs><style>.cls-1{fill:#f6e81d;}</style></defs><g id="Ebene_2" data-name="Ebene 2"><g id="Ebene_1-2" data-name="Ebene 1"><circle cx="11.79" cy="11.79" r="11.79"/><path class="cls-1" d="M11.79,21.34a9.55,9.55,0,1,1,9.55-9.55A9.56,9.56,0,0,1,11.79,21.34Zm0-17.83a8.28,8.28,0,1,0,8.28,8.28A8.28,8.28,0,0,0,11.79,3.51Z"/><path class="cls-1" d="M14.54,14.11c0,.71.05,1.41.06,2.12a.67.67,0,0,1-.88.71.7.7,0,0,1-.43-.67c0-.41,0-.82,0-1.23,0-1,0-2,0-3.08a.28.28,0,0,0-.14-.25,2.24,2.24,0,0,1-.82-1.18,4,4,0,0,1,.27-3.08,1.4,1.4,0,0,1,1.63-.82,1.62,1.62,0,0,1,1.07.84,3.79,3.79,0,0,1,.48,2.14,2.69,2.69,0,0,1-.53,1.62,3.08,3.08,0,0,1-.63.5c-.08,0-.14.08-.13.2l.06,2.18Z"/><path class="cls-1" d="M8.87,11.39c-.12,0-.25-.07-.36-.12a1.24,1.24,0,0,1-.69-1.18c0-.91,0-1.81,0-2.71,0-.16,0-.31,0-.46a.38.38,0,0,1,.41-.34c.2,0,.31.15.31.39,0,.66,0,1.31,0,2v.12a.23.23,0,0,0,.22.26.24.24,0,0,0,.25-.25c0-.24,0-.48,0-.71,0-.47,0-.93,0-1.39,0-.26.1-.38.3-.38s.34.14.34.4l0,2c0,.15,0,.28.19.33A.29.29,0,0,0,10.28,9l0-2a.33.33,0,0,1,.49-.32A.3.3,0,0,1,11,7V9.39a7,7,0,0,1,0,.79,1.34,1.34,0,0,1-1.05,1.21c0,.17,0,.35,0,.53l.15,4.33a.71.71,0,0,1-.89.72.63.63,0,0,1-.5-.65c0-.88.07-1.76.11-2.63S8.84,12.17,8.87,11.39Z"/></g></g></svg>