<?xml version="1.0" encoding="UTF-8"?>
<svg viewBox="0 0 24 24" version="1.1" xmlns="http://www.w3.org/2000/svg" xmlns:xlink="http://www.w3.org/1999/xlink">
    <g id="Page-1" stroke="none" stroke-width="1" fill="none" fill-rule="evenodd">
        <g id="Infopoint" fill-rule="nonzero">
            <circle id="Oval" fill="#000000" cx="11.79" cy="11.79" r="11.79"></circle>
            <path d="M11.79,21.34 C6.51568064,21.34 2.24,17.0643194 2.24,11.79 C2.24,6.51568064 6.51568064,2.24 11.79,2.24 C17.0643194,2.24 21.34,6.51568064 21.34,11.79 C21.3344882,17.0620346 17.0620346,21.3344882 11.79,21.34 Z M11.79,3.51 C7.21708227,3.51 3.51,7.21708227 3.51,11.79 C3.51,16.3629177 7.21708227,20.07 11.79,20.07 C16.3629177,20.07 20.07,16.3629177 20.07,11.79 C20.07,9.59400746 19.1976454,7.48795707 17.6448441,5.93515585 C16.0920429,4.38235464 13.9859925,3.51 11.79,3.51 Z" id="Shape" fill="#F6E81D"></path>
            <path d="M16.5201728,7.05096012 L7.05982725,7.05096012 C6.8422393,7.05096012 6.66564619,7.22755324 6.66564619,7.44514119 C6.66564619,7.66272913 6.8422393,7.83932225 7.05982725,7.83932225 L7.585402,7.83932225 L7.585402,16.3799119 C7.585402,16.960672 8.0557914,17.4310614 8.6365515,17.4310614 C8.88672508,17.4310614 9.1132478,17.340137 9.29351994,17.1945528 L9.29351994,7.83932225 L10.0818821,7.83932225 L10.0818821,17.1945528 C10.2621542,17.340137 10.4886769,17.4310614 10.7388505,17.4310614 C10.9890241,17.4310614 11.2155468,17.340137 11.3958189,17.1945528 L11.3958189,7.83932225 L12.1841811,7.83932225 L12.1841811,17.1945528 C12.3644532,17.340137 12.5909759,17.4310614 12.8411495,17.4310614 C13.0913231,17.4310614 13.3178458,17.340137 13.4981179,17.1945528 L13.4981179,7.83932225 L14.2864801,7.83932225 L14.2864801,17.1945528 C14.4667522,17.340137 14.6932749,17.4310614 14.9434485,17.4310614 C15.5242086,17.4310614 15.994598,16.960672 15.994598,16.3799119 L15.994598,7.83932225 L16.5201728,7.83932225 C16.7377607,7.83932225 16.9143538,7.66272913 16.9143538,7.44514119 C16.9143538,7.22755324 16.7377607,7.05096012 16.5201728,7.05096012 Z" id="Path" fill="#F6E81D"></path>
        </g>
    </g>
</svg>