
<svg xmlns="http://www.w3.org/2000/svg" viewBox="0 0 23.58 23.58"><defs><style>.cls-1{fill:#f6e81d;}</style></defs><g id="Ebene_2" data-name="Ebene 2"><g id="Ebene_1-2" data-name="Ebene 1"><circle cx="11.79" cy="11.79" r="11.79"/><path class="cls-1" d="M11.79,21.34a9.55,9.55,0,1,1,9.55-9.55A9.56,9.56,0,0,1,11.79,21.34Zm0-17.83a8.28,8.28,0,1,0,8.28,8.28A8.28,8.28,0,0,0,11.79,3.51Z"/><path class="cls-1" d="M12.53,14.7a.3.3,0,0,0,.18-.09l.57-.5.34.06.29.69c-.5.56-.92,1-1.27,1.34a4.36,4.36,0,0,1-1,.7,1.86,1.86,0,0,1-.83.21.85.85,0,0,1-1-1c.15-.86.27-1.59.37-2.19l.21-1.41c0-.35.08-.55.08-.62a.46.46,0,0,0-.12-.36.49.49,0,0,0-.36-.12H9.67l.17-1.19.9,0c.35,0,.73,0,1.13-.07l1.21-.08.23.29c-.11.4-.21.86-.32,1.37l-.3,1.52c-.09.51-.16,1-.22,1.4ZM11.9,9.35a1.24,1.24,0,0,1-.89-.3,1.15,1.15,0,0,1-.31-.86,1.69,1.69,0,0,1,.46-1.25,1.58,1.58,0,0,1,1.21-.47,1.17,1.17,0,0,1,.88.31,1.15,1.15,0,0,1,.31.86,1.68,1.68,0,0,1-.46,1.24A1.6,1.6,0,0,1,11.9,9.35Z"/></g></g></svg>