<svg xmlns="http://www.w3.org/2000/svg" viewBox="0 0 23.58 23.58"><defs><style>.cls-1{fill:#f6e81d;}</style></defs><g id="Ebene_2" data-name="Ebene 2"><g id="Ebene_1-2" data-name="Ebene 1"><circle cx="11.79" cy="11.79" r="11.79"/><path class="cls-1" d="M11.79,21.34a9.55,9.55,0,1,1,9.55-9.55A9.56,9.56,0,0,1,11.79,21.34Zm0-17.83a8.28,8.28,0,1,0,8.28,8.28A8.28,8.28,0,0,0,11.79,3.51Z"/><path class="cls-1" d="M20,13.49a2.4,2.4,0,0,0-2.74-.29A9.48,9.48,0,0,0,14.83,15a13.28,13.28,0,0,0-1.95,2.28A4.17,4.17,0,0,1,11,19.06a2.76,2.76,0,0,1-2.33-.23l.12-.47.53.3L9.68,18l.38.18.36-.41,2.79-4.28,1.18-1.81a3.21,3.21,0,0,0-1-6.34h0a3.22,3.22,0,0,0-2.3,1.5,3.17,3.17,0,0,0-.31,2.67c0,.07,0,.1,0,.11a1.45,1.45,0,0,0-.12.22L7.55,16l-.23.61.38.22-.38.66.69.4-.25,1a.43.43,0,0,0,.19.47,3.53,3.53,0,0,0,2.51.66,3.61,3.61,0,0,0,2.38-1.34c.61-.74,1.09-1.57,1.73-2.29a12.35,12.35,0,0,1,2.21-1.94c.72-.49,1.9-1.16,2.67-.38C19.82,14.46,20.41,13.87,20,13.49Z"/></g></g></svg>