<?xml version="1.0" encoding="UTF-8"?>
<svg viewBox="0 0 22 27" version="1.1" xmlns="http://www.w3.org/2000/svg" xmlns:xlink="http://www.w3.org/1999/xlink">
    <title>Loeschhalle</title>
    <g id="Page-1" stroke="none" stroke-width="1" fill="none" fill-rule="evenodd">
        <g id="Loeschhalle" transform="translate(1.7039, 1.7498)" fill-rule="nonzero">
            <path d="M8.66267288,-0.744486205 C9.89528697,-0.683888369 10.5271602,-0.429609628 11.0892943,-0.0173642645 C13.0165727,1.44023475 14.4564151,3.44374277 15.224833,5.72762331 C15.5046433,5.91724255 15.7586407,6.14473107 15.980995,6.40608198 C16.3310935,6.82182398 16.4719857,6.99785471 16.5945149,7.171627 C17.999331,9.10114627 18.9454526,11.3257263 19.3627523,13.6874752 C19.7531883,16.0545944 19.117788,18.4760169 17.6153873,20.3464407 C16.1130062,22.2168403 13.8856362,23.3595158 11.4865817,23.4889419 C10.7791232,23.5247127 10.0820362,23.3608657 9.47135223,23.0246494 C8.89132587,23.3872179 8.2173996,23.5859513 7.52219372,23.5901991 C4.639525,23.4334901 2.34939487,22.1827202 0.847806138,20.1925075 C-0.694495735,17.911583 -1.13954938,15.1210755 -0.40122515,12.5248082 C-0.173825023,11.5629514 0.421723638,10.7344193 1.24878119,10.2114955 C1.59828684,9.39034482 2.07436015,8.62897687 2.65571005,7.96073187 C3.07647682,7.46812687 3.68171365,6.81108271 4.30565806,6.16671327 C4.90944286,5.59562978 5.20406446,4.81022576 5.12608373,4.01514435 L5.12608373,2.99029204 C5.12603136,2.2856347 5.32403958,1.61087743 5.6791922,1.03263766 C6.03434483,0.454397886 6.54664188,-0.0273243981 7.17516718,-0.345911764 C7.64659694,-0.58487043 8.15339599,-0.716809196 8.66267288,-0.744486205 Z" id="Path" stroke="#FFFFFF" stroke-width="1.5" fill="#E52320"></path>
            <path d="M7.51608373,19.8502177 C4.09608373,19.4902177 2.42608373,17.0402177 3.23608373,13.3802177 C3.51925287,14.5571296 4.37646169,15.5120903 5.51608373,15.9202177 C5.41608373,15.7502177 5.31608373,15.5802177 5.20608373,15.4102177 C4.06430625,13.8961307 4.19145886,11.7769206 5.50608373,10.4102177 C5.95608373,9.88021772 6.42608373,9.35021772 6.93608373,8.85021772 C8.28091725,7.55926736 8.98721939,5.74044786 8.86608373,3.88021772 C8.86608373,3.60021772 8.86608373,3.32021772 8.86608373,2.99021772 C11.7460312,5.22423306 12.8907103,9.03983016 11.7160837,12.4902177 C13.0360837,12.2302177 13.5360837,10.9902177 13.1260837,8.81021772 C13.3160837,9.04021772 13.4360837,9.16021772 13.5360837,9.30021772 C14.6207195,10.7833771 15.3557348,12.492715 15.6860837,14.3002177 C15.9008885,15.6191416 15.5453365,16.9672279 14.7079996,18.0086538 C13.8706626,19.0500797 12.630367,19.6868062 11.2960837,19.7602177 C12.0260837,19.1702177 12.6360837,18.5502177 12.4260837,17.6402177 C12.2039446,16.8305203 11.9402622,16.0327976 11.6360837,15.2502177 C11.3860837,15.8702177 11.2160837,16.3102177 11.0360837,16.7402177 L10.8560837,16.6602177 C11.2100936,15.2174 10.7091735,13.6991075 9.56608373,12.7502177 C9.61055043,13.9501512 9.08376663,15.1001722 8.14608373,15.8502177 C7.52558306,16.5078617 7.45447964,17.5116747 7.97608373,18.2502177 L7.19608373,17.5102177 L7.00608373,17.5102177 L7.51608373,19.8702177" id="Path" fill="#000000"></path>
            <path d="M7.51608373,19.8502177 C4.09608373,19.4902177 2.42608373,17.0402177 3.23608373,13.3802177 C3.51925287,14.5571296 4.37646169,15.5120903 5.51608373,15.9202177 C5.41608373,15.7502177 5.31608373,15.5802177 5.20608373,15.4102177 C4.06430625,13.8961307 4.19145886,11.7769206 5.50608373,10.4102177 C5.95608373,9.88021772 6.42608373,9.35021772 6.93608373,8.85021772 C8.28091725,7.55926736 8.98721939,5.74044786 8.86608373,3.88021772 C8.86608373,3.60021772 8.86608373,3.32021772 8.86608373,2.99021772 C11.7460312,5.22423306 12.8907103,9.03983016 11.7160837,12.4902177 C13.0360837,12.2302177 13.5360837,10.9902177 13.1260837,8.81021772 C13.3160837,9.04021772 13.4360837,9.16021772 13.5360837,9.30021772 C14.6207195,10.7833771 15.3557348,12.492715 15.6860837,14.3002177 C15.9008885,15.6191416 15.5453365,16.9672279 14.7079996,18.0086538 C13.8706626,19.0500797 12.630367,19.6868062 11.2960837,19.7602177 C12.0260837,19.1702177 12.6360837,18.5502177 12.4260837,17.6402177 C12.2039446,16.8305203 11.9402622,16.0327976 11.6360837,15.2502177 C11.3860837,15.8702177 11.2160837,16.3102177 11.0360837,16.7402177 L10.8560837,16.6602177 C11.2100936,15.2174 10.7091735,13.6991075 9.56608373,12.7502177 C9.61055043,13.9501512 9.08376663,15.1001722 8.14608373,15.8502177 C7.52558306,16.5078617 7.45447964,17.5116747 7.97608373,18.2502177 L7.19608373,17.5102177 L7.00608373,17.5102177 L7.51608373,19.8702177" id="Path" fill="#000000"></path>
        </g>
    </g>
</svg>