<?xml version="1.0" encoding="UTF-8"?>
<svg viewBox="0 0 24 24" version="1.1" xmlns="http://www.w3.org/2000/svg" xmlns:xlink="http://www.w3.org/1999/xlink">
    <g id="Page-1" stroke="none" stroke-width="1" fill="none" fill-rule="evenodd">
        <g id="Infopoint" fill-rule="nonzero">
            <circle id="Oval" fill="#000000" cx="11.79" cy="11.79" r="11.79"></circle>
            <path d="M11.79,21.34 C6.51568064,21.34 2.24,17.0643194 2.24,11.79 C2.24,6.51568064 6.51568064,2.24 11.79,2.24 C17.0643194,2.24 21.34,6.51568064 21.34,11.79 C21.3344882,17.0620346 17.0620346,21.3344882 11.79,21.34 Z M11.79,3.51 C7.21708227,3.51 3.51,7.21708227 3.51,11.79 C3.51,16.3629177 7.21708227,20.07 11.79,20.07 C16.3629177,20.07 20.07,16.3629177 20.07,11.79 C20.07,9.59400746 19.1976454,7.48795707 17.6448441,5.93515585 C16.0920429,4.38235464 13.9859925,3.51 11.79,3.51 Z" id="Shape" fill="#F6E81D"></path>
            <path d="M17.9004801,11.1787409 C17.8939139,10.5406226 17.7518446,9.91145914 17.483819,9.3330603 L17.6097709,8.24903239 C17.6264841,8.10159188 17.57097,7.95474428 17.4617329,7.85446811 C17.3518982,7.75537777 17.2020723,7.71299649 17.0570218,7.74105151 L16.0589667,7.94400302 L16.0583698,7.94400302 C15.9747992,7.96071776 15.8876467,7.95534468 15.8064722,7.92788579 C14.7636427,7.60077336 13.4522284,7.41333241 11.7969534,7.35841126 L11.7826271,7.35841126 C10.1279633,7.41332935 8.8165184,7.60075808 7.77310829,7.92788579 C7.69252365,7.95534484 7.60657221,7.96071623 7.52299855,7.94400302 L6.52494346,7.74045553 C6.37929393,7.71120552 6.22827147,7.75299097 6.11842917,7.85387213 C6.00919202,7.95415595 5.95487296,8.10100202 5.97158464,8.24843641 L6.09574555,9.33246433 C5.82772607,9.9114897 5.68565542,10.5406379 5.67908445,11.1787562 C5.67729363,11.5852705 5.67729363,11.9929615 5.67908445,12.4012637 C5.68565069,13.039382 5.82771996,13.6685454 6.09574555,14.2469443 L5.97158464,15.3309722 C5.9548699,15.4784127 6.00978799,15.6246643 6.11962265,15.7249405 C6.2288598,15.8246268 6.37928323,15.8664121 6.52492971,15.8371636 L7.52298479,15.636 C7.6059579,15.6186893 7.69251601,15.6234646 7.77309453,15.6503263 C8.81592395,15.9768427 10.1273383,16.1648797 11.7826133,16.2215887 L11.7969396,16.2215887 C13.4516034,16.1648812 14.7630483,15.9768427 15.8064584,15.6503263 C15.8876405,15.6240607 15.9747977,15.6192868 16.0583561,15.636 L17.0564112,15.8371636 L17.057008,15.8371636 C17.2020616,15.8658162 17.3518921,15.8234343 17.4611232,15.723747 C17.5703603,15.6240607 17.6252753,15.4778091 17.6097587,15.3309707 L17.4838068,14.2469428 C17.7518263,13.6685134 17.8938969,13.0393652 17.9004679,12.4012621 C17.9028556,11.992364 17.9028556,11.5846577 17.9004679,11.1787547 L17.9004801,11.1787409 Z" id="Path" fill="#F6E81D"></path>
        </g>
    </g>
</svg>