<svg xmlns="http://www.w3.org/2000/svg" viewBox="0 0 23.58 23.58"><defs><style>.cls-1{fill:#f6e81d;}</style></defs><g id="Ebene_2" data-name="Ebene 2"><g id="Ebene_1-2" data-name="Ebene 1"><circle cx="11.79" cy="11.79" r="11.79"/><path class="cls-1" d="M11.79,21.34a9.55,9.55,0,1,1,9.55-9.55A9.56,9.56,0,0,1,11.79,21.34Zm0-17.83a8.28,8.28,0,1,0,8.28,8.28A8.28,8.28,0,0,0,11.79,3.51Z"/><path class="cls-1" d="M17.76,14.34a1.89,1.89,0,0,1-.05.23,1.05,1.05,0,0,1-.83.74,1.5,1.5,0,0,1-.37,0H7A1.2,1.2,0,0,1,6.1,15a1.09,1.09,0,0,1-.27-.89,1.2,1.2,0,0,1,.3-.7,1.94,1.94,0,0,1,.33-.23l4.93-2.91a.08.08,0,0,0,0-.08V9.94a.31.31,0,0,0-.13-.28L11,9.42a1.35,1.35,0,0,1-.57-1,1.65,1.65,0,0,1,.74-1.46,1.38,1.38,0,0,1,.53-.17H12l.25,0A1.45,1.45,0,0,1,13.33,7.9a.86.86,0,0,1,0,.39.45.45,0,0,1-.42.35.33.33,0,0,1-.33-.23,1.1,1.1,0,0,1-.06-.26A.63.63,0,0,0,12,7.6a.68.68,0,0,0-.64.25.7.7,0,0,0,.25,1,1.09,1.09,0,0,1,.52.45.7.7,0,0,1,.1.38v.45a.07.07,0,0,0,0,.08l4.94,2.94a1.1,1.1,0,0,1,.54.69l0,.1Zm-6,.17H16.6a.35.35,0,0,0,.28-.29.36.36,0,0,0-.18-.35l-1.7-1L11.85,11a.09.09,0,0,0-.12,0l-.64.37-3.41,2-.84.49a.29.29,0,0,0-.16.26.35.35,0,0,0,.35.36Z"/></g></g></svg>