<svg xmlns="http://www.w3.org/2000/svg" viewBox="0 0 23.58 23.58"><defs><style>.cls-1{fill:#f6e81d;}</style></defs><g id="Ebene_2" data-name="Ebene 2"><g id="Ebene_1-2" data-name="Ebene 1"><circle cx="11.79" cy="11.79" r="11.79"/><path class="cls-1" d="M11.79,21.34a9.55,9.55,0,1,1,9.55-9.55A9.56,9.56,0,0,1,11.79,21.34Zm0-17.83a8.28,8.28,0,1,0,8.28,8.28A8.28,8.28,0,0,0,11.79,3.51Z"/><path class="cls-1" d="M13,17.89l-.14,0a.54.54,0,0,1-.41-.51.37.37,0,0,1,0-.11V9.44a.09.09,0,0,0,0,0l0,0-.67,1a.47.47,0,0,1-.41.22H9.45a.42.42,0,0,1-.4-.24.48.48,0,0,1,0-.49.43.43,0,0,1,.33-.18h1.65a.07.07,0,0,0,.06,0L12,8.34A1.38,1.38,0,0,1,12.38,8,1.16,1.16,0,0,1,13,7.77h1.92a1.24,1.24,0,0,1,1.2,1,2,2,0,0,1,0,.35v3.08a.52.52,0,0,1-.1.34.45.45,0,0,1-.44.16.43.43,0,0,1-.35-.32.69.69,0,0,1,0-.2V9.35H15v7.93a.7.7,0,0,1-.07.31.54.54,0,0,1-.42.29h-.18a.57.57,0,0,1-.45-.31.69.69,0,0,1-.06-.31V12.68h-.23v4.58a.49.49,0,0,1,0,.12.55.55,0,0,1-.4.48.9.9,0,0,1-.16,0Z"/><path class="cls-1" d="M7,12.65h.74l.84,4.5H9.84c0-.08,0-.15.05-.23.08-.44.17-.89.25-1.33s.17-.88.25-1.32L10.63,13c0-.11,0-.22.07-.33s0,0,0,0h.73l-1,5.23H7.94l0-.16-.24-1.31L7.4,15c-.07-.43-.15-.85-.23-1.28s-.12-.67-.19-1H7Z"/><path class="cls-1" d="M12.76,6.44a1,1,0,1,1,1,1A1,1,0,0,1,12.76,6.44Z"/><path class="cls-1" d="M8.73,12.55,9.27,12l.54.56-.54.54Z"/><path class="cls-1" d="M9.31,11.51l-.55.54-.55-.53L8.76,11Z"/><path class="cls-1" d="M9.42,13.48v.75H8.66v-.75Z"/></g></g></svg>