<?xml version="1.0" encoding="UTF-8"?>
<svg viewBox="0 0 24 24" version="1.1" xmlns="http://www.w3.org/2000/svg" xmlns:xlink="http://www.w3.org/1999/xlink">
    <g id="Page-1" stroke="none" stroke-width="1" fill="none" fill-rule="evenodd">
        <g id="Infopoint" fill-rule="nonzero">
            <circle id="Oval" fill="#000000" cx="11.79" cy="11.79" r="11.79"></circle>
            <path d="M11.79,21.34 C6.51568064,21.34 2.24,17.0643194 2.24,11.79 C2.24,6.51568064 6.51568064,2.24 11.79,2.24 C17.0643194,2.24 21.34,6.51568064 21.34,11.79 C21.3344882,17.0620346 17.0620346,21.3344882 11.79,21.34 Z M11.79,3.51 C7.21708227,3.51 3.51,7.21708227 3.51,11.79 C3.51,16.3629177 7.21708227,20.07 11.79,20.07 C16.3629177,20.07 20.07,16.3629177 20.07,11.79 C20.07,9.59400746 19.1976454,7.48795707 17.6448441,5.93515585 C16.0920429,4.38235464 13.9859925,3.51 11.79,3.51 Z" id="Shape" fill="#F6E81D"></path>
            <g id="Group" transform="translate(7, 7)" fill="#F6E81D">
                <path d="M5.39308416,3 L4.3,3 L4.3,5 L5.37522914,5 C5.67626473,5 5.90552315,4.93826667 6.06312344,4.76946667 C6.22108082,4.6012 6.3,4.37453333 6.3,4.06733333 C6.3,3.73013333 6.21858112,3.48493333 6.0565766,3.28333333 C5.89445304,3.08186667 5.67328889,3 5.39308416,3 Z" id="Path"></path>
                <path d="M8.61670213,0 L1.41117021,0 C0.64606383,0 0,0.643404255 0,1.4087234 L0,8.61425532 C0,9.37957447 0.64606383,10 1.41117021,10 L8.61670213,10 C9.38202128,10 10,9.37957447 10,8.6143617 L10,1.4087234 C10,0.643404255 9.38202128,0 8.61670213,0 Z M6.95393617,5.36861702 C6.55180851,5.70478723 6,5.85106383 5.29893617,5.85106383 L4.36170213,5.85106383 L4.36170213,7.87234043 L2.9787234,7.87234043 L2.9787234,2.12765957 L5.32265957,2.12765957 C5.76276596,2.12765957 6.15265957,2.19021277 6.49106383,2.35244681 C6.83,2.51446809 7.09212766,2.73595745 7.27808511,3.03510638 C7.46351064,3.3343617 7.55659579,3.65808511 7.55659579,4.03776596 C7.55670213,4.59925532 7.35585106,5.03276596 6.95393617,5.36861702 Z" id="Shape"></path>
            </g>
        </g>
    </g>
</svg>