<svg xmlns="http://www.w3.org/2000/svg" viewBox="0 0 23.58 23.58"><defs><style>.cls-1{fill:#f6e81d;}</style></defs><g id="Ebene_2" data-name="Ebene 2"><g id="Ebene_1-2" data-name="Ebene 1"><circle cx="11.79" cy="11.79" r="11.79"/><path class="cls-1" d="M11.79,21.34a9.55,9.55,0,1,1,9.55-9.55A9.56,9.56,0,0,1,11.79,21.34Zm0-17.83a8.28,8.28,0,1,0,8.28,8.28A8.28,8.28,0,0,0,11.79,3.51Z"/><path class="cls-1" d="M13.85,10.6a8.51,8.51,0,0,0,.37-1.95l2.16.54c0,.18,0,.37-.07.55A5,5,0,0,1,14.36,13a4.67,4.67,0,0,1-3.25.93,4,4,0,0,1-2.54-1.08,4.45,4.45,0,0,1-1.25-2.31A5.48,5.48,0,0,1,7.2,9.2.16.16,0,0,1,7.33,9c.27-.07.53-.16.78-.24,0,.4,0,.81.07,1.21a2.71,2.71,0,0,0,.41,1.14,2.6,2.6,0,0,1,.57-2A2.57,2.57,0,0,1,11,8.16,2.59,2.59,0,0,1,13.85,10.6Zm-2.66,1.89a1.73,1.73,0,0,0,0-3.46,1.73,1.73,0,0,0,0,3.46Z"/><path class="cls-1" d="M9,15.35l.61-.56a3.31,3.31,0,0,0,.32-.33.73.73,0,0,1,.73-.3c.25,0,.5,0,.79,0l-.62.64-.55.54a.21.21,0,0,1-.12.07H9Z"/><path class="cls-1" d="M11.71,14.16h1.17a.15.15,0,0,1,.09,0l1.14,1.16s0,0,0,0h-.54a1.7,1.7,0,0,1-.64,0c-.18-.07-.31-.28-.46-.43Z"/><path class="cls-1" d="M7.34,15.35l1.18-1.14.1-.05H9.78l-.2.22-.94.95s-.08.07-.12.07H7.38Z"/><path class="cls-1" d="M15.76,15.41H14.63a.24.24,0,0,1-.1-.05l-1.12-1.14,0-.06h1.2c.23.24.46.47.7.7l.53.48Z"/></g></g></svg>