<?xml version="1.0" encoding="UTF-8"?>
<svg viewBox="0 0 29 29" version="1.1" xmlns="http://www.w3.org/2000/svg" xmlns:xlink="http://www.w3.org/1999/xlink">
    <title>Radarstation</title>
    <g id="Page-1" stroke="none" stroke-width="1" fill="none" fill-rule="evenodd">
        <g id="Radarstation" transform="translate(2.75, 2.75)" fill-rule="nonzero">
            <rect id="Rectangle" stroke="#FFFFFF" stroke-width="2" fill="#68BB89" stroke-linejoin="round" x="-1" y="-1" width="25.96" height="26" rx="1"></rect>
            <path d="M1.97,2.05 L1.97,21.95 L21.97,21.95 L21.97,2.05 L1.97,2.05 Z M19.31,11.46 C19.2137246,9.86320982 18.5832688,8.345185 17.52,7.15 L18.79,5.88 C20.1883043,7.41386425 21.008637,9.38690569 21.11,11.46 L19.31,11.46 Z M11.77,10.86 L11.25,10.34 C11.4126103,10.2459253 11.5876642,10.1752305 11.77,10.13 L11.77,10.86 Z M11.17,11.46 L10.44,11.46 C10.4862947,11.276431 10.560492,11.1010556 10.66,10.94 L11.17,11.46 Z M11.17,12.3 L10.66,12.82 C10.560492,12.6589444 10.4862947,12.483569 10.44,12.3 L11.17,12.3 Z M11.77,12.9 L11.77,13.63 C11.5860685,13.5898121 11.4102568,13.5188112 11.25,13.42 L11.77,12.9 Z M12.62,12.9 L13.13,13.42 C12.9741248,13.5203163 12.8013176,13.5914722 12.62,13.63 L12.62,12.9 Z M13.21,12.3 L13.95,12.3 C13.9037053,12.483569 13.829508,12.6589444 13.73,12.82 L13.21,12.3 Z M13.21,11.46 L13.73,10.94 C13.829508,11.1010556 13.9037053,11.276431 13.95,11.46 L13.21,11.46 Z M11.77,9.25 C11.3647952,9.31604289 10.9809897,9.47710414 10.65,9.72 L9.57,8.66 C10.1968705,8.14522003 10.9626535,7.82846433 11.77,7.75 L11.77,9.25 Z M10.05,10.33 C9.80698361,10.6646519 9.6459914,11.0517183 9.58,11.46 L8.06,11.46 C8.13652849,10.6491602 8.45339337,9.87963117 8.97,9.25 L10.05,10.33 Z M9.58,12.33 C9.6459914,12.7382817 9.80698361,13.1253481 10.05,13.46 L8.97,14.5 C8.45522003,13.8731295 8.13846433,13.1073465 8.06,12.3 L9.58,12.33 Z M10.65,14.06 C10.9817459,14.2996691 11.3655664,14.4573097 11.77,14.52 L11.77,16.05 C10.9628931,15.9634528 10.1984477,15.6437756 9.57,15.13 L10.65,14.06 Z M12.65,14.52 C13.0539284,14.4555044 13.4373446,14.2980299 13.77,14.06 L14.85,15.13 C14.2206581,15.6422845 13.4566734,15.961769 12.65,16.05 L12.65,14.52 Z M14.37,13.46 C14.6130164,13.1253481 14.7740086,12.7382817 14.84,12.33 L16.36,12.33 C16.2734528,13.1371069 15.9537756,13.9015523 15.44,14.53 L14.37,13.46 Z M14.84,11.46 C14.7740086,11.0517183 14.6130164,10.6646519 14.37,10.33 L15.41,9.25 C15.9237756,9.87844774 16.2434528,10.6428931 16.33,11.45 L14.84,11.46 Z M16.91,6.52 L17.08,6.4 L17.08,6.4 L17.08,6.4 L16.9,6.58 L16.91,6.52 Z M11.8,6.9 C10.7691322,6.9876695 9.79084315,7.39296068 9,8.06 L8.06,7.15 C9.09485762,6.24604175 10.3987698,5.70830977 11.77,5.62 L11.8,6.9 Z M8.37,8.66 C7.71739153,9.45582048 7.32626316,10.4336414 7.25,11.46 L5.93,11.46 C6.01963477,10.0872222 6.56112754,8.78271688 7.47,7.75 L8.37,8.66 Z M7.25,12.3 C7.3376695,13.3308678 7.74296068,14.3091568 8.41,15.1 L7.51,16.01 C6.59917722,14.9785004 6.05739571,13.6732995 5.97,12.3 L7.25,12.3 Z M9.01,15.7 C9.80084315,16.3670393 10.7791322,16.7723305 11.81,16.86 L11.81,18.15 C10.4387653,18.0537906 9.13628329,17.5131377 8.1,16.61 L9.01,15.7 Z M12.66,16.86 C13.6908678,16.7723305 14.6691568,16.3670393 15.46,15.7 L16.36,16.61 C15.3287502,17.5149245 14.0287688,18.0559978 12.66,18.15 L12.66,16.86 Z M16.05,15.1 C16.7234435,14.3130702 17.1296258,13.33263 17.21,12.3 L18.5,12.3 C18.4126043,13.6732995 17.8708228,14.9785004 16.96,16.01 L16.05,15.1 Z M17.21,11.46 C17.1276003,10.4278565 16.7216673,9.44801832 16.05,8.66 L16.96,7.75 C17.8688725,8.78271688 18.4103652,10.0872222 18.5,11.46 L17.21,11.46 Z M11.81,4.77 C10.214362,4.85833478 8.69698576,5.48998677 7.51,6.56 L6.19,5.25 C7.72482923,3.85461682 9.69798753,3.03777172 11.77,2.94 L11.81,4.77 Z M5.6,5.88 L6.87,7.15 C5.80673115,8.345185 5.17627537,9.86320982 5.08,11.46 L3.25,11.46 C3.35546302,9.38213648 4.18717175,7.40727063 5.6,5.88 L5.6,5.88 Z M5.08,12.3 C5.17627537,13.8967902 5.80673115,15.414815 6.87,16.61 L5.6,17.88 C4.18571812,16.3536668 3.35377674,14.3782485 3.25,12.3 L5.08,12.3 Z M7.47,17.25 C8.65837791,18.3163796 10.1756076,18.9444421 11.77,19.03 L11.77,20.83 C9.69798753,20.7322283 7.72482923,19.9153832 6.19,18.52 L7.47,17.25 Z M12.62,19.03 C14.2133166,18.9397151 15.7290422,18.3122752 16.92,17.25 L18.19,18.52 C16.6600664,19.916838 14.6894576,20.7340922 12.62,20.83 L12.62,19.03 Z M18.79,17.92 L17.52,16.65 C18.5832688,15.454815 19.2137246,13.9367902 19.31,12.34 L21.11,12.34 C21.0011432,14.3995169 20.1811969,16.357492 18.79,17.88 L18.79,17.92 Z M21.14,8 C20.1377453,5.72788089 18.311864,3.9198654 16.03,2.94 L21.14,2.94 L21.14,8 Z M8.36,2.9 C5.67971419,4.050811 3.64974825,6.33360664 2.82,9.13 L2.82,2.9 L8.36,2.9 Z M2.82,14.63 C3.7073425,17.6518576 5.99699676,20.0606483 8.97,21.1 L2.82,21.1 L2.82,14.63 Z M15.42,21.1 C16.8054069,20.617857 18.0635688,19.8280869 19.1,18.79 C19.9429268,17.9194375 20.6206065,16.902918 21.1,15.79 L21.1,21.08 L15.42,21.1 Z" id="Shape" fill="#010101"></path>
        </g>
    </g>
</svg>