<svg xmlns="http://www.w3.org/2000/svg" viewBox="0 0 23.58 23.58"><defs><style>.cls-1{fill:#f6e81d;}</style></defs><g id="Ebene_2" data-name="Ebene 2"><g id="Ebene_1-2" data-name="Ebene 1"><circle cx="11.79" cy="11.79" r="11.79"/><path class="cls-1" d="M11.79,21.34a9.55,9.55,0,1,1,9.55-9.55A9.56,9.56,0,0,1,11.79,21.34Zm0-17.83a8.28,8.28,0,1,0,8.28,8.28A8.28,8.28,0,0,0,11.79,3.51Z"/><path class="cls-1" d="M4.48,12.53l.9-.11a1.53,1.53,0,0,0,1.54-1.59c0-.31.07-.62.12-.94,0,.33.07.65.12,1a4.54,4.54,0,0,0,.16.66,1.33,1.33,0,0,0,1.16.86c.38.07.77.11,1.14.16-.39.09-.79.17-1.18.28a1.44,1.44,0,0,0-1,1.07,14.75,14.75,0,0,0-.31,1.74c-.05.3-.05.62-.07.89,0-.58-.09-1.2-.17-1.81a2.78,2.78,0,0,0-.45-1.33,2.06,2.06,0,0,0-1.54-.75l-.42-.06Z"/><path class="cls-1" d="M8.26,8.87l.5-.07c.58-.09.79-.3.86-.88a5,5,0,0,1,.07-.52c0,.18,0,.36.06.54a2.49,2.49,0,0,0,.09.37.75.75,0,0,0,.64.47l.64.09c-.22.05-.44.09-.66.16a.81.81,0,0,0-.57.59c-.08.32-.12.64-.17,1s0,.35,0,.5c0-.32,0-.66-.09-1a1.49,1.49,0,0,0-.25-.74,1.19,1.19,0,0,0-.86-.42l-.23,0Z"/><path class="cls-1" d="M8.19,14.7l.7-.08a1.19,1.19,0,0,0,1.2-1.24c0-.24.05-.48.09-.73,0,.26.06.51.1.76a2.23,2.23,0,0,0,.12.51,1,1,0,0,0,.9.67l.89.12c-.31.07-.62.13-.92.22a1.16,1.16,0,0,0-.8.83c-.11.44-.17.9-.24,1.35,0,.24,0,.49-.05.7,0-.45-.07-.93-.13-1.41a2.08,2.08,0,0,0-.35-1,1.66,1.66,0,0,0-1.2-.59l-.33,0Z"/><path class="cls-1" d="M14.13,11.06a3.22,3.22,0,0,1,2.12-3.6,3.51,3.51,0,0,0-1.71-.11,3.59,3.59,0,0,0,1.26,7.06,3.63,3.63,0,0,0,1.57-.7A3.22,3.22,0,0,1,14.13,11.06Z"/></g></g></svg>