<?xml version="1.0" encoding="UTF-8"?>
<svg viewBox="0 0 24 24" version="1.1" xmlns="http://www.w3.org/2000/svg" xmlns:xlink="http://www.w3.org/1999/xlink">
    <g id="Page-1" stroke="none" stroke-width="1" fill="none" fill-rule="evenodd">
        <g id="Infopoint" fill-rule="nonzero">
            <circle id="Oval" fill="#000000" cx="11.79" cy="11.79" r="11.79"></circle>
            <path d="M11.79,21.34 C6.51568064,21.34 2.24,17.0643194 2.24,11.79 C2.24,6.51568064 6.51568064,2.24 11.79,2.24 C17.0643194,2.24 21.34,6.51568064 21.34,11.79 C21.3344882,17.0620346 17.0620346,21.3344882 11.79,21.34 Z M11.79,3.51 C7.21708227,3.51 3.51,7.21708227 3.51,11.79 C3.51,16.3629177 7.21708227,20.07 11.79,20.07 C16.3629177,20.07 20.07,16.3629177 20.07,11.79 C20.07,9.59400746 19.1976454,7.48795707 17.6448441,5.93515585 C16.0920429,4.38235464 13.9859925,3.51 11.79,3.51 Z" id="Shape" fill="#F6E81D"></path>
            <g id="noun-sun-lounger-4756473" transform="translate(11.79, 11.79) scale(-1, 1) translate(-11.79, -11.79)translate(4.7145, 5.484)" fill="#F6E81D">
                <path d="M13.7990009,10.8100412 L4.02572568,10.8100412 L0.935392883,8.10869913 C0.788621634,7.98070459 0.566117673,7.99572595 0.438436075,8.14187131 C0.310128587,8.28832961 0.325462897,8.51083358 0.47129531,8.63851517 L3.54097373,11.3217064 L3.54097373,12.611979 L4.24510019,12.611979 L4.24510019,11.5138547 L12.3553852,11.5138547 L12.3553852,12.611979 L13.0595117,12.611979 L13.0595117,11.5138547 L13.7990009,11.5138547 C13.9933398,11.5138547 14.1510642,11.3564433 14.1510642,11.1617915 C14.1510642,10.9671396 13.9933398,10.8100412 13.7990009,10.8100412 Z" id="Path"></path>
                <path d="M2.9175871,7.88494339 C2.22503961,7.33384708 1.62668859,8.06332209 1.62668859,8.06332209 L4.28484421,10.3869394 L13.211603,10.3869394 C13.211603,9.61177441 12.3613312,9.44340995 11.9207045,9.44340995 C11.4800778,9.44340995 4.8691127,9.44340995 4.8691127,9.44340995 C4.8691127,9.44340995 3.61013459,8.4360397 2.9175871,7.88494339 Z" id="Path"></path>
                <path d="M2.22942084,6.33899463 C2.7996068,6.07330425 3.20925193,5.65082837 3.36322091,5.23148195 C3.72623722,5.36260594 4.21411862,5.34821047 4.70794598,5.17014471 L6.54962785,9.11951178 L7.06723903,9.11951178 L5.13449014,4.97455402 C5.602656,4.70948953 5.93750725,4.33771076 6.07332542,3.96780966 C6.49329773,4.11927509 7.08006978,4.07734044 7.65025574,3.81133711 C8.54089748,3.39605898 9.04755558,2.59711015 8.78155225,2.02692419 L0.13456639,6.05922172 C0.400569719,6.62940768 1.33877911,6.75458571 2.22942084,6.33899463 Z" id="Path"></path>
                <path d="M8.60786773,1.75653963 L5.68621234,1.10968213 L3.06091595,0.528543089 L2.87753013,0.135484052 C2.82245179,0.018129642 2.68319123,-0.0328804081 2.56521093,0.0221979282 C2.44785652,0.0769633195 2.39715941,0.216536831 2.45223775,0.334204186 L2.63124234,0.71912665 L1.38259142,3.1172249 L0,5.77099929 L4.30362092,3.76408241 L8.60786773,1.75653963 Z" id="Path"></path>
                <polygon id="Path" points="7.81705548 11.8380658 8.17819412 12.611979 8.69611824 12.611979 8.33466666 11.8380658"></polygon>
            </g>
        </g>
    </g>
</svg>