<svg xmlns="http://www.w3.org/2000/svg" viewBox="0 0 23.58 23.58"><defs><style>.cls-1{fill:#f6e81d;}</style></defs><g id="Ebene_2" data-name="Ebene 2"><g id="Ebene_1-2" data-name="Ebene 1"><circle cx="11.79" cy="11.79" r="11.79"/><path class="cls-1" d="M12.34,22l-1.22-2.07-1.5,1.88L9.05,19.5l-1.8,1.27L7.14,18.5l-2.22.86.63-2.29-2.39.28,1.23-2.08L2,14.9l1.72-1.66-2.18-1L3.63,11.1,1.8,9.6,4.08,9l-1.3-1.8L5,7.1l-.8-2.19,2.22.6L6.35,3.24,8.29,4.35l.39-2.28L10.32,3.7l1-2.14,1.13,2L14,1.76l.6,2.29,1.94-1.43L16.46,5,18.6,4.2l-.53,2.24,2.3-.11L19.21,8.26l2.36.39-1.7,1.65,2.15.95-2,1.18,1.77,1.46-2.23.65,1.42,1.93-2.4,0,.86,2.22L17.16,18l.11,2.32-2-1.17-.38,2.35-1.67-1.7Zm-1.11-3.6,1,1.67L13,18.27l1.37,1.41.31-1.91,1.67,1-.1-1.89,1.73.47-.7-1.8,1.94,0-1.12-1.52,1.85-.54-1.46-1.2,1.64-1-1.77-.79,1.38-1.34L17.8,8.92l1-1.64L17,7.37l.42-1.76-1.8.7,0-1.94L14.05,5.52l-.49-1.87L12.34,5.16l-.94-1.7-.82,1.72L9.26,3.87,8.93,5.73,7.3,4.79l.09,1.87L5.64,6.19l.64,1.72L4.42,8,5.53,9.54,3.68,10l1.48,1.22-1.66.95L5.28,13,3.89,14.31l1.9.3-1,1.66,1.92-.22-.51,1.87L8,17.25,8,19.14,9.59,18,10,19.89Z"/><path class="cls-1" d="M8.43,8.64l.22.67a.16.16,0,0,1-.12.22l-.45.14L8.81,12l.51-.16a.15.15,0,0,1,.22.11l.22.67a.16.16,0,0,1-.12.22L9.13,13l1.07,3.31a.16.16,0,0,1-.11.22l-.78.25a.16.16,0,0,1-.22-.12L6.71,9.2A.15.15,0,0,1,6.82,9l1.39-.45C8.32,8.5,8.4,8.53,8.43,8.64Z"/><path class="cls-1" d="M9.12,8.24,9.9,8a.14.14,0,0,1,.21.11l2.15,6.66.15,0L10.27,8.05a.15.15,0,0,1,.11-.22l.78-.25a.16.16,0,0,1,.22.12l2.07,6.45a1.15,1.15,0,0,1,0,.95,1.23,1.23,0,0,1-.78.6,1.24,1.24,0,0,1-.95,0,1.26,1.26,0,0,1-.59-.75L9,8.46A.15.15,0,0,1,9.12,8.24Z"/><path class="cls-1" d="M14,10.28l-.16.05L14.94,13v0l.5,1.56a.15.15,0,0,1-.11.22l-.77.25c-.11,0-.19,0-.22-.11L12,7.51a.16.16,0,0,1,.11-.22L12.85,7a.17.17,0,0,1,.22.1l1.67,4,.16-.05-1-2.36-.53-1.66a.15.15,0,0,1,.11-.22l.78-.25a.15.15,0,0,1,.22.11l2.38,7.41c0,.12,0,.19-.11.22l-.79.26a.16.16,0,0,1-.21-.1Z"/></g></g></svg>