<?xml version="1.0" encoding="UTF-8"?>
<svg viewBox="0 0 24 24" version="1.1" xmlns="http://www.w3.org/2000/svg" xmlns:xlink="http://www.w3.org/1999/xlink">
    <title>Post</title>
    <g id="Page-1" stroke="none" stroke-width="1" fill="none" fill-rule="evenodd">
        <g id="Post" fill-rule="nonzero">
            <circle id="Oval" fill="#000000" cx="11.79" cy="11.79" r="11.79"></circle>
            <path d="M11.79,21.34 C6.51568064,21.34 2.24,17.0643194 2.24,11.79 C2.24,6.51568064 6.51568064,2.24 11.79,2.24 C17.0643194,2.24 21.34,6.51568064 21.34,11.79 C21.3344882,17.0620346 17.0620346,21.3344882 11.79,21.34 Z M11.79,3.51 C7.21708227,3.51 3.51,7.21708227 3.51,11.79 C3.51,16.3629177 7.21708227,20.07 11.79,20.07 C16.3629177,20.07 20.07,16.3629177 20.07,11.79 C20.07,9.59400746 19.1976454,7.48795707 17.6448441,5.93515585 C16.0920429,4.38235464 13.9859925,3.51 11.79,3.51 Z" id="Shape" fill="#F6E81D"></path>
            <path d="M14.4909144,6.85199122 C14.6507874,6.85199122 14.7815699,6.720958 14.7815699,6.56108493 L14.7815699,6.53675915 C14.7815699,6.37688609 14.6507874,6.24597826 14.4909144,6.24597826 L11.2228581,6.24597826 C11.111762,6.24597826 11.0177191,6.31130678 10.9688167,6.40334351 L10.8797893,6.40334351 C10.8574698,6.25463021 10.8025487,6.14905129 10.7382233,6.14905129 C10.7176592,6.14905129 10.6978475,6.16033645 10.6799167,6.18014817 L10.6799167,6.17964661 C10.5871276,6.27419115 10.4970971,6.18403528 10.493837,6.18052434 C10.493837,6.18052434 10.4937116,6.18027356 10.4934608,6.18027356 C10.4934608,6.18014817 10.4927084,6.17964661 10.4927084,6.17964661 L10.4927084,6.17964661 C10.4746522,6.16021106 10.4550913,6.1489259 10.4346526,6.1489259 C10.3507662,6.1489259 10.2824283,6.32785835 10.2824283,6.54879665 C10.2824283,6.76948418 10.3507662,6.94879279 10.4346526,6.94879279 C10.4369096,6.94879279 10.4389159,6.94728811 10.4409221,6.94703732 L10.4409221,8.46388789 C10.3235565,8.47705391 10.240924,8.50489063 10.240924,8.53761759 L10.2410494,8.53774298 L10.240924,8.53774298 L10.240924,9.53071145 C10.1539029,9.54801536 10.0816779,9.6010556 10.0411767,9.67716772 L9.73196343,9.67716772 C9.71729273,9.47980285 9.67415835,9.33572901 9.6224974,9.33572901 L8.91378951,9.33572901 C8.84996567,9.33572901 8.79843012,9.55353255 8.79843012,9.82237008 C8.79843012,10.0910822 8.84996567,10.3093873 8.91378951,10.3093873 L9.6224974,10.3093873 C9.67415835,10.3093873 9.71716734,10.1653135 9.73196343,9.9681994 L10.0408006,9.9681994 L10.0408006,10.5544006 C9.66061616,10.6475659 9.39829894,10.8321409 9.39829894,11.0473112 L9.39829894,15.0971781 C9.39829894,15.3315332 9.70588218,15.5309043 10.1411131,15.6139129 C10.1443732,15.659179 10.1678213,15.7094606 10.2246233,15.7640055 C10.6127073,16.137795 10.2286358,16.339674 10.2286358,16.339674 L10.6045569,17.4310741 C10.6045569,17.4310741 11.035023,16.5036849 11.035023,16.3760373 C11.035023,16.285756 11.035023,15.8542868 11.035023,15.6134114 C11.4686238,15.5304028 11.7748277,15.3310317 11.7748277,15.0971781 L11.7748277,11.0476874 C11.7748277,10.8325171 11.5123851,10.6479421 11.1322007,10.5547768 L11.1322007,10.1260662 L14.4909144,10.1260662 C14.6507874,10.1260662 14.7815699,9.99503299 14.7815699,9.83490915 L14.7815699,9.81083414 C14.7815699,9.65096108 14.6507874,9.51980247 14.4909144,9.51980247 L14.3756804,9.51980247 L14.3756804,6.85199122 L14.4909144,6.85199122 Z M10.9320772,9.51980247 L10.9320772,8.53786837 L10.9319519,8.53786837 L10.9320772,8.53774298 C10.9320772,8.50501602 10.8495702,8.47730469 10.7319538,8.46401328 L10.7319538,6.94716271 C10.7340854,6.9474135 10.7362171,6.94891818 10.7382233,6.94891818 C10.8025487,6.94891818 10.8574698,6.84308848 10.8797893,6.69450058 L10.9688167,6.69450058 C11.0177191,6.7866627 11.111762,6.85199122 11.2228581,6.85199122 L11.2228581,9.51967708 L10.9320772,9.51967708 L10.9320772,9.51980247 Z M12.944597,9.51980247 L12.6536907,9.51980247 L12.6536907,6.85199122 L12.944597,6.85199122 L12.944597,9.51980247 Z" id="Shape" fill="#F6E81D" transform="translate(11.79, 11.79) rotate(25) translate(-11.79, -11.79)"></path>
        </g>
    </g>
</svg>