<?xml version="1.0" encoding="UTF-8"?>
<svg viewBox="0 0 29 29" version="1.1" xmlns="http://www.w3.org/2000/svg" xmlns:xlink="http://www.w3.org/1999/xlink">
    <title>Terminal 21</title>
    <g id="Page-1" stroke="none" stroke-width="1" fill="none" fill-rule="evenodd">
        <g id="Terminal-21" transform="translate(2.75, 2.75)" fill-rule="nonzero">
            <circle id="Oval" stroke="#FFFFFF" stroke-width="2" fill="#FEEB17" cx="12.02" cy="12.02" r="13.02"></circle>
            <path d="M15.68,3.34 L14.64,5.25 C14.6238047,5.28853059 14.6271227,5.33249807 14.6489172,5.36816173 C14.6707116,5.40382539 14.7083241,5.42683515 14.75,5.43 L17.14,5.53 C17.2007513,5.56037566 17.2746243,5.53575132 17.305,5.475 C17.3353757,5.41424868 17.3107513,5.34037566 17.25,5.31 L15.89,3.31 C15.8610071,3.2793991 15.8189762,3.26475604 15.7772454,3.27071759 C15.7355145,3.27667914 15.699265,3.30250512 15.68,3.34 L15.68,3.34 Z" id="Path" fill="#010101"></path>
            <path d="M18.5,18.25 L17.69,17.47 C18.7657543,16.3745929 19.48702,14.9808427 19.76,13.47 C20.0191012,11.9453708 19.8423153,10.3785623 19.25,8.95 C18.9128923,8.14942721 18.4466984,7.4095978 17.87,6.76 L18.72,6.01 C19.3575365,6.76193023 19.8737541,7.60879701 20.25,8.52 C20.9271699,10.1294302 21.1318236,11.8984705 20.84,13.62 C20.5411844,15.3628178 19.7259949,16.9757782 18.5,18.25 L18.5,18.25 Z" id="Path" fill="#010101"></path>
            <path d="M12.03,21.010031 C11.5482362,21.0108496 11.067022,20.977432 10.59,20.91 L10.59,20.91 C7.65695174,20.4318307 5.15537035,18.5228278 3.92,15.82 L4.92,15.39 C6.00539318,17.7368028 8.18707841,19.3899354 10.74,19.8 C12.2030603,20.0272077 13.7005439,19.8365558 15.06,19.25 L15.52,20.25 C14.424404,20.7500025 13.2342975,21.0091661 12.03,21.010031 L12.03,21.010031 Z" id="Path" fill="#010101"></path>
            <path d="M3.04,12.13 C3.0094392,9.11460711 4.49107251,6.2842964 6.98646532,4.59120958 C9.48185813,2.89812276 12.6593484,2.5672876 15.45,3.71 L15.02,4.71 C12.9935366,3.86979639 10.707139,3.92060522 8.72,4.85 C6.9815631,5.671353 5.59708582,7.0913297 4.82,8.85 C4.3750098,9.87136768 4.15339575,10.9760285 4.17,12.09 L3.04,12.13 Z" id="Path" fill="#010101"></path>
            <path d="M3.48,15.93 L5.48,15.25 C5.51351742,15.2277671 5.5336675,15.1902209 5.5336675,15.15 C5.5336675,15.1097791 5.51351742,15.0722329 5.48,15.05 L3.78,13.35 C3.7453997,13.3210415 3.69825841,13.3120947 3.65545425,13.3263627 C3.61265009,13.3406308 3.58030516,13.376073 3.57,13.42 L3.23,15.79 C3.19134007,15.8590356 3.21596441,15.9463401 3.285,15.985 C3.35403559,16.0236599 3.44134007,15.9990356 3.48,15.93 Z" id="Path" fill="#010101"></path>
            <path d="M18.83,18.64 L17.39,17.05 C17.3655252,17.0164723 17.3265105,16.9966485 17.285,16.9966485 C17.2434895,16.9966485 17.2044748,17.0164723 17.18,17.05 L16.31,19.29 C16.2915566,19.3336904 16.3005451,19.3841444 16.3330088,19.4187418 C16.3654438,19.4533391 16.4152118,19.4655893 16.46,19.45 L18.77,18.81 C18.8020296,18.7971441 18.8269732,18.7711198 18.83846,18.7385741 C18.8499467,18.7060284 18.8468643,18.6701126 18.83,18.64 L18.83,18.64 Z" id="Path" fill="#010101"></path>
            <path d="M12.47,12.66 C12.47,12.99 12.47,13.29 12.42,13.6 C12.35,14.39 12.27,15.19 12.19,15.99 C12.1408142,16.0792924 12.1666599,16.1912905 12.25,16.25 C12.58,16.49 12.91,16.73 13.25,16.98 C13.3024159,17.0312925 13.3373957,17.097754 13.35,17.17 C13.3603239,17.3331702 13.3603239,17.4968298 13.35,17.66 L12.56,17.25 L12.25,17.15 C11.972431,17.013997 11.647569,17.013997 11.37,17.15 L10.37,17.55 L10.23,17.6 C10.23,17.41 10.23,17.23 10.23,17.06 C10.23,16.89 10.23,16.97 10.32,16.94 C10.64,16.69 10.96,16.45 11.32,16.22 C11.4129852,16.1693033 11.461748,16.0636505 11.44,15.96 C11.34,14.96 11.26,13.96 11.18,12.96 C11.1739181,12.8701027 11.1739181,12.7798973 11.18,12.69 L6.57,13.72 C6.57,13.44 6.57,13.18 6.57,12.92 C6.57,12.87 6.64,12.82 6.68,12.8 L10.15,10.86 C10.43,10.7 10.71,10.54 11,10.39 C11.0645161,10.3597048 11.1012136,10.2903874 11.09,10.22 C11.09,9.31 11.16,8.39 11.22,7.47 C11.2556079,7.10305685 11.3157424,6.73890925 11.4,6.38 C11.4213783,6.28589539 11.4622585,6.19732159 11.52,6.12 C11.5688751,6.02107203 11.6696573,5.95845233 11.78,5.95845233 C11.8903427,5.95845233 11.9911249,6.02107203 12.04,6.12 C12.1546651,6.38544459 12.2353047,6.6643232 12.28,6.95 C12.4100072,8.02162173 12.4701342,9.10056854 12.46,10.18 C12.4574454,10.2722247 12.5079829,10.3577495 12.59,10.4 L16.86,12.78 C16.9590144,12.8090683 17.0196577,12.9086965 17,13.01 C17,13.24 17,13.46 17,13.71 L12.47,12.66 Z" id="Path" fill="#010101"></path>
        </g>
    </g>
</svg>