<?xml version="1.0" encoding="UTF-8"?>
<svg viewBox="0 0 24 24" version="1.1" xmlns="http://www.w3.org/2000/svg" xmlns:xlink="http://www.w3.org/1999/xlink">
    <g id="Page-1" stroke="none" stroke-width="1" fill="none" fill-rule="evenodd">
        <g id="Infopoint" fill-rule="nonzero">
            <circle id="Oval" fill="#000000" cx="11.79" cy="11.79" r="11.79"></circle>
            <path d="M11.79,21.34 C6.51568064,21.34 2.24,17.0643194 2.24,11.79 C2.24,6.51568064 6.51568064,2.24 11.79,2.24 C17.0643194,2.24 21.34,6.51568064 21.34,11.79 C21.3344882,17.0620346 17.0620346,21.3344882 11.79,21.34 Z M11.79,3.51 C7.21708227,3.51 3.51,7.21708227 3.51,11.79 C3.51,16.3629177 7.21708227,20.07 11.79,20.07 C16.3629177,20.07 20.07,16.3629177 20.07,11.79 C20.07,9.59400746 19.1976454,7.48795707 17.6448441,5.93515585 C16.0920429,4.38235464 13.9859925,3.51 11.79,3.51 Z" id="Shape" fill="#F6E81D"></path>
            <g id="3383443_broadcast_dish_radar_satellite_signal_icon" transform="translate(7.0991, 5.3533)" fill="#F6E81D">
                <path d="M4.34558292,3.82312231 L4.78854585,4.2647257 L6.06821953,4.33882022 L5.46649039,4.94054937 L5.76053011,5.23371899 L6.36179701,4.63245208 L6.43561963,5.90671483 L6.87708707,6.34682274 L6.75500104,4.23927525 L7.10260634,3.89164275 C7.27676247,3.95499697 7.47936003,3.91733792 7.6190656,3.77765953 C7.81124913,3.58544881 7.81124913,3.27381674 7.6190656,3.08160602 C7.42685488,2.88939529 7.11522281,2.88939529 6.92298489,3.08160602 C6.78330651,3.2212844 6.74567465,3.42388195 6.80900168,3.59803808 L6.46136918,3.94567058 L4.34558292,3.82312231 Z" id="Path"></path>
                <path d="M3.87257433,3.79574132 L3.69939706,3.62310786 C3.62089765,3.55537595 3.50134035,3.56298933 3.43298305,3.64331052 C2.80096352,4.38613196 2.67210701,5.41029508 3.04584253,6.26813299 C3.20161778,6.06643273 3.44521884,5.93765779 3.71465102,5.93765779 C4.13716657,5.93765779 4.49727957,6.25358599 4.55215031,6.67109846 L4.69019726,7.68656058 C5.46597377,7.89541198 6.32242495,7.7257695 6.96700656,7.17733403 C7.05091691,7.10593138 7.05643662,6.97808093 6.97850821,6.90017971 L6.9049303,6.82657461 L6.90444087,6.81822708 L6.46300062,6.37817356 L6.46340848,6.3850256 L5.53637037,5.45798749 L5.53816495,5.45616572 L5.24409804,5.1629961 L5.24273851,5.16435563 L4.36836869,4.28998581 L4.31556444,4.23731752 L3.87257433,3.79574132 Z" id="Path"></path>
                <path d="M4.6164834,9.47891402 L4.35708457,7.57121783 L4.24043667,6.7134615 C4.20579578,6.44952183 3.98082032,6.25219926 3.71462383,6.25219926 C3.48994746,6.25219926 3.29515363,6.39304685 3.21885666,6.59559002 C3.20474471,6.63300436 3.19424912,6.67226766 3.18883818,6.7134615 L2.81279145,9.47891402 L4.6164834,9.47891402 Z M3.71462383,6.54751694 C3.84261023,6.54751694 3.94634257,6.65122209 3.94634257,6.77920849 C3.94634257,6.9071949 3.84261023,7.01095443 3.71462383,7.01095443 C3.58666462,7.01095443 3.48290509,6.9071949 3.48290509,6.77920849 C3.48290509,6.65122209 3.58666462,6.54751694 3.71462383,6.54751694 Z" id="Shape"></path>
                <path d="M10.2186551,2.34229217 C10.2723567,2.39599371 10.3487896,2.41888824 10.4235367,2.40347114 C10.5433115,2.37872764 10.6207777,2.26469005 10.5998681,2.1438276 C10.5070392,1.6068122 10.2543837,1.11936537 9.86922807,0.734209778 C9.48380056,0.348782276 8.99600025,0.09607235 8.45852262,0.00337941491 C8.33771455,-0.0174486251 8.22367695,0.0600175445 8.19887908,0.180091467 C8.18354355,0.254457902 8.20641089,0.330918017 8.26011243,0.384619556 C8.29309469,0.417601818 8.33485953,0.439218387 8.38094769,0.447130867 C8.82671125,0.523835698 9.2311994,0.733258105 9.55068957,1.05272108 C9.86993502,1.37196654 10.079303,1.77615559 10.1561438,2.22153848 C10.1640835,2.26759945 10.1857001,2.30936429 10.2186551,2.34229217 Z" id="Path"></path>
                <path d="M9.47969477,2.6706193 C9.59737592,2.64631086 9.67522276,2.53453008 9.65697783,2.4160876 C9.59957836,2.04428262 9.42857635,1.70709133 9.16243424,1.44097641 C8.89602022,1.17458959 8.55844827,1.00353319 8.18620824,0.94632406 C8.06782013,0.928133513 7.95609374,1.00600754 7.93175811,1.12385183 C7.91644977,1.19800074 7.9393443,1.2743249 7.99304584,1.32799925 C8.0274692,1.36242262 8.07121897,1.384583 8.11959114,1.39206043 C8.39592974,1.43494009 8.64641003,1.56200201 8.84392293,1.75951491 C9.0412455,1.95681029 9.16825304,2.20699148 9.21124146,2.4830038 C9.21877327,2.53132159 9.24093365,2.57504416 9.27527545,2.60941314 C9.3289498,2.66308749 9.40527396,2.68600921 9.47969477,2.6706193 Z" id="Path"></path>
                <path d="M8.15640728,2.44703056 C8.2334384,2.52406168 8.28129395,2.62638011 8.29113696,2.73508834 C8.29578657,2.7863971 8.31846357,2.83476927 8.35500781,2.87131351 C8.40889968,2.92520538 8.48574047,2.94818148 8.56051476,2.93273719 C8.67330159,2.9094348 8.75014237,2.80524022 8.73921173,2.69033252 C8.71911784,2.478327 8.6252557,2.278802 8.47494578,2.12849207 C8.32428237,1.97785585 8.12429512,1.88396653 7.91180017,1.86409016 C7.79702842,1.85334985 7.6929426,1.93024502 7.66972179,2.0428687 C7.6542775,2.117643 7.67719922,2.19448378 7.73111828,2.24837565 C7.76777128,2.28500146 7.81625221,2.30767847 7.86766974,2.31227369 C7.97667707,2.32195356 8.07918583,2.3698363 8.15640728,2.44703056 Z" id="Path"></path>
                <path d="M2.45248811,9.79405368 L1.68201378,9.79405368 C1.4448569,9.79405368 1.25264618,9.9862916 1.25264618,10.2234757 L1.25264618,10.6528433 L0.496746034,10.6528433 C0.222419539,10.6528433 0,10.8752628 0,11.1495893 L0,11.5116328 L7.42919327,11.5116328 L7.42919327,11.1495893 C7.42919327,10.8752628 7.20680093,10.6528433 6.93247443,10.6528433 L6.17657429,10.6528433 L6.17657429,10.2234757 C6.17657429,9.9862916 5.98433637,9.79405368 5.7471795,9.79405368 L4.97673235,9.79405368 L4.81799332,9.79405368 L2.61119995,9.79405368 L2.45248811,9.79405368 Z" id="Path"></path>
            </g>
        </g>
    </g>
</svg>