<svg xmlns="http://www.w3.org/2000/svg" viewBox="0 0 23.58 23.58"><defs><style>.cls-1{fill:#f6e81d;}</style></defs><g id="Ebene_2" data-name="Ebene 2"><g id="Ebene_1-2" data-name="Ebene 1"><circle cx="11.79" cy="11.79" r="11.79"/><path class="cls-1" d="M11.79,21.34a9.55,9.55,0,1,1,9.55-9.55A9.56,9.56,0,0,1,11.79,21.34Zm0-17.83a8.28,8.28,0,1,0,8.28,8.28A8.28,8.28,0,0,0,11.79,3.51Z"/><path class="cls-1" d="M6,9.68H7.63l.6,2.57h0l.61-2.57h1.29l.61,2.57h0l.59-2.57h1.32L11.49,14H9.92l-.56-2.38h0L8.75,14H7.25Z"/><path class="cls-1" d="M12.7,11.85A2.1,2.1,0,0,1,15,9.61c1.37,0,2.08.75,2.08,1.72a2.18,2.18,0,0,1,0,.27H15.89a.92.92,0,0,0,0-.15.72.72,0,0,0-.79-.76c-.56,0-.95.41-.95,1.16s.4,1.14.95,1.14a.72.72,0,0,0,.8-.74,1,1,0,0,0,0-.14h1.18a1.94,1.94,0,0,1,0,.22c0,1-.73,1.73-2.09,1.73A2.07,2.07,0,0,1,12.7,11.85Z"/></g></g></svg>