<svg xmlns="http://www.w3.org/2000/svg" viewBox="0 0 23.58 23.58"><defs><style>.cls-1{fill:#f6e81d;}</style></defs><g id="Ebene_2" data-name="Ebene 2"><g id="Ebene_1-2" data-name="Ebene 1"><circle cx="11.79" cy="11.79" r="11.79"/><path class="cls-1" d="M11.79,21.34a9.55,9.55,0,1,1,9.55-9.55A9.56,9.56,0,0,1,11.79,21.34Zm0-17.83a8.28,8.28,0,1,0,8.28,8.28A8.28,8.28,0,0,0,11.79,3.51Z"/><path class="cls-1" d="M16,14.18h-1.9c0-.16,0-.32-.07-.47a.6.6,0,0,0-.54-.52,1.68,1.68,0,0,0-1.24.22,2.23,2.23,0,0,0-.24.19,1.62,1.62,0,0,1-1.88,0A1.54,1.54,0,0,0,9,13.18H7.79V11.25H9.18a.78.78,0,0,0,.77-.77V9.91h2.24v.55a.76.76,0,0,0,.38.67.7.7,0,0,0,.32.09,3.32,3.32,0,0,1,1.75.43,2.52,2.52,0,0,1,1.22,1.78C15.9,13.67,15.92,13.92,16,14.18Z"/><path class="cls-1" d="M11.52,8.42h-1c0-.24,0-.47,0-.7,0,0-.05-.09-.08-.14l0,0c-.14-.18-.32-.14-.5-.09l-.68.19a.76.76,0,0,1-.82-.31A.76.76,0,0,1,9.29,6.2l.9.24a.21.21,0,0,0,.2,0,1.18,1.18,0,0,1,1.33,0,.2.2,0,0,0,.17,0l1-.25a.76.76,0,0,1,.35,1.47,1.19,1.19,0,0,1-.46,0c-.28-.06-.57-.15-.85-.22a.25.25,0,0,0-.14,0s-.06.06-.1.07-.17.18-.16.32S11.52,8.23,11.52,8.42Z"/><path class="cls-1" d="M6.13,13.59V10.83h.92s0,0,.07.06a2.77,2.77,0,0,0,.25.24.18.18,0,0,1,.1.18v1.82a.15.15,0,0,1-.09.16.6.6,0,0,0-.22.2.24.24,0,0,1-.23.11Z"/><path class="cls-1" d="M14.49,17.15a3.54,3.54,0,0,1,.45-1.39c.12-.21.26-.21.39,0a3.39,3.39,0,0,1,.4,1.13,1.24,1.24,0,0,1,0,.47.62.62,0,0,1-.66.52A.66.66,0,0,1,14.49,17.15Z"/><path class="cls-1" d="M15,15c-.31,0-.62,0-.93,0s-.35-.12-.34-.31a.3.3,0,0,1,.33-.31h1.86a.31.31,0,0,1,.34.31.31.31,0,0,1-.35.31Z"/><path class="cls-1" d="M11.07,9.28h1.08c.15,0,.25.08.25.2a.22.22,0,0,1-.25.21H10a.24.24,0,0,1-.26-.2c0-.13.1-.21.26-.21Z"/><path class="cls-1" d="M11,9.05h-.75c-.15,0-.23-.07-.23-.2s.08-.19.24-.19h1.49c.16,0,.23.07.23.2s-.08.19-.23.19Z"/><rect class="cls-1" x="3.43" y="11.3" width="2.7" height="1.92"/></g></g></svg>