<svg xmlns="http://www.w3.org/2000/svg" viewBox="0 0 23.58 23.58"><defs><style>.cls-1{fill:#f6e81d;}</style></defs><g id="Ebene_2" data-name="Ebene 2"><g id="Ebene_1-2" data-name="Ebene 1"><circle cx="11.79" cy="11.79" r="11.79"/><path class="cls-1" d="M11.79,21.34a9.55,9.55,0,1,1,9.55-9.55A9.56,9.56,0,0,1,11.79,21.34Zm0-17.83a8.28,8.28,0,1,0,8.28,8.28A8.28,8.28,0,0,0,11.79,3.51Z"/><path class="cls-1" d="M13.84,18.06a1,1,0,0,1-.61-.56c-.44-.89-.9-1.77-1.34-2.66a.17.17,0,0,0-.18-.1H9.05a1.12,1.12,0,0,1-1.12-.88,1.55,1.55,0,0,1,0-.31v-3.5a1.11,1.11,0,0,1,2.2-.21c.05.55,0,1.11,0,1.66v.15H12a.55.55,0,0,1,.54.5.56.56,0,0,1-.39.59,1,1,0,0,1-.25,0H10.14v.48h2.1a.78.78,0,0,1,.74.47c.54,1.06,1.08,2.13,1.63,3.19A.75.75,0,0,1,14.14,18l0,0Z"/><path class="cls-1" d="M9.33,15.43h1.44a.89.89,0,0,1,.88.68.86.86,0,0,1-.76,1c-.45,0-.9,0-1.34,0-.6,0-1.19,0-1.78,0A.83.83,0,0,1,7,16.31a.85.85,0,0,1,.71-.86l.27,0Z"/><path class="cls-1" d="M10.28,7.07A1.28,1.28,0,0,1,9,8.34,1.27,1.27,0,0,1,9,5.81,1.28,1.28,0,0,1,10.28,7.07Z"/><path class="cls-1" d="M15.63,10.29a1.61,1.61,0,0,0,0-1.06,6.51,6.51,0,0,1-.15-1.32,1.72,1.72,0,0,1,.17-.83.77.77,0,0,1,.44-.39,2.17,2.17,0,0,0,0,1.13c0,.38.12.77.14,1.16A1.57,1.57,0,0,1,16,10,.85.85,0,0,1,15.63,10.29Z"/><path class="cls-1" d="M15.63,15.55a1.83,1.83,0,0,0,0-1.2,4.8,4.8,0,0,1-.11-1.51A1,1,0,0,1,16,12l.16-.08a2,2,0,0,0,0,1.13c0,.32.11.64.14,1a2,2,0,0,1-.17,1.09A.86.86,0,0,1,15.63,15.55Z"/><path class="cls-1" d="M14.36,9.25a1.91,1.91,0,0,0,0,1,6.73,6.73,0,0,1,.15,1.49,1.39,1.39,0,0,1-.34.91,1.1,1.1,0,0,1-.25.17,2.1,2.1,0,0,0,0-1.29,4.52,4.52,0,0,1-.08-1.47A1,1,0,0,1,14.36,9.25Z"/></g></g></svg>