<?xml version="1.0" encoding="UTF-8"?>
<svg viewBox="0 0 29 29" version="1.1" xmlns="http://www.w3.org/2000/svg" xmlns:xlink="http://www.w3.org/1999/xlink">
    <title>YumYum Bar</title>
    <g id="Page-1" stroke="none" stroke-width="1" fill="none" fill-rule="evenodd">
        <g id="YumYum-Bar" transform="translate(2.75, 2.75)" fill-rule="nonzero">
            <circle id="Oval" stroke="#FFFFFF" stroke-width="2" fill="#A583BB" cx="12.08" cy="12.08" r="13.08"></circle>
            <path d="M6.66,11.79 L6.25,10.65 C6.25,10.52 6.15,10.38 6.03,10.33 C5.92102745,10.2855378 5.79897255,10.2855378 5.69,10.33 C5.47941255,10.4126219 5.28860004,10.5386944 5.13,10.7 C5.05233454,10.7674563 4.99952143,10.858999 4.98,10.96 C4.98,11.06 5.04,11.18 5.14,11.18 C5.24,11.18 5.26,11.18 5.33,11.18 C5.4,11.18 5.55,11.27 5.63,11.37 C5.89359858,11.7261712 6.03717617,12.1569039 6.04,12.6 C6.04976194,12.6629572 6.04976194,12.7270428 6.04,12.79 C6.01565339,12.8546383 5.96463828,12.9056534 5.9,12.93 C5.83436248,12.9453263 5.76712145,12.9117058 5.74,12.85 C5.72526371,12.8010858 5.72526371,12.7489142 5.74,12.7 C5.75214698,12.5228914 5.64004937,12.3609727 5.47,12.31 C5.29918962,12.2666483 5.11948086,12.3345383 5.02,12.48 C4.92056544,12.6197342 4.89802108,12.8000891 4.96,12.96 C5.02522144,13.1201626 5.1459101,13.2515003 5.3,13.33 C5.56076593,13.4472193 5.85923407,13.4472193 6.12,13.33 C6.37162691,13.2100168 6.59359643,13.0358561 6.77,12.82 C6.86452474,12.7189445 6.94830684,12.6083521 7.02,12.49 C7.11183475,12.3099293 7.18875884,12.1226359 7.25,11.93 C7.31,11.75 7.38,11.56 7.43,11.38 C7.48393459,11.2254275 7.51427505,11.0636118 7.52,10.9 C7.53384739,10.7344083 7.4837496,10.5698013 7.38,10.44 C7.28206479,10.2973348 7.11099877,10.2234654 6.94,10.25 C6.77611403,10.2890148 6.6655103,10.4421584 6.68,10.61 C6.68,10.76 6.84,10.87 6.91,11.01 C6.97444768,11.1635102 6.97444768,11.3364898 6.91,11.49 C6.84644514,11.6470546 6.76238179,11.7950061 6.66,11.93 L6.66,11.8" id="Path" fill="#1D1D1B"></path>
            <path d="M13.86,11.7 L13.44,10.55 C13.4173456,10.4293884 13.3493549,10.3220347 13.25,10.25 C13.1420077,10.2007936 13.0179923,10.2007936 12.91,10.25 C12.6994125,10.3326219 12.5086,10.4586944 12.35,10.62 C12.2723345,10.6874563 12.2195214,10.778999 12.2,10.88 C12.1875705,10.9838973 12.2573275,11.0798132 12.36,11.1 C12.42,11.1 12.48,11.1 12.55,11.1 C12.62,11.1 12.77,11.18 12.85,11.28 C13.1003336,11.634763 13.2395631,12.0559323 13.25,12.49 C13.260481,12.5562547 13.260481,12.6237453 13.25,12.69 C13.2281555,12.7562153 13.1762153,12.8081555 13.11,12.83 C13.0448609,12.8415318 12.979858,12.8090303 12.95,12.75 C12.9355155,12.6976501 12.9355155,12.6423499 12.95,12.59 C12.9429029,12.4200163 12.8177771,12.2782072 12.65,12.25 C12.4815876,12.2102007 12.3054847,12.2728151 12.2,12.41 C12.1005103,12.5534797 12.0780685,12.7367545 12.14,12.9 C12.206068,13.0629064 12.3310124,13.1949905 12.49,13.27 C12.747915,13.3842444 13.042085,13.3842444 13.3,13.27 C13.5516269,13.1500168 13.7735964,12.9758561 13.95,12.76 C14.0427652,12.6549449 14.129568,12.5447721 14.21,12.43 C14.3010383,12.2564661 14.3779536,12.0758824 14.44,11.89 C14.5,11.7 14.57,11.52 14.62,11.34 C14.6724161,11.1845768 14.7059895,11.0234244 14.72,10.86 C14.7258392,10.6953575 14.6765705,10.5334744 14.58,10.4 C14.4771629,10.2648453 14.3069951,10.1990986 14.14,10.23 C13.9734793,10.2650185 13.8608884,10.4209137 13.88,10.59 C13.88,10.74 14.05,10.85 14.12,10.99 C14.1802439,11.1443292 14.1802439,11.3156708 14.12,11.47 C14.0603823,11.6289284 13.9760069,11.7774291 13.87,11.91 L13.87,11.78" id="Path" fill="#1D1D1B"></path>
            <path d="M8.19,12.02 L8.25,11.1 C8.28465657,11.0237534 8.28465657,10.9362466 8.25,10.86 C8.15920134,10.7993326 8.04079866,10.7993326 7.95,10.86 C7.74642289,10.9389473 7.5695283,11.0742196 7.44,11.25 C7.60337104,11.3786529 7.68695268,11.5838078 7.66,11.79 C7.66,11.99 7.59,12.19 7.57,12.4 C7.54498676,12.5326819 7.59038029,12.6688625 7.69,12.76 C7.8083777,12.8094447 7.9416223,12.8094447 8.06,12.76 L8.54,12.59 L8.54,12.85 C8.63198666,12.9337892 8.76239593,12.9606382 8.88,12.92 C8.99541753,12.8863366 9.10381873,12.832136 9.2,12.76 C9.29,12.7 9.39,12.62 9.39,12.51 C9.3807065,12.4556933 9.34567065,12.4092581 9.29600017,12.3854163 C9.24632969,12.3615745 9.18818493,12.3632829 9.14,12.39 L9.25,11.06 C9.27008131,11.0085569 9.27008131,10.9514431 9.25,10.9 C9.21141631,10.8586802 9.15643635,10.8366882 9.1,10.84 C8.91688427,10.84 8.74674038,10.9345244 8.65,11.09 C8.55634627,11.2500823 8.51443531,11.435189 8.53,11.62 C8.54517971,11.7261266 8.54517971,11.8338734 8.53,11.94 C8.52153457,12.0481054 8.4514109,12.1416037 8.35,12.18 C8.25,12.18 8.12,12.11 8.15,12.01" id="Path" fill="#1D1D1B"></path>
            <path d="M15.43,12.02 L15.52,11.1 C15.5546566,11.0237534 15.5546566,10.9362466 15.52,10.86 C15.45,10.78 15.33,10.86 15.23,10.86 C15.0250716,10.941449 14.845571,11.0760744 14.71,11.25 C14.873371,11.3786529 14.9569527,11.5838078 14.93,11.79 C14.93,11.99 14.86,12.19 14.85,12.4 C14.8249868,12.5326819 14.8703803,12.6688625 14.97,12.76 C15.0883777,12.8094447 15.2216223,12.8094447 15.34,12.76 L15.81,12.59 L15.81,12.85 C15.9029632,12.931851 16.0322645,12.9584719 16.15,12.92 C16.2680441,12.885161 16.3795385,12.8311031 16.48,12.76 C16.57,12.7 16.67,12.62 16.66,12.51 C16.6557148,12.4529337 16.6212776,12.4025011 16.5696862,12.3777372 C16.5180947,12.3529733 16.4572054,12.3576491 16.41,12.39 L16.61,11.09 C16.6291486,11.0383854 16.6291486,10.9816146 16.61,10.93 C16.5745116,10.890268 16.5232462,10.8682971 16.47,10.87 C16.2838215,10.86846 16.1099818,10.9629381 16.01,11.12 C15.925307,11.2831948 15.8872458,11.4665803 15.9,11.65 C15.9,11.75 15.9,11.86 15.9,11.97 C15.8871797,12.0764102 15.8185641,12.1678976 15.72,12.21 C15.61,12.21 15.49,12.14 15.51,12.04" id="Path" fill="#1D1D1B"></path>
            <path d="M10.15,11.72 C10.1436774,11.9684435 10.1169204,12.2159454 10.07,12.46 C10.0678969,12.5478551 10.0361833,12.6324249 9.98,12.7 C9.88832691,12.7951411 9.76211809,12.8492306 9.63,12.85 C9.56098485,12.8855903 9.47901515,12.8855903 9.41,12.85 C9.35886428,12.7928995 9.33674916,12.7154966 9.35,12.64 C9.34780151,12.301633 9.39496454,11.9647542 9.49,11.64 C9.52465934,11.5498844 9.52465934,11.4501156 9.49,11.36 C9.49,11.3 9.39,11.27 9.37,11.21 C9.34511059,11.1630974 9.34511059,11.1069026 9.37,11.06 C9.40361628,11.0131898 9.44827134,10.9754047 9.5,10.95 C9.59997363,10.8815448 9.70731157,10.8245215 9.82,10.78 C9.9358376,10.7353015 10.0641624,10.7353015 10.18,10.78 L10.18,10.78 C10.2167892,10.8261115 10.2313459,10.8861119 10.2197772,10.9439554 C10.2082084,11.001799 10.1716944,11.0515853 10.12,11.08 L10.39,10.9 C10.4723355,10.83984 10.5633884,10.7926274 10.66,10.76 C10.7526395,10.7205389 10.8573605,10.7205389 10.95,10.76 C11.0342447,10.8171903 11.0708594,10.922966 11.04,11.02 C11.2081449,10.8417414 11.43589,10.7314274 11.68,10.71 C11.7740231,10.6993237 11.8682421,10.7283142 11.94,10.79 C11.9900894,10.8631077 12.0114529,10.9521222 12,11.04 C12.0054266,11.4713509 11.9550079,11.9015906 11.85,12.32 C11.85,12.32 11.91,12.26 11.94,12.32 C11.9596496,12.3540341 11.9596496,12.3959659 11.94,12.43 C11.9214149,12.466311 11.8938816,12.4972859 11.86,12.52 C11.7285456,12.6187183 11.5732727,12.6808275 11.41,12.7 C11.3587563,12.7211135 11.3012437,12.7211135 11.25,12.7 C11.16,12.64 11.16,12.51 11.18,12.4 L11.31,11.69 C11.31,11.59 11.31,11.47 11.25,11.42 C11.1770413,11.3843825 11.0890798,11.4053257 11.04,11.47 C10.9940321,11.5357384 10.9632874,11.6108923 10.95,11.69 L10.79,12.42 C10.7831099,12.5279669 10.7280299,12.6271108 10.64,12.69 C10.5338951,12.7403197 10.4069608,12.7064706 10.34,12.61 C10.2470927,12.4498689 10.2184966,12.2604195 10.26,12.08 L10.26,11.68 C10.2813387,11.6392936 10.2813387,11.5907064 10.26,11.55 C10.2430237,11.5322736 10.2195442,11.5222495 10.195,11.5222495 C10.1704558,11.5222495 10.1469763,11.5322736 10.13,11.55 C10.0946976,11.579534 10.0672203,11.6173153 10.05,11.66" id="Path" fill="#1D1D1B"></path>
            <path d="M17.32,11.72 C17.3086735,11.9680846 17.2819555,12.2152267 17.24,12.46 C17.2286097,12.5457953 17.1978316,12.6278702 17.15,12.7 C17.0534265,12.7939383 16.9247032,12.847573 16.79,12.85 C16.7245174,12.8855651 16.6454826,12.8855651 16.58,12.85 C16.5242129,12.7955703 16.5013889,12.7156863 16.52,12.64 C16.5198745,12.3024454 16.563573,11.9663028 16.65,11.64 C16.65,11.54 16.71,11.44 16.65,11.36 C16.59,11.28 16.56,11.27 16.53,11.21 C16.5067486,11.1627031 16.5067486,11.1072969 16.53,11.06 C16.5622456,11.0156812 16.6030498,10.9782774 16.65,10.95 C16.7546597,10.8835176 16.8651081,10.8266199 16.98,10.78 C17.0958376,10.7353015 17.2241624,10.7353015 17.34,10.78 L17.39,10.78 C17.4267892,10.8261115 17.4413459,10.8861119 17.4297772,10.9439554 C17.4182084,11.001799 17.3816944,11.0515853 17.33,11.08 L17.6,10.9 C17.6787496,10.8399268 17.7664988,10.7926772 17.86,10.76 C17.9523917,10.7193429 18.0576083,10.7193429 18.15,10.76 C18.2409455,10.8118379 18.2827692,10.9205795 18.25,11.02 C18.4181449,10.8417414 18.64589,10.7314274 18.89,10.71 C18.9840231,10.6993237 19.0782421,10.7283142 19.15,10.79 C19.1956412,10.8650126 19.2166247,10.9524436 19.21,11.04 C19.2121596,11.4717855 19.1583788,11.9020318 19.05,12.32 C19.0631662,12.3065623 19.0811872,12.2989898 19.1,12.2989898 C19.1188128,12.2989898 19.1368338,12.3065623 19.15,12.32 C19.1750146,12.3524003 19.1750146,12.3975997 19.15,12.43 C19.1382563,12.4705215 19.1088652,12.5035864 19.07,12.52 C18.9421171,12.6183515 18.7901487,12.6805204 18.63,12.7 C18.5750731,12.7198582 18.5149269,12.7198582 18.46,12.7 C18.37,12.64 18.38,12.51 18.4,12.4 L18.53,11.69 C18.53,11.59 18.53,11.47 18.47,11.42 C18.3970413,11.3843825 18.3090798,11.4053257 18.26,11.47 C18.2140321,11.5357384 18.1832874,11.6108923 18.17,11.69 L18.01,12.42 C18.0031099,12.5279669 17.9480299,12.6271108 17.86,12.69 C17.7538951,12.7403197 17.6269608,12.7064706 17.56,12.61 C17.4618934,12.4517379 17.4329773,12.2601685 17.48,12.08 L17.48,11.68 C17.5013387,11.6392936 17.5013387,11.5907064 17.48,11.55 C17.4630237,11.5322736 17.4395442,11.5222495 17.415,11.5222495 C17.3904558,11.5222495 17.3669763,11.5322736 17.35,11.55 C17.3147077,11.5819974 17.2843753,11.6190704 17.26,11.66" id="Path" fill="#1D1D1B"></path>
            <path d="M10.77,14.07 C10.8949606,14.0527877 11.0212988,14.0900345 11.1169366,14.172283 C11.2125745,14.2545315 11.268313,14.3738708 11.27,14.5 C11.2715061,14.6555112 11.1756059,14.7953657 11.03,14.85 C11.2064974,14.8888452 11.3291085,15.0495082 11.32,15.23 C11.3177043,15.3601563 11.2615296,15.483531 11.1648644,15.5707192 C11.0681992,15.6579074 10.9397025,15.7010991 10.81,15.69 L10.16,15.69 L10.16,14.07 L10.77,14.07 Z M10.71,14.72 C10.7620588,14.7255689 10.8141085,14.7094093 10.85386,14.6753366 C10.8936115,14.6412639 10.9175414,14.5922981 10.92,14.54 C10.92,14.44 10.84,14.37 10.7,14.37 L10.51,14.37 L10.51,14.72 L10.71,14.72 Z M10.71,15.39 C10.85,15.39 10.93,15.32 10.93,15.2 C10.93,15.08 10.85,15.01 10.71,15.01 L10.48,15.01 L10.48,15.39 L10.71,15.39 Z" id="Shape" fill="#1D1D1B"></path>
            <path d="M12.61,15.36 L11.98,15.36 L11.87,15.69 L11.49,15.69 L12.1,14.07 L12.52,14.07 L13.12,15.69 L12.73,15.69 L12.61,15.36 Z M12.1,15.03 L12.5,15.03 L12.3,14.47 L12.1,15.03 Z" id="Shape" fill="#1D1D1B"></path>
            <path d="M13.88,15.08 L13.75,15.08 L13.75,15.69 L13.39,15.69 L13.39,14.07 L14.03,14.07 C14.1677252,14.0617213 14.3027498,14.1107219 14.403111,14.2054023 C14.5034723,14.3000827 14.5602486,14.4320264 14.56,14.57 C14.5663941,14.777108 14.436404,14.9639689 14.24,15.03 L14.57,15.69 L14.17,15.69 L13.88,15.08 Z M13.96,14.77 C14.11,14.77 14.19,14.69 14.19,14.58 C14.19,14.47 14.11,14.38 13.96,14.38 L13.75,14.38 L13.75,14.77 L13.96,14.77 Z" id="Shape" fill="#1D1D1B"></path>
            <path d="M12.08,21.66 C6.7891121,21.66 2.5,17.3708879 2.5,12.08 C2.5,6.7891121 6.7891121,2.5 12.08,2.5 C17.3708879,2.5 21.66,6.7891121 21.66,12.08 C21.6544882,17.3686031 17.3686031,21.6544882 12.08,21.66 Z M12.08,3.77 C7.49051373,3.77 3.77,7.49051373 3.77,12.08 C3.77,16.6694863 7.49051373,20.39 12.08,20.39 C16.6694863,20.39 20.39,16.6694863 20.39,12.08 C20.3844898,7.49279805 16.667202,3.77551016 12.08,3.77 L12.08,3.77 Z" id="Shape" fill="#1D1D1B"></path>
        </g>
    </g>
</svg>