<?xml version="1.0" encoding="UTF-8"?>
<svg viewBox="0 0 24 24" version="1.1" xmlns="http://www.w3.org/2000/svg" xmlns:xlink="http://www.w3.org/1999/xlink">
    <g id="Page-1" stroke="none" stroke-width="1" fill="none" fill-rule="evenodd">
        <g id="Infopoint" fill-rule="nonzero">
            <circle id="Oval" fill="#000000" cx="11.79" cy="11.79" r="11.79"></circle>
            <path d="M11.79,21.34 C6.51568064,21.34 2.24,17.0643194 2.24,11.79 C2.24,6.51568064 6.51568064,2.24 11.79,2.24 C17.0643194,2.24 21.34,6.51568064 21.34,11.79 C21.3344882,17.0620346 17.0620346,21.3344882 11.79,21.34 Z M11.79,3.51 C7.21708227,3.51 3.51,7.21708227 3.51,11.79 C3.51,16.3629177 7.21708227,20.07 11.79,20.07 C16.3629177,20.07 20.07,16.3629177 20.07,11.79 C20.07,9.59400746 19.1976454,7.48795707 17.6448441,5.93515585 C16.0920429,4.38235464 13.9859925,3.51 11.79,3.51 Z" id="Shape" fill="#F6E81D"></path>
            <g id="Group" transform="translate(5.9089, 5.7635)" fill="#F6E81D">
                <path d="M8.76056735,8.47812302 C9.04816495,8.94199944 9.50412929,9.35898197 10.227412,9.48272574 C10.2364523,9.48442084 10.2454926,9.48498582 10.2539674,9.48498582 C10.34098,9.48498582 10.4172571,9.41209777 10.4302607,9.31152757 C10.4449508,9.20021892 10.377714,9.09625246 10.2799601,9.07986418 C9.58329204,8.9606449 9.18042686,8.52558465 8.94708559,8.073005 C9.23468319,8.42444889 9.64431775,8.71486706 10.2268609,8.81431048 C10.2359012,8.81600557 10.2449415,8.81657056 10.2534163,8.81657056 C10.3404289,8.81657056 10.416706,8.74368251 10.4297096,8.64311231 C10.4443997,8.53180366 10.3771629,8.42783719 10.279409,8.41144892 C9.58274094,8.29222964 9.17987577,7.85716939 8.9465345,7.40458974 C9.23413209,7.75603362 9.64376665,8.0464518 10.2263098,8.14589522 C10.2353501,8.14759017 10.2443904,8.14815515 10.2528652,8.14815515 C10.3398778,8.14815515 10.4161549,8.0752671 10.4291585,7.9746969 C10.4438486,7.86338825 10.3766118,7.75942179 10.2788579,7.74303351 C9.57540599,7.62268456 9.17199117,7.1808419 8.93976367,6.72373486 C9.22792538,7.07912756 9.63868817,7.37294489 10.2263084,7.47351654 C10.2353487,7.47521163 10.244389,7.47577661 10.2528637,7.47577661 C10.3398764,7.47577661 10.4161534,7.40288857 10.429157,7.30231837 C10.4438472,7.19100972 10.3766104,7.08704325 10.2788564,7.07065498 C9.6810677,6.96838664 9.30024642,6.63389949 9.05615803,6.25533467 C9.33584355,6.54913753 9.71384425,6.7836215 10.2257428,6.87120403 C10.2347831,6.87289898 10.2438234,6.87346396 10.2522982,6.87346396 C10.3393108,6.87346396 10.4155879,6.80114147 10.4285915,6.70000571 C10.4432816,6.58869707 10.3760448,6.4847306 10.2782909,6.46834232 C9.53811363,6.34177797 9.1296073,5.8586927 8.90359953,5.37672119 C9.19288947,5.75246543 9.61325669,6.0671695 10.2257414,6.17226853 C10.2347817,6.17396363 10.243822,6.17452861 10.2522967,6.17452861 C10.3393094,6.17452861 10.4155864,6.10220612 10.42859,6.00107036 C10.4432802,5.88976171 10.3760434,5.78579525 10.2782894,5.76940697 C9.57483754,5.64905802 9.17142271,5.20721536 8.93919521,4.75010832 C9.22735692,5.10550102 9.63811971,5.39931835 10.2257399,5.49932588 C10.2347802,5.50102098 10.2438205,5.5015861 10.2522953,5.5015861 C10.3393079,5.5015861 10.415585,5.42926362 10.4285886,5.32812785 C10.4432787,5.21681921 10.3760419,5.11285274 10.278288,5.09646447 C9.57483609,4.97611551 9.17142127,4.53427286 8.93919376,4.07716582 C9.22735548,4.43255851 9.63811827,4.72637584 10.2257385,4.82694749 C10.2347788,4.82864259 10.2438191,4.82920757 10.2522938,4.82920757 C10.3393065,4.82920757 10.4155835,4.75688508 10.4285871,4.65574932 C10.4432773,4.54444067 10.3760405,4.44047421 10.2782865,4.42408593 C9.57483465,4.30373698 9.17141982,3.86189432 8.93919232,3.40478728 C9.22735403,3.76017998 9.63811682,4.05399731 10.225737,4.15456896 C10.2347773,4.15626391 10.2438176,4.15682889 10.2522924,4.15682889 C10.339305,4.15682889 10.4155821,4.0845064 10.4285857,3.98337064 C10.4432758,3.872062 10.3760391,3.76809553 10.2782851,3.75170725 C9.5748332,3.6313583 9.17141837,3.18951564 8.93919087,2.73184449 C9.22735258,3.08723718 9.63811537,3.38105451 10.2257356,3.48162616 C10.2347759,3.48332111 10.2438162,3.48388624 10.2522909,3.48388624 C10.3393036,3.48388624 10.4155807,3.41099819 10.4285842,3.31042799 C10.4432744,3.19911935 10.3760376,3.09515288 10.2782836,3.0787646 C9.57483175,2.95841565 9.17141693,2.51657299 8.93918943,2.05946595 C9.22735114,2.41485865 9.63811393,2.70867598 10.2257341,2.80924763 C10.2347744,2.81094272 10.2438147,2.81150771 10.2522895,2.81150771 C10.3393021,2.81150771 10.4155792,2.73861966 10.4285828,2.63804946 C10.4432729,2.52674081 10.3760362,2.42277435 10.2782822,2.40638607 C8.7177076,2.13235617 8.63120991,0.274608479 8.62846165,0.196066259 C8.62450648,0.0864528531 8.54596918,0 8.4499119,0 C8.35272899,0.000565127904 8.27419545,0.0881437528 8.27136041,0.197758605 C8.21824822,2.30870732 6.665078,2.36859034 6.59608235,2.37032608 C6.49776861,2.37202117 6.41866083,2.46411966 6.42036764,2.57656088 C6.42149775,2.6889992 6.49947108,2.77714006 6.60117385,2.77770418 C6.61360435,2.77770418 7.41818651,2.7528426 8.01033409,2.07312406 C7.55153471,3.00653252 6.64863187,3.04212965 6.59609681,3.04325788 C6.49778307,3.04495283 6.41867529,3.13705147 6.4203821,3.24949268 C6.42151221,3.361931 6.49948554,3.45063598 6.60118832,3.45063598 C6.61361882,3.45063598 7.41820097,3.4257744 8.01034856,2.74661997 C7.55154917,3.68002844 6.64864633,3.71506145 6.59611128,3.7167538 C6.49779754,3.71844875 6.41868976,3.81054738 6.42039657,3.92355271 C6.42152668,4.03599103 6.50458428,4.12526013 6.60120278,4.12469601 C6.61363328,4.12469601 7.41821544,4.09983443 8.01036302,3.42068 C7.55156364,4.35408847 6.6486608,4.38912148 6.59612574,4.39024971 C6.497812,4.39194466 6.41870422,4.4840433 6.42041103,4.59704863 C6.42154114,4.70948695 6.50459874,4.79875604 6.60121724,4.79819193 C6.61364774,4.79819193 7.4182299,4.77333035 8.01037749,4.09361181 C7.5515781,5.02702027 6.64867526,5.0626174 6.59614021,5.06374563 C6.49782647,5.06544058 6.41871868,5.15753922 6.42042549,5.27054455 C6.42155561,5.38298287 6.50461321,5.47225196 6.60123171,5.47168784 C6.61366221,5.47168784 7.41824437,5.44682627 8.01039195,4.76767184 C7.55159257,5.7010803 6.64868972,5.73667743 6.59615467,5.73780566 C6.49784093,5.73950076 6.41873315,5.83159925 6.42043996,5.94460458 C6.42157007,6.05647879 6.50123719,6.14574788 6.59898971,6.14574788 C6.61424527,6.14574788 7.44369103,6.11975662 8.03809508,5.40895532 C7.58946424,6.39944069 6.64983604,6.43616605 6.59615829,6.43729428 C6.49784455,6.43898923 6.41873676,6.53108787 6.42044358,6.6440932 C6.42157369,6.7559674 6.50124081,6.84523649 6.59899333,6.84523649 C6.61311878,6.84523649 7.33351857,6.82320128 7.91209846,6.24631952 C7.43409022,7.00796209 6.64476261,7.03904629 6.5961619,7.04017452 C6.49784816,7.04186962 6.41874038,7.13396811 6.42044719,7.24640932 C6.4215773,7.35884764 6.49955063,7.4469885 6.60125341,7.44755262 C6.61368391,7.44755262 7.41826606,7.42269249 8.01041365,6.7429725 C7.55161426,7.67638097 6.64871142,7.71197809 6.59617637,7.71310632 C6.49786263,7.71480142 6.41875485,7.80689991 6.42046166,7.91934112 C6.42159177,8.03177945 6.4995651,8.12048442 6.60126787,8.12048442 C6.61369837,8.12048442 7.4137676,8.09562284 8.00590073,7.42155992 C7.54597311,8.34536396 6.64872589,8.38039697 6.59674048,8.3815252 C6.49842674,8.38322015 6.41931896,8.47531879 6.42102577,8.58776 C6.42215574,8.70019832 6.50012777,8.7889033 6.60183199,8.7889033 C6.61426234,8.7889033 7.41433172,8.76404172 8.00646484,8.0899788 C7.54653722,9.01378284 6.64929,9.04881585 6.5973046,9.04994408 C6.49899086,9.05163903 6.41988308,9.14373767 6.42158989,9.25617888 C6.42271985,9.3686172 6.50069333,9.45732218 6.6023961,9.45732218 C6.61595657,9.45732218 7.53467634,9.42963568 8.13129345,8.60244147 L8.13129345,11.2546517 C7.42614921,11.1150924 6.67008995,11.0382483 5.88307666,11.0382483 C5.22482632,11.0382483 4.58805576,11.0913605 3.98461141,11.1908054 L3.98348129,8.81211882 C4.35978965,9.37148985 4.9355345,9.86023075 5.81974921,10.0116596 C5.83161458,10.0133547 5.84291555,10.0144846 5.85421521,10.0144846 C5.9672191,10.0144846 6.06609117,9.92012693 6.08304356,9.78904098 C6.10168974,9.644396 6.01467567,9.50991957 5.88810553,9.48845426 C4.92757613,9.32403632 4.39696052,8.69741984 4.10434374,8.07194605 C4.48008798,8.5589946 5.02476309,8.96806505 5.81968846,9.10366971 C5.83155383,9.1053648 5.8428548,9.10649477 5.85415446,9.10649477 C5.96715835,9.10649477 6.06603042,9.01213707 6.08298281,8.88105111 C6.10162899,8.73640614 6.01461491,8.60192971 5.88804478,8.5804644 C4.97553751,8.42452266 4.4517636,7.85045569 4.1499908,7.25719434 C4.52402823,7.71825019 5.05684245,8.09963558 5.81904913,8.22959909 C5.8309145,8.23129419 5.84221547,8.2324243 5.85351513,8.2324243 C5.96651901,8.2324243 6.06539109,8.1380666 6.08234348,8.00698064 C6.10098966,7.86233567 6.01397558,7.72785924 5.88740545,7.70639393 C4.97489818,7.55045219 4.45112427,6.97638522 4.14935147,6.38312387 C4.5233889,6.84417972 5.05620312,7.22556511 5.8184098,7.35552862 C5.83027517,7.35722357 5.84157613,7.35835368 5.8528758,7.35835368 C5.96587968,7.35835368 6.06475175,7.26399598 6.08170414,7.13291003 C6.10035033,6.98826506 6.01333625,6.85378863 5.88676612,6.83232331 C4.97425885,6.67638157 4.45048494,6.10231461 4.14871214,5.50905326 C4.52274957,5.9701091 5.05556379,6.3514945 5.81777047,6.48145801 C5.82963584,6.4831531 5.8409368,6.48428307 5.85223647,6.48428307 C5.96524035,6.48428307 6.06411242,6.38992537 6.08106481,6.25883941 C6.099711,6.11419444 6.01269692,5.97971801 5.88612679,5.9582527 C4.97361952,5.80231096 4.44984561,5.22824399 4.14807281,4.63498264 C4.52211024,5.09603849 5.05492446,5.47742388 5.81713113,5.60738739 C5.82899665,5.60908249 5.84029747,5.6102126 5.85159714,5.6102126 C5.96460102,5.6102126 6.06347309,5.5158549 6.08042548,5.38476894 C6.09907167,5.24012397 6.01205759,5.10564754 5.88548746,5.08418223 C4.97298019,4.92824049 4.44920628,4.35417352 4.14743348,3.76091217 C4.52147091,4.22196802 5.05428513,4.60335341 5.8164918,4.73331692 C5.82835732,4.73501187 5.83965814,4.73614198 5.85095781,4.73614198 C5.96396169,4.73614198 6.06283376,4.64178428 6.07978615,4.51069833 C6.09843234,4.36605336 6.01141826,4.23157693 5.88484812,4.21011161 C3.85649169,3.86375923 3.74453648,1.4533231 3.74063107,1.35105911 C3.73611091,1.20923905 3.63327701,1.09680217 3.50896768,1.09680217 C3.3829686,1.0973673 3.28070171,1.21093574 3.27730256,1.35387968 C3.20837055,4.09258757 1.19296852,4.17055121 1.10314399,4.17214231 C0.975449961,4.17440239 0.873187413,4.2941865 0.874879759,4.43996694 C0.876574709,4.58630426 0.977713655,4.69987949 1.10936372,4.70100772 C1.1257491,4.70100772 2.16933654,4.66880107 2.93782081,3.7868081 C2.34285265,4.99820974 1.17098248,5.04397541 1.10256541,5.04566776 C0.974871381,5.04792783 0.872608833,5.16771195 0.874301179,5.31349239 C0.875996129,5.45926559 0.977135075,5.57396905 1.10878514,5.57453317 C1.12517052,5.57453317 2.16875796,5.54232652 2.93724223,4.66089767 C2.34227407,5.87173519 1.1704039,5.91806497 1.10198683,5.91919321 C0.974292801,5.92145328 0.872030253,6.0412374 0.873722599,6.18701783 C0.875417694,6.33279104 0.98277189,6.44862273 1.10820656,6.44805861 C1.12459194,6.44805861 2.16817938,6.41585197 2.93666365,5.53442312 C2.34169549,6.74582475 1.16982532,6.79159042 1.10140825,6.79271865 C0.973714222,6.79497873 0.871451673,6.91476285 0.873144019,7.06054328 C0.874839114,7.2068806 0.98219331,7.32214818 1.10762798,7.32158406 C1.12401337,7.32158406 2.1676008,7.28937741 2.93608507,6.40738445 C2.34111691,7.61878609 1.16924674,7.66455175 1.10082967,7.66567999 C0.973135642,7.66794006 0.870873093,7.78772418 0.872565439,7.93350462 C0.874260534,8.07984193 0.98161473,8.19510951 1.1070494,8.1945454 C1.12343479,8.1945454 2.16702222,8.16233875 2.93550649,7.2809099 C2.34053833,8.49231153 1.16866816,8.5380772 1.10025109,8.53976955 C0.972557062,8.54202963 0.870294513,8.66181374 0.871986859,8.80759418 C0.873681954,8.95223915 0.97708011,9.06863496 1.10365025,9.06863496 L1.10704029,9.06863496 C1.12342567,9.06863496 2.19978966,9.03529863 2.97108004,8.11261848 C2.38855135,9.39803495 1.16981621,9.44607155 1.10024198,9.44719978 C0.972547949,9.44945986 0.870285401,9.56924397 0.871977747,9.71502441 C0.873672841,9.85966938 0.977070997,9.97606519 1.10364113,9.97606519 L1.10703118,9.97606519 C1.12454624,9.97606519 2.35968556,9.93764459 3.1314822,8.80760864 L3.1314822,11.3626174 C1.9453282,11.6620428 0.927135297,12.1468832 0.188793035,12.7547682 C-0.151235302,13.0347171 2.5464283,13.9804182 2.33603405,14.3064677 L9.47366706,14.4500656 C9.29294813,14.1698752 11.9758629,13.1391246 11.698259,12.892357 C10.9777394,12.2518726 9.96911904,11.7193428 8.76019662,11.3999358 L8.76056735,8.47812302 Z" id="Path"></path>
                <path d="M0.901716753,2.54247196 C1.075175,2.54247196 1.21587117,2.40178159 1.21587117,2.22831755 C1.21587117,2.05485352 1.07518079,1.91416314 0.901716753,1.91416314 C0.728258503,1.91416314 0.587562339,2.05485352 0.587562339,2.22831755 C0.588127467,2.4017758 0.728252717,2.54247196 0.901716753,2.54247196 Z" id="Path"></path>
                <path d="M0.15821267,6.47667055 C0.245790861,6.47667055 0.31642534,6.4060433 0.31642534,6.31845788 C0.31642534,6.23087245 0.245798093,6.16024521 0.15821267,6.16024521 C0.070634479,6.16024521 0,6.23087245 0,6.31845788 C0,6.40547051 0.0706272467,6.47667055 0.15821267,6.47667055 Z" id="Path"></path>
                <path d="M5.2699949,1.79494675 C5.2699949,2.0497678 4.88748127,2.0497678 4.88748127,1.79494675 C4.88748127,1.54012571 5.2699949,1.54012571 5.2699949,1.79494675" id="Path"></path>
                <path d="M11.910067,2.98942493 C12.1609392,2.98942493 12.3637748,2.78602517 12.3637748,2.53571704 C12.3637748,2.28484481 12.1603751,2.08200916 11.910067,2.08200916 C11.6591947,2.08200916 11.4563591,2.28540892 11.4563591,2.53571704 C11.4563591,2.78602517 11.6591947,2.98942493 11.910067,2.98942493 Z" id="Path"></path>
                <path d="M11.1456183,5.90329788 C11.2908274,5.90329788 11.4083514,5.78577384 11.4083514,5.64056475 C11.4083514,5.49535567 11.2908274,5.37783163 11.1456183,5.37783163 C11.0004092,5.37783163 10.8828852,5.49535567 10.8828852,5.64056475 C10.8828852,5.78577384 11.0004092,5.90329788 11.1456183,5.90329788 Z" id="Path"></path>
                <path d="M9.47366706,0.839523321 C9.61887615,0.839523321 9.73640019,0.721999281 9.73640019,0.576790194 C9.73640019,0.431581107 9.61887615,0.314057068 9.47366706,0.314057068 C9.32845797,0.314057068 9.21093393,0.431581107 9.21093393,0.576790194 C9.21093393,0.721999281 9.32845797,0.839523321 9.47366706,0.839523321 Z" id="Path"></path>
            </g>
        </g>
    </g>
</svg>